%TF.GenerationSoftware,KiCad,Pcbnew,7.0.6-71-g49772d2539*%
%TF.CreationDate,2023-08-07T20:47:23-04:00*%
%TF.ProjectId,Free_PDK,46726565-5f50-4444-9b2e-6b696361645f,rev?*%
%TF.SameCoordinates,Original*%
%TF.FileFunction,Drillmap*%
%TF.FilePolarity,Positive*%
%FSLAX45Y45*%
G04 Gerber Fmt 4.5, Leading zero omitted, Abs format (unit mm)*
G04 Created by KiCad (PCBNEW 7.0.6-71-g49772d2539) date 2023-08-07 20:47:23*
%MOMM*%
%LPD*%
G01*
G04 APERTURE LIST*
%ADD10C,0.254000*%
%ADD11C,0.200000*%
%ADD12C,0.040000*%
%ADD13C,0.060000*%
%ADD14C,0.100000*%
%ADD15C,0.220000*%
G04 APERTURE END LIST*
D10*
X12476480Y-8432800D02*
X12476480Y-10515600D01*
X7531100Y-8178800D02*
X12222480Y-8178800D01*
X12222480Y-10769600D02*
X7531100Y-10769600D01*
X7277100Y-10515600D02*
G75*
G03*
X7531100Y-10769600I254000J0D01*
G01*
X7277100Y-10515600D02*
X7277100Y-8432800D01*
X12222480Y-10769600D02*
G75*
G03*
X12476480Y-10515600I0J254000D01*
G01*
X7531100Y-8178800D02*
G75*
G03*
X7277100Y-8432800I0J-254000D01*
G01*
X12476480Y-8432800D02*
G75*
G03*
X12222480Y-8178800I-254000J0D01*
G01*
D11*
D12*
X7473000Y-8745540D02*
X7513000Y-8785540D01*
X7513000Y-8745540D02*
X7473000Y-8785540D01*
X7650800Y-8745540D02*
X7690800Y-8785540D01*
X7690800Y-8745540D02*
X7650800Y-8785540D01*
X7869240Y-8956360D02*
X7909240Y-8996360D01*
X7909240Y-8956360D02*
X7869240Y-8996360D01*
X7876860Y-8776020D02*
X7916860Y-8816020D01*
X7916860Y-8776020D02*
X7876860Y-8816020D01*
X7899490Y-10296460D02*
X7939490Y-10336460D01*
X7939490Y-10296460D02*
X7899490Y-10336460D01*
X7912420Y-9078280D02*
X7952420Y-9118280D01*
X7952420Y-9078280D02*
X7912420Y-9118280D01*
X8021640Y-9101140D02*
X8061640Y-9141140D01*
X8061640Y-9101140D02*
X8021640Y-9141140D01*
X8039420Y-9207820D02*
X8079420Y-9247820D01*
X8079420Y-9207820D02*
X8039420Y-9247820D01*
X8044500Y-9314500D02*
X8084500Y-9354500D01*
X8084500Y-9314500D02*
X8044500Y-9354500D01*
X8047040Y-10406700D02*
X8087040Y-10446700D01*
X8087040Y-10406700D02*
X8047040Y-10446700D01*
X8054660Y-8422960D02*
X8094660Y-8462960D01*
X8094660Y-8422960D02*
X8054660Y-8462960D01*
X8054660Y-8577900D02*
X8094660Y-8617900D01*
X8094660Y-8577900D02*
X8054660Y-8617900D01*
X8059740Y-10607360D02*
X8099740Y-10647360D01*
X8099740Y-10607360D02*
X8059740Y-10647360D01*
X8062280Y-10221280D02*
X8102280Y-10261280D01*
X8102280Y-10221280D02*
X8062280Y-10261280D01*
X8064820Y-10096820D02*
X8104820Y-10136820D01*
X8104820Y-10096820D02*
X8064820Y-10136820D01*
X8080060Y-9438000D02*
X8120060Y-9478000D01*
X8120060Y-9438000D02*
X8080060Y-9478000D01*
X8080060Y-9928000D02*
X8120060Y-9968000D01*
X8120060Y-9928000D02*
X8080060Y-9968000D01*
X8128320Y-9263700D02*
X8168320Y-9303700D01*
X8168320Y-9263700D02*
X8128320Y-9303700D01*
X8135940Y-8923340D02*
X8175940Y-8963340D01*
X8175940Y-8923340D02*
X8135940Y-8963340D01*
X8138480Y-10406700D02*
X8178480Y-10446700D01*
X8178480Y-10406700D02*
X8138480Y-10446700D01*
X8163880Y-10607360D02*
X8203880Y-10647360D01*
X8203880Y-10607360D02*
X8163880Y-10647360D01*
X8433120Y-10338120D02*
X8473120Y-10378120D01*
X8473120Y-10338120D02*
X8433120Y-10378120D01*
X8433120Y-10485440D02*
X8473120Y-10525440D01*
X8473120Y-10485440D02*
X8433120Y-10525440D01*
X8483920Y-10206040D02*
X8523920Y-10246040D01*
X8523920Y-10206040D02*
X8483920Y-10246040D01*
X8555040Y-9469440D02*
X8595040Y-9509440D01*
X8595040Y-9469440D02*
X8555040Y-9509440D01*
X8555040Y-9898700D02*
X8595040Y-9938700D01*
X8595040Y-9898700D02*
X8555040Y-9938700D01*
X8595000Y-8677300D02*
X8635000Y-8717300D01*
X8635000Y-8677300D02*
X8595000Y-8717300D01*
X8613444Y-8886224D02*
X8653444Y-8926224D01*
X8653444Y-8886224D02*
X8613444Y-8926224D01*
X8711236Y-8906885D02*
X8751236Y-8946885D01*
X8751236Y-8906885D02*
X8711236Y-8946885D01*
X8798880Y-9131620D02*
X8838880Y-9171620D01*
X8838880Y-9131620D02*
X8798880Y-9171620D01*
X8803960Y-10119680D02*
X8843960Y-10159680D01*
X8843960Y-10119680D02*
X8803960Y-10159680D01*
X8829820Y-10596380D02*
X8869820Y-10636380D01*
X8869820Y-10596380D02*
X8829820Y-10636380D01*
X8872540Y-8618540D02*
X8912540Y-8658540D01*
X8912540Y-8618540D02*
X8872540Y-8658540D01*
X8877620Y-8895400D02*
X8917620Y-8935400D01*
X8917620Y-8895400D02*
X8877620Y-8935400D01*
X8893675Y-9263700D02*
X8933675Y-9303700D01*
X8933675Y-9263700D02*
X8893675Y-9303700D01*
X8894877Y-9103787D02*
X8934877Y-9143787D01*
X8934877Y-9103787D02*
X8894877Y-9143787D01*
X9002080Y-8616000D02*
X9042080Y-8656000D01*
X9042080Y-8616000D02*
X9002080Y-8656000D01*
X9007160Y-8725220D02*
X9047160Y-8765220D01*
X9047160Y-8725220D02*
X9007160Y-8765220D01*
X9045260Y-9944420D02*
X9085260Y-9984420D01*
X9085260Y-9944420D02*
X9045260Y-9984420D01*
X9144320Y-10487980D02*
X9184320Y-10527980D01*
X9184320Y-10487980D02*
X9144320Y-10527980D01*
X9179880Y-9360650D02*
X9219880Y-9400650D01*
X9219880Y-9360650D02*
X9179880Y-9400650D01*
X9200310Y-10119680D02*
X9240310Y-10159680D01*
X9240310Y-10119680D02*
X9200310Y-10159680D01*
X9208635Y-8679500D02*
X9248635Y-8719500D01*
X9248635Y-8679500D02*
X9208635Y-8719500D01*
X9211175Y-8489000D02*
X9251175Y-8529000D01*
X9251175Y-8489000D02*
X9211175Y-8529000D01*
X9289100Y-10282240D02*
X9329100Y-10322240D01*
X9329100Y-10282240D02*
X9289100Y-10322240D01*
X9291640Y-9103680D02*
X9331640Y-9143680D01*
X9331640Y-9103680D02*
X9291640Y-9143680D01*
X9381355Y-8872540D02*
X9421355Y-8912540D01*
X9421355Y-8872540D02*
X9381355Y-8912540D01*
X9383895Y-9723440D02*
X9423895Y-9763440D01*
X9423895Y-9723440D02*
X9383895Y-9763440D01*
X9383895Y-9926640D02*
X9423895Y-9966640D01*
X9423895Y-9926640D02*
X9383895Y-9966640D01*
X9393240Y-9507540D02*
X9433240Y-9547540D01*
X9433240Y-9507540D02*
X9393240Y-9547540D01*
X9493115Y-9611680D02*
X9533115Y-9651680D01*
X9533115Y-9611680D02*
X9493115Y-9651680D01*
X9495655Y-9819960D02*
X9535655Y-9859960D01*
X9535655Y-9819960D02*
X9495655Y-9859960D01*
X9612495Y-9499920D02*
X9652495Y-9539920D01*
X9652495Y-9499920D02*
X9612495Y-9539920D01*
X9612495Y-9723440D02*
X9652495Y-9763440D01*
X9652495Y-9723440D02*
X9612495Y-9763440D01*
X9615035Y-9926640D02*
X9655035Y-9966640D01*
X9655035Y-9926640D02*
X9615035Y-9966640D01*
X9627735Y-8565200D02*
X9667735Y-8605200D01*
X9667735Y-8565200D02*
X9627735Y-8605200D01*
X9627735Y-8692200D02*
X9667735Y-8732200D01*
X9667735Y-8692200D02*
X9627735Y-8732200D01*
X9721715Y-9609140D02*
X9761715Y-9649140D01*
X9761715Y-9609140D02*
X9721715Y-9649140D01*
X9729335Y-9822500D02*
X9769335Y-9862500D01*
X9769335Y-9822500D02*
X9729335Y-9862500D01*
X9788186Y-9172691D02*
X9828186Y-9212691D01*
X9828186Y-9172691D02*
X9788186Y-9212691D01*
X9833475Y-9499920D02*
X9873475Y-9539920D01*
X9873475Y-9499920D02*
X9833475Y-9539920D01*
X9833475Y-9952040D02*
X9873475Y-9992040D01*
X9873475Y-9952040D02*
X9833475Y-9992040D01*
X9836015Y-9723440D02*
X9876015Y-9763440D01*
X9876015Y-9723440D02*
X9836015Y-9763440D01*
X9957935Y-10152700D02*
X9997935Y-10192700D01*
X9997935Y-10152700D02*
X9957935Y-10192700D01*
X9962613Y-8621761D02*
X10002613Y-8661761D01*
X10002613Y-8621761D02*
X9962613Y-8661761D01*
X10018080Y-8519480D02*
X10058080Y-8559480D01*
X10058080Y-8519480D02*
X10018080Y-8559480D01*
X10041755Y-8763320D02*
X10081755Y-8803320D01*
X10081755Y-8763320D02*
X10041755Y-8803320D01*
X10061260Y-9347520D02*
X10101260Y-9387520D01*
X10101260Y-9347520D02*
X10061260Y-9387520D01*
X10079040Y-8617210D02*
X10119040Y-8657210D01*
X10119040Y-8617210D02*
X10079040Y-8657210D01*
X10176890Y-10038772D02*
X10216890Y-10078772D01*
X10216890Y-10038772D02*
X10176890Y-10078772D01*
X10199235Y-9596440D02*
X10239235Y-9636440D01*
X10239235Y-9596440D02*
X10199235Y-9636440D01*
X10213660Y-9177340D02*
X10253660Y-9217340D01*
X10253660Y-9177340D02*
X10213660Y-9217340D01*
X10249501Y-9969617D02*
X10289501Y-10009617D01*
X10289501Y-9969617D02*
X10249501Y-10009617D01*
X10268675Y-9869550D02*
X10308675Y-9909550D01*
X10308675Y-9869550D02*
X10268675Y-9909550D01*
X10300020Y-10056180D02*
X10340020Y-10096180D01*
X10340020Y-10056180D02*
X10300020Y-10096180D01*
X10308455Y-9055420D02*
X10348455Y-9095420D01*
X10348455Y-9055420D02*
X10308455Y-9095420D01*
X10373680Y-9174580D02*
X10413680Y-9214580D01*
X10413680Y-9174580D02*
X10373680Y-9214580D01*
X10386033Y-9867734D02*
X10426033Y-9907734D01*
X10426033Y-9867734D02*
X10386033Y-9907734D01*
X10386380Y-9970652D02*
X10426380Y-10010652D01*
X10426380Y-9970652D02*
X10386380Y-10010652D01*
X10427800Y-10107320D02*
X10467800Y-10147320D01*
X10467800Y-10107320D02*
X10427800Y-10147320D01*
X10818325Y-9478290D02*
X10858325Y-9518290D01*
X10858325Y-9478290D02*
X10818325Y-9518290D01*
X10858820Y-9212900D02*
X10898820Y-9252900D01*
X10898820Y-9212900D02*
X10858820Y-9252900D01*
X10862175Y-8298500D02*
X10902175Y-8338500D01*
X10902175Y-8298500D02*
X10862175Y-8338500D01*
X10862175Y-8857300D02*
X10902175Y-8897300D01*
X10902175Y-8857300D02*
X10862175Y-8897300D01*
X10864715Y-8486460D02*
X10904715Y-8526460D01*
X10904715Y-8486460D02*
X10864715Y-8526460D01*
X10869885Y-9619300D02*
X10909885Y-9659300D01*
X10909885Y-9619300D02*
X10869885Y-9659300D01*
X10869885Y-9720900D02*
X10909885Y-9760900D01*
X10909885Y-9720900D02*
X10869885Y-9760900D01*
X11240635Y-8872540D02*
X11280635Y-8912540D01*
X11280635Y-8872540D02*
X11240635Y-8912540D01*
X11242985Y-8697280D02*
X11282985Y-8737280D01*
X11282985Y-8697280D02*
X11242985Y-8737280D01*
X11242985Y-9050340D02*
X11282985Y-9090340D01*
X11282985Y-9050340D02*
X11242985Y-9090340D01*
X11351580Y-10477820D02*
X11391580Y-10517820D01*
X11391580Y-10477820D02*
X11351580Y-10517820D01*
X11630980Y-10366060D02*
X11670980Y-10406060D01*
X11670980Y-10366060D02*
X11630980Y-10406060D01*
X12352340Y-9052880D02*
X12392340Y-9092880D01*
X12392340Y-9052880D02*
X12352340Y-9092880D01*
X12352340Y-9456740D02*
X12392340Y-9496740D01*
X12392340Y-9456740D02*
X12352340Y-9496740D01*
X12352340Y-9858060D02*
X12392340Y-9898060D01*
X12392340Y-9858060D02*
X12352340Y-9898060D01*
D13*
X7469660Y-9271000D02*
G75*
G03*
X7469660Y-9271000I-30000J0D01*
G01*
D11*
X7469660Y-9241000D02*
X7409660Y-9241000D01*
X7409660Y-9241000D02*
G75*
G03*
X7409660Y-9301000I0J-30000D01*
G01*
X7409660Y-9301000D02*
X7469660Y-9301000D01*
X7469660Y-9301000D02*
G75*
G03*
X7469660Y-9241000I0J30000D01*
G01*
D13*
X7469660Y-10135000D02*
G75*
G03*
X7469660Y-10135000I-30000J0D01*
G01*
D11*
X7469660Y-10105000D02*
X7409660Y-10105000D01*
X7409660Y-10105000D02*
G75*
G03*
X7409660Y-10165000I0J-30000D01*
G01*
X7409660Y-10165000D02*
X7469660Y-10165000D01*
X7469660Y-10165000D02*
G75*
G03*
X7469660Y-10105000I0J30000D01*
G01*
D13*
X7887660Y-9271000D02*
G75*
G03*
X7887660Y-9271000I-30000J0D01*
G01*
D11*
X7912660Y-9241000D02*
X7802660Y-9241000D01*
X7802660Y-9241000D02*
G75*
G03*
X7802660Y-9301000I0J-30000D01*
G01*
X7802660Y-9301000D02*
X7912660Y-9301000D01*
X7912660Y-9301000D02*
G75*
G03*
X7912660Y-9241000I0J30000D01*
G01*
D13*
X7887660Y-10135000D02*
G75*
G03*
X7887660Y-10135000I-30000J0D01*
G01*
D11*
X7912660Y-10105000D02*
X7802660Y-10105000D01*
X7802660Y-10105000D02*
G75*
G03*
X7802660Y-10165000I0J-30000D01*
G01*
X7802660Y-10165000D02*
X7912660Y-10165000D01*
X7912660Y-10165000D02*
G75*
G03*
X7912660Y-10105000I0J30000D01*
G01*
D14*
X9566455Y-10567200D02*
X9566455Y-10667200D01*
X9516455Y-10617200D02*
X9616455Y-10617200D01*
X9820455Y-10567200D02*
X9820455Y-10667200D01*
X9770455Y-10617200D02*
X9870455Y-10617200D01*
X10074455Y-10567200D02*
X10074455Y-10667200D01*
X10024455Y-10617200D02*
X10124455Y-10617200D01*
X10328455Y-10567200D02*
X10328455Y-10667200D01*
X10278455Y-10617200D02*
X10378455Y-10617200D01*
X11072675Y-8534060D02*
X11072675Y-8634060D01*
X11022675Y-8584060D02*
X11122675Y-8584060D01*
X11072675Y-8788060D02*
X11072675Y-8888060D01*
X11022675Y-8838060D02*
X11122675Y-8838060D01*
X11072675Y-9042060D02*
X11072675Y-9142060D01*
X11022675Y-9092060D02*
X11122675Y-9092060D01*
X11072675Y-9296060D02*
X11072675Y-9396060D01*
X11022675Y-9346060D02*
X11122675Y-9346060D01*
X11072675Y-9550060D02*
X11072675Y-9650060D01*
X11022675Y-9600060D02*
X11122675Y-9600060D01*
X11072675Y-9804060D02*
X11072675Y-9904060D01*
X11022675Y-9854060D02*
X11122675Y-9854060D01*
X11072675Y-10058060D02*
X11072675Y-10158060D01*
X11022675Y-10108060D02*
X11122675Y-10108060D01*
X11072675Y-10312060D02*
X11072675Y-10412060D01*
X11022675Y-10362060D02*
X11122675Y-10362060D01*
X11834675Y-8535200D02*
X11834675Y-8635200D01*
X11784675Y-8585200D02*
X11884675Y-8585200D01*
X11834675Y-8789200D02*
X11834675Y-8889200D01*
X11784675Y-8839200D02*
X11884675Y-8839200D01*
X11834675Y-9043200D02*
X11834675Y-9143200D01*
X11784675Y-9093200D02*
X11884675Y-9093200D01*
X11834675Y-9297200D02*
X11834675Y-9397200D01*
X11784675Y-9347200D02*
X11884675Y-9347200D01*
X11834675Y-9551200D02*
X11834675Y-9651200D01*
X11784675Y-9601200D02*
X11884675Y-9601200D01*
X11834675Y-9805200D02*
X11834675Y-9905200D01*
X11784675Y-9855200D02*
X11884675Y-9855200D01*
X11834675Y-10059200D02*
X11834675Y-10159200D01*
X11784675Y-10109200D02*
X11884675Y-10109200D01*
X11834675Y-10313200D02*
X11834675Y-10413200D01*
X11784675Y-10363200D02*
X11884675Y-10363200D01*
D15*
X7608882Y-8510583D02*
X7608882Y-8355017D01*
X7453317Y-8355017D01*
X7453317Y-8510583D01*
X7608882Y-8510583D01*
X7608882Y-10593383D02*
X7608882Y-10437818D01*
X7453317Y-10437818D01*
X7453317Y-10593383D01*
X7608882Y-10593383D01*
X12297722Y-10593383D02*
X12297722Y-10437818D01*
X12142157Y-10437818D01*
X12142157Y-10593383D01*
X12297722Y-10593383D01*
X12300262Y-8508043D02*
X12300262Y-8352477D01*
X12144697Y-8352477D01*
X12144697Y-8508043D01*
X12300262Y-8508043D01*
D11*
X7525177Y-11093784D02*
X7525177Y-10893784D01*
X7525177Y-10893784D02*
X7572796Y-10893784D01*
X7572796Y-10893784D02*
X7601367Y-10903308D01*
X7601367Y-10903308D02*
X7620415Y-10922355D01*
X7620415Y-10922355D02*
X7629939Y-10941403D01*
X7629939Y-10941403D02*
X7639462Y-10979498D01*
X7639462Y-10979498D02*
X7639462Y-11008070D01*
X7639462Y-11008070D02*
X7629939Y-11046165D01*
X7629939Y-11046165D02*
X7620415Y-11065212D01*
X7620415Y-11065212D02*
X7601367Y-11084260D01*
X7601367Y-11084260D02*
X7572796Y-11093784D01*
X7572796Y-11093784D02*
X7525177Y-11093784D01*
X7725177Y-11093784D02*
X7725177Y-10960450D01*
X7725177Y-10998546D02*
X7734701Y-10979498D01*
X7734701Y-10979498D02*
X7744224Y-10969974D01*
X7744224Y-10969974D02*
X7763272Y-10960450D01*
X7763272Y-10960450D02*
X7782320Y-10960450D01*
X7848986Y-11093784D02*
X7848986Y-10960450D01*
X7848986Y-10893784D02*
X7839462Y-10903308D01*
X7839462Y-10903308D02*
X7848986Y-10912831D01*
X7848986Y-10912831D02*
X7858510Y-10903308D01*
X7858510Y-10903308D02*
X7848986Y-10893784D01*
X7848986Y-10893784D02*
X7848986Y-10912831D01*
X7972796Y-11093784D02*
X7953748Y-11084260D01*
X7953748Y-11084260D02*
X7944224Y-11065212D01*
X7944224Y-11065212D02*
X7944224Y-10893784D01*
X8077558Y-11093784D02*
X8058510Y-11084260D01*
X8058510Y-11084260D02*
X8048986Y-11065212D01*
X8048986Y-11065212D02*
X8048986Y-10893784D01*
X8306129Y-11093784D02*
X8306129Y-10893784D01*
X8306129Y-10893784D02*
X8372796Y-11036641D01*
X8372796Y-11036641D02*
X8439463Y-10893784D01*
X8439463Y-10893784D02*
X8439463Y-11093784D01*
X8620415Y-11093784D02*
X8620415Y-10989022D01*
X8620415Y-10989022D02*
X8610891Y-10969974D01*
X8610891Y-10969974D02*
X8591844Y-10960450D01*
X8591844Y-10960450D02*
X8553748Y-10960450D01*
X8553748Y-10960450D02*
X8534701Y-10969974D01*
X8620415Y-11084260D02*
X8601367Y-11093784D01*
X8601367Y-11093784D02*
X8553748Y-11093784D01*
X8553748Y-11093784D02*
X8534701Y-11084260D01*
X8534701Y-11084260D02*
X8525177Y-11065212D01*
X8525177Y-11065212D02*
X8525177Y-11046165D01*
X8525177Y-11046165D02*
X8534701Y-11027117D01*
X8534701Y-11027117D02*
X8553748Y-11017593D01*
X8553748Y-11017593D02*
X8601367Y-11017593D01*
X8601367Y-11017593D02*
X8620415Y-11008070D01*
X8715653Y-10960450D02*
X8715653Y-11160450D01*
X8715653Y-10969974D02*
X8734701Y-10960450D01*
X8734701Y-10960450D02*
X8772796Y-10960450D01*
X8772796Y-10960450D02*
X8791844Y-10969974D01*
X8791844Y-10969974D02*
X8801367Y-10979498D01*
X8801367Y-10979498D02*
X8810891Y-10998546D01*
X8810891Y-10998546D02*
X8810891Y-11055689D01*
X8810891Y-11055689D02*
X8801367Y-11074736D01*
X8801367Y-11074736D02*
X8791844Y-11084260D01*
X8791844Y-11084260D02*
X8772796Y-11093784D01*
X8772796Y-11093784D02*
X8734701Y-11093784D01*
X8734701Y-11093784D02*
X8715653Y-11084260D01*
X8896605Y-11074736D02*
X8906129Y-11084260D01*
X8906129Y-11084260D02*
X8896605Y-11093784D01*
X8896605Y-11093784D02*
X8887082Y-11084260D01*
X8887082Y-11084260D02*
X8896605Y-11074736D01*
X8896605Y-11074736D02*
X8896605Y-11093784D01*
X8896605Y-10969974D02*
X8906129Y-10979498D01*
X8906129Y-10979498D02*
X8896605Y-10989022D01*
X8896605Y-10989022D02*
X8887082Y-10979498D01*
X8887082Y-10979498D02*
X8896605Y-10969974D01*
X8896605Y-10969974D02*
X8896605Y-10989022D01*
D12*
X7224400Y-11402300D02*
X7264400Y-11442300D01*
X7264400Y-11402300D02*
X7224400Y-11442300D01*
D11*
X7563272Y-11313784D02*
X7582320Y-11313784D01*
X7582320Y-11313784D02*
X7601367Y-11323308D01*
X7601367Y-11323308D02*
X7610891Y-11332831D01*
X7610891Y-11332831D02*
X7620415Y-11351879D01*
X7620415Y-11351879D02*
X7629939Y-11389974D01*
X7629939Y-11389974D02*
X7629939Y-11437593D01*
X7629939Y-11437593D02*
X7620415Y-11475688D01*
X7620415Y-11475688D02*
X7610891Y-11494736D01*
X7610891Y-11494736D02*
X7601367Y-11504260D01*
X7601367Y-11504260D02*
X7582320Y-11513784D01*
X7582320Y-11513784D02*
X7563272Y-11513784D01*
X7563272Y-11513784D02*
X7544224Y-11504260D01*
X7544224Y-11504260D02*
X7534701Y-11494736D01*
X7534701Y-11494736D02*
X7525177Y-11475688D01*
X7525177Y-11475688D02*
X7515653Y-11437593D01*
X7515653Y-11437593D02*
X7515653Y-11389974D01*
X7515653Y-11389974D02*
X7525177Y-11351879D01*
X7525177Y-11351879D02*
X7534701Y-11332831D01*
X7534701Y-11332831D02*
X7544224Y-11323308D01*
X7544224Y-11323308D02*
X7563272Y-11313784D01*
X7715653Y-11494736D02*
X7725177Y-11504260D01*
X7725177Y-11504260D02*
X7715653Y-11513784D01*
X7715653Y-11513784D02*
X7706129Y-11504260D01*
X7706129Y-11504260D02*
X7715653Y-11494736D01*
X7715653Y-11494736D02*
X7715653Y-11513784D01*
X7896605Y-11380450D02*
X7896605Y-11513784D01*
X7848986Y-11304260D02*
X7801367Y-11447117D01*
X7801367Y-11447117D02*
X7925177Y-11447117D01*
X8039462Y-11313784D02*
X8058510Y-11313784D01*
X8058510Y-11313784D02*
X8077558Y-11323308D01*
X8077558Y-11323308D02*
X8087082Y-11332831D01*
X8087082Y-11332831D02*
X8096605Y-11351879D01*
X8096605Y-11351879D02*
X8106129Y-11389974D01*
X8106129Y-11389974D02*
X8106129Y-11437593D01*
X8106129Y-11437593D02*
X8096605Y-11475688D01*
X8096605Y-11475688D02*
X8087082Y-11494736D01*
X8087082Y-11494736D02*
X8077558Y-11504260D01*
X8077558Y-11504260D02*
X8058510Y-11513784D01*
X8058510Y-11513784D02*
X8039462Y-11513784D01*
X8039462Y-11513784D02*
X8020415Y-11504260D01*
X8020415Y-11504260D02*
X8010891Y-11494736D01*
X8010891Y-11494736D02*
X8001367Y-11475688D01*
X8001367Y-11475688D02*
X7991843Y-11437593D01*
X7991843Y-11437593D02*
X7991843Y-11389974D01*
X7991843Y-11389974D02*
X8001367Y-11351879D01*
X8001367Y-11351879D02*
X8010891Y-11332831D01*
X8010891Y-11332831D02*
X8020415Y-11323308D01*
X8020415Y-11323308D02*
X8039462Y-11313784D01*
X8229939Y-11313784D02*
X8248986Y-11313784D01*
X8248986Y-11313784D02*
X8268034Y-11323308D01*
X8268034Y-11323308D02*
X8277558Y-11332831D01*
X8277558Y-11332831D02*
X8287082Y-11351879D01*
X8287082Y-11351879D02*
X8296605Y-11389974D01*
X8296605Y-11389974D02*
X8296605Y-11437593D01*
X8296605Y-11437593D02*
X8287082Y-11475688D01*
X8287082Y-11475688D02*
X8277558Y-11494736D01*
X8277558Y-11494736D02*
X8268034Y-11504260D01*
X8268034Y-11504260D02*
X8248986Y-11513784D01*
X8248986Y-11513784D02*
X8229939Y-11513784D01*
X8229939Y-11513784D02*
X8210891Y-11504260D01*
X8210891Y-11504260D02*
X8201367Y-11494736D01*
X8201367Y-11494736D02*
X8191843Y-11475688D01*
X8191843Y-11475688D02*
X8182320Y-11437593D01*
X8182320Y-11437593D02*
X8182320Y-11389974D01*
X8182320Y-11389974D02*
X8191843Y-11351879D01*
X8191843Y-11351879D02*
X8201367Y-11332831D01*
X8201367Y-11332831D02*
X8210891Y-11323308D01*
X8210891Y-11323308D02*
X8229939Y-11313784D01*
X8382320Y-11513784D02*
X8382320Y-11380450D01*
X8382320Y-11399498D02*
X8391844Y-11389974D01*
X8391844Y-11389974D02*
X8410891Y-11380450D01*
X8410891Y-11380450D02*
X8439463Y-11380450D01*
X8439463Y-11380450D02*
X8458510Y-11389974D01*
X8458510Y-11389974D02*
X8468034Y-11409022D01*
X8468034Y-11409022D02*
X8468034Y-11513784D01*
X8468034Y-11409022D02*
X8477558Y-11389974D01*
X8477558Y-11389974D02*
X8496605Y-11380450D01*
X8496605Y-11380450D02*
X8525177Y-11380450D01*
X8525177Y-11380450D02*
X8544225Y-11389974D01*
X8544225Y-11389974D02*
X8553748Y-11409022D01*
X8553748Y-11409022D02*
X8553748Y-11513784D01*
X8648986Y-11513784D02*
X8648986Y-11380450D01*
X8648986Y-11399498D02*
X8658510Y-11389974D01*
X8658510Y-11389974D02*
X8677558Y-11380450D01*
X8677558Y-11380450D02*
X8706129Y-11380450D01*
X8706129Y-11380450D02*
X8725177Y-11389974D01*
X8725177Y-11389974D02*
X8734701Y-11409022D01*
X8734701Y-11409022D02*
X8734701Y-11513784D01*
X8734701Y-11409022D02*
X8744225Y-11389974D01*
X8744225Y-11389974D02*
X8763272Y-11380450D01*
X8763272Y-11380450D02*
X8791844Y-11380450D01*
X8791844Y-11380450D02*
X8810891Y-11389974D01*
X8810891Y-11389974D02*
X8820415Y-11409022D01*
X8820415Y-11409022D02*
X8820415Y-11513784D01*
X9210891Y-11304260D02*
X9039463Y-11561403D01*
X9468034Y-11313784D02*
X9487082Y-11313784D01*
X9487082Y-11313784D02*
X9506129Y-11323308D01*
X9506129Y-11323308D02*
X9515653Y-11332831D01*
X9515653Y-11332831D02*
X9525177Y-11351879D01*
X9525177Y-11351879D02*
X9534701Y-11389974D01*
X9534701Y-11389974D02*
X9534701Y-11437593D01*
X9534701Y-11437593D02*
X9525177Y-11475688D01*
X9525177Y-11475688D02*
X9515653Y-11494736D01*
X9515653Y-11494736D02*
X9506129Y-11504260D01*
X9506129Y-11504260D02*
X9487082Y-11513784D01*
X9487082Y-11513784D02*
X9468034Y-11513784D01*
X9468034Y-11513784D02*
X9448987Y-11504260D01*
X9448987Y-11504260D02*
X9439463Y-11494736D01*
X9439463Y-11494736D02*
X9429939Y-11475688D01*
X9429939Y-11475688D02*
X9420415Y-11437593D01*
X9420415Y-11437593D02*
X9420415Y-11389974D01*
X9420415Y-11389974D02*
X9429939Y-11351879D01*
X9429939Y-11351879D02*
X9439463Y-11332831D01*
X9439463Y-11332831D02*
X9448987Y-11323308D01*
X9448987Y-11323308D02*
X9468034Y-11313784D01*
X9620415Y-11494736D02*
X9629939Y-11504260D01*
X9629939Y-11504260D02*
X9620415Y-11513784D01*
X9620415Y-11513784D02*
X9610891Y-11504260D01*
X9610891Y-11504260D02*
X9620415Y-11494736D01*
X9620415Y-11494736D02*
X9620415Y-11513784D01*
X9753748Y-11313784D02*
X9772796Y-11313784D01*
X9772796Y-11313784D02*
X9791844Y-11323308D01*
X9791844Y-11323308D02*
X9801368Y-11332831D01*
X9801368Y-11332831D02*
X9810891Y-11351879D01*
X9810891Y-11351879D02*
X9820415Y-11389974D01*
X9820415Y-11389974D02*
X9820415Y-11437593D01*
X9820415Y-11437593D02*
X9810891Y-11475688D01*
X9810891Y-11475688D02*
X9801368Y-11494736D01*
X9801368Y-11494736D02*
X9791844Y-11504260D01*
X9791844Y-11504260D02*
X9772796Y-11513784D01*
X9772796Y-11513784D02*
X9753748Y-11513784D01*
X9753748Y-11513784D02*
X9734701Y-11504260D01*
X9734701Y-11504260D02*
X9725177Y-11494736D01*
X9725177Y-11494736D02*
X9715653Y-11475688D01*
X9715653Y-11475688D02*
X9706129Y-11437593D01*
X9706129Y-11437593D02*
X9706129Y-11389974D01*
X9706129Y-11389974D02*
X9715653Y-11351879D01*
X9715653Y-11351879D02*
X9725177Y-11332831D01*
X9725177Y-11332831D02*
X9734701Y-11323308D01*
X9734701Y-11323308D02*
X9753748Y-11313784D01*
X10010891Y-11513784D02*
X9896606Y-11513784D01*
X9953748Y-11513784D02*
X9953748Y-11313784D01*
X9953748Y-11313784D02*
X9934701Y-11342355D01*
X9934701Y-11342355D02*
X9915653Y-11361403D01*
X9915653Y-11361403D02*
X9896606Y-11370927D01*
X10191844Y-11313784D02*
X10096606Y-11313784D01*
X10096606Y-11313784D02*
X10087082Y-11409022D01*
X10087082Y-11409022D02*
X10096606Y-11399498D01*
X10096606Y-11399498D02*
X10115653Y-11389974D01*
X10115653Y-11389974D02*
X10163272Y-11389974D01*
X10163272Y-11389974D02*
X10182320Y-11399498D01*
X10182320Y-11399498D02*
X10191844Y-11409022D01*
X10191844Y-11409022D02*
X10201368Y-11428069D01*
X10201368Y-11428069D02*
X10201368Y-11475688D01*
X10201368Y-11475688D02*
X10191844Y-11494736D01*
X10191844Y-11494736D02*
X10182320Y-11504260D01*
X10182320Y-11504260D02*
X10163272Y-11513784D01*
X10163272Y-11513784D02*
X10115653Y-11513784D01*
X10115653Y-11513784D02*
X10096606Y-11504260D01*
X10096606Y-11504260D02*
X10087082Y-11494736D01*
X10268034Y-11313784D02*
X10401368Y-11313784D01*
X10401368Y-11313784D02*
X10315653Y-11513784D01*
X10468034Y-11313784D02*
X10468034Y-11351879D01*
X10544225Y-11313784D02*
X10544225Y-11351879D01*
X10839463Y-11589974D02*
X10829939Y-11580450D01*
X10829939Y-11580450D02*
X10810891Y-11551879D01*
X10810891Y-11551879D02*
X10801368Y-11532831D01*
X10801368Y-11532831D02*
X10791844Y-11504260D01*
X10791844Y-11504260D02*
X10782320Y-11456641D01*
X10782320Y-11456641D02*
X10782320Y-11418546D01*
X10782320Y-11418546D02*
X10791844Y-11370927D01*
X10791844Y-11370927D02*
X10801368Y-11342355D01*
X10801368Y-11342355D02*
X10810891Y-11323308D01*
X10810891Y-11323308D02*
X10829939Y-11294736D01*
X10829939Y-11294736D02*
X10839463Y-11285212D01*
X10925177Y-11513784D02*
X10963272Y-11513784D01*
X10963272Y-11513784D02*
X10982320Y-11504260D01*
X10982320Y-11504260D02*
X10991844Y-11494736D01*
X10991844Y-11494736D02*
X11010891Y-11466165D01*
X11010891Y-11466165D02*
X11020415Y-11428069D01*
X11020415Y-11428069D02*
X11020415Y-11351879D01*
X11020415Y-11351879D02*
X11010891Y-11332831D01*
X11010891Y-11332831D02*
X11001368Y-11323308D01*
X11001368Y-11323308D02*
X10982320Y-11313784D01*
X10982320Y-11313784D02*
X10944225Y-11313784D01*
X10944225Y-11313784D02*
X10925177Y-11323308D01*
X10925177Y-11323308D02*
X10915653Y-11332831D01*
X10915653Y-11332831D02*
X10906130Y-11351879D01*
X10906130Y-11351879D02*
X10906130Y-11399498D01*
X10906130Y-11399498D02*
X10915653Y-11418546D01*
X10915653Y-11418546D02*
X10925177Y-11428069D01*
X10925177Y-11428069D02*
X10944225Y-11437593D01*
X10944225Y-11437593D02*
X10982320Y-11437593D01*
X10982320Y-11437593D02*
X11001368Y-11428069D01*
X11001368Y-11428069D02*
X11010891Y-11418546D01*
X11010891Y-11418546D02*
X11020415Y-11399498D01*
X11201368Y-11313784D02*
X11106130Y-11313784D01*
X11106130Y-11313784D02*
X11096606Y-11409022D01*
X11096606Y-11409022D02*
X11106130Y-11399498D01*
X11106130Y-11399498D02*
X11125177Y-11389974D01*
X11125177Y-11389974D02*
X11172796Y-11389974D01*
X11172796Y-11389974D02*
X11191844Y-11399498D01*
X11191844Y-11399498D02*
X11201368Y-11409022D01*
X11201368Y-11409022D02*
X11210891Y-11428069D01*
X11210891Y-11428069D02*
X11210891Y-11475688D01*
X11210891Y-11475688D02*
X11201368Y-11494736D01*
X11201368Y-11494736D02*
X11191844Y-11504260D01*
X11191844Y-11504260D02*
X11172796Y-11513784D01*
X11172796Y-11513784D02*
X11125177Y-11513784D01*
X11125177Y-11513784D02*
X11106130Y-11504260D01*
X11106130Y-11504260D02*
X11096606Y-11494736D01*
X11448987Y-11513784D02*
X11448987Y-11313784D01*
X11534701Y-11513784D02*
X11534701Y-11409022D01*
X11534701Y-11409022D02*
X11525177Y-11389974D01*
X11525177Y-11389974D02*
X11506130Y-11380450D01*
X11506130Y-11380450D02*
X11477558Y-11380450D01*
X11477558Y-11380450D02*
X11458510Y-11389974D01*
X11458510Y-11389974D02*
X11448987Y-11399498D01*
X11658510Y-11513784D02*
X11639463Y-11504260D01*
X11639463Y-11504260D02*
X11629939Y-11494736D01*
X11629939Y-11494736D02*
X11620415Y-11475688D01*
X11620415Y-11475688D02*
X11620415Y-11418546D01*
X11620415Y-11418546D02*
X11629939Y-11399498D01*
X11629939Y-11399498D02*
X11639463Y-11389974D01*
X11639463Y-11389974D02*
X11658510Y-11380450D01*
X11658510Y-11380450D02*
X11687082Y-11380450D01*
X11687082Y-11380450D02*
X11706130Y-11389974D01*
X11706130Y-11389974D02*
X11715653Y-11399498D01*
X11715653Y-11399498D02*
X11725177Y-11418546D01*
X11725177Y-11418546D02*
X11725177Y-11475688D01*
X11725177Y-11475688D02*
X11715653Y-11494736D01*
X11715653Y-11494736D02*
X11706130Y-11504260D01*
X11706130Y-11504260D02*
X11687082Y-11513784D01*
X11687082Y-11513784D02*
X11658510Y-11513784D01*
X11839463Y-11513784D02*
X11820415Y-11504260D01*
X11820415Y-11504260D02*
X11810891Y-11485212D01*
X11810891Y-11485212D02*
X11810891Y-11313784D01*
X11991844Y-11504260D02*
X11972796Y-11513784D01*
X11972796Y-11513784D02*
X11934701Y-11513784D01*
X11934701Y-11513784D02*
X11915653Y-11504260D01*
X11915653Y-11504260D02*
X11906130Y-11485212D01*
X11906130Y-11485212D02*
X11906130Y-11409022D01*
X11906130Y-11409022D02*
X11915653Y-11389974D01*
X11915653Y-11389974D02*
X11934701Y-11380450D01*
X11934701Y-11380450D02*
X11972796Y-11380450D01*
X11972796Y-11380450D02*
X11991844Y-11389974D01*
X11991844Y-11389974D02*
X12001368Y-11409022D01*
X12001368Y-11409022D02*
X12001368Y-11428069D01*
X12001368Y-11428069D02*
X11906130Y-11447117D01*
X12077558Y-11504260D02*
X12096606Y-11513784D01*
X12096606Y-11513784D02*
X12134701Y-11513784D01*
X12134701Y-11513784D02*
X12153749Y-11504260D01*
X12153749Y-11504260D02*
X12163272Y-11485212D01*
X12163272Y-11485212D02*
X12163272Y-11475688D01*
X12163272Y-11475688D02*
X12153749Y-11456641D01*
X12153749Y-11456641D02*
X12134701Y-11447117D01*
X12134701Y-11447117D02*
X12106130Y-11447117D01*
X12106130Y-11447117D02*
X12087082Y-11437593D01*
X12087082Y-11437593D02*
X12077558Y-11418546D01*
X12077558Y-11418546D02*
X12077558Y-11409022D01*
X12077558Y-11409022D02*
X12087082Y-11389974D01*
X12087082Y-11389974D02*
X12106130Y-11380450D01*
X12106130Y-11380450D02*
X12134701Y-11380450D01*
X12134701Y-11380450D02*
X12153749Y-11389974D01*
X12229939Y-11589974D02*
X12239463Y-11580450D01*
X12239463Y-11580450D02*
X12258511Y-11551879D01*
X12258511Y-11551879D02*
X12268034Y-11532831D01*
X12268034Y-11532831D02*
X12277558Y-11504260D01*
X12277558Y-11504260D02*
X12287082Y-11456641D01*
X12287082Y-11456641D02*
X12287082Y-11418546D01*
X12287082Y-11418546D02*
X12277558Y-11370927D01*
X12277558Y-11370927D02*
X12268034Y-11342355D01*
X12268034Y-11342355D02*
X12258511Y-11323308D01*
X12258511Y-11323308D02*
X12239463Y-11294736D01*
X12239463Y-11294736D02*
X12229939Y-11285212D01*
D13*
X7264400Y-11686300D02*
G75*
G03*
X7264400Y-11686300I-30000J0D01*
G01*
D11*
X7563272Y-11577784D02*
X7582320Y-11577784D01*
X7582320Y-11577784D02*
X7601367Y-11587308D01*
X7601367Y-11587308D02*
X7610891Y-11596831D01*
X7610891Y-11596831D02*
X7620415Y-11615879D01*
X7620415Y-11615879D02*
X7629939Y-11653974D01*
X7629939Y-11653974D02*
X7629939Y-11701593D01*
X7629939Y-11701593D02*
X7620415Y-11739688D01*
X7620415Y-11739688D02*
X7610891Y-11758736D01*
X7610891Y-11758736D02*
X7601367Y-11768260D01*
X7601367Y-11768260D02*
X7582320Y-11777784D01*
X7582320Y-11777784D02*
X7563272Y-11777784D01*
X7563272Y-11777784D02*
X7544224Y-11768260D01*
X7544224Y-11768260D02*
X7534701Y-11758736D01*
X7534701Y-11758736D02*
X7525177Y-11739688D01*
X7525177Y-11739688D02*
X7515653Y-11701593D01*
X7515653Y-11701593D02*
X7515653Y-11653974D01*
X7515653Y-11653974D02*
X7525177Y-11615879D01*
X7525177Y-11615879D02*
X7534701Y-11596831D01*
X7534701Y-11596831D02*
X7544224Y-11587308D01*
X7544224Y-11587308D02*
X7563272Y-11577784D01*
X7715653Y-11758736D02*
X7725177Y-11768260D01*
X7725177Y-11768260D02*
X7715653Y-11777784D01*
X7715653Y-11777784D02*
X7706129Y-11768260D01*
X7706129Y-11768260D02*
X7715653Y-11758736D01*
X7715653Y-11758736D02*
X7715653Y-11777784D01*
X7896605Y-11577784D02*
X7858510Y-11577784D01*
X7858510Y-11577784D02*
X7839462Y-11587308D01*
X7839462Y-11587308D02*
X7829939Y-11596831D01*
X7829939Y-11596831D02*
X7810891Y-11625403D01*
X7810891Y-11625403D02*
X7801367Y-11663498D01*
X7801367Y-11663498D02*
X7801367Y-11739688D01*
X7801367Y-11739688D02*
X7810891Y-11758736D01*
X7810891Y-11758736D02*
X7820415Y-11768260D01*
X7820415Y-11768260D02*
X7839462Y-11777784D01*
X7839462Y-11777784D02*
X7877558Y-11777784D01*
X7877558Y-11777784D02*
X7896605Y-11768260D01*
X7896605Y-11768260D02*
X7906129Y-11758736D01*
X7906129Y-11758736D02*
X7915653Y-11739688D01*
X7915653Y-11739688D02*
X7915653Y-11692069D01*
X7915653Y-11692069D02*
X7906129Y-11673022D01*
X7906129Y-11673022D02*
X7896605Y-11663498D01*
X7896605Y-11663498D02*
X7877558Y-11653974D01*
X7877558Y-11653974D02*
X7839462Y-11653974D01*
X7839462Y-11653974D02*
X7820415Y-11663498D01*
X7820415Y-11663498D02*
X7810891Y-11673022D01*
X7810891Y-11673022D02*
X7801367Y-11692069D01*
X8039462Y-11577784D02*
X8058510Y-11577784D01*
X8058510Y-11577784D02*
X8077558Y-11587308D01*
X8077558Y-11587308D02*
X8087082Y-11596831D01*
X8087082Y-11596831D02*
X8096605Y-11615879D01*
X8096605Y-11615879D02*
X8106129Y-11653974D01*
X8106129Y-11653974D02*
X8106129Y-11701593D01*
X8106129Y-11701593D02*
X8096605Y-11739688D01*
X8096605Y-11739688D02*
X8087082Y-11758736D01*
X8087082Y-11758736D02*
X8077558Y-11768260D01*
X8077558Y-11768260D02*
X8058510Y-11777784D01*
X8058510Y-11777784D02*
X8039462Y-11777784D01*
X8039462Y-11777784D02*
X8020415Y-11768260D01*
X8020415Y-11768260D02*
X8010891Y-11758736D01*
X8010891Y-11758736D02*
X8001367Y-11739688D01*
X8001367Y-11739688D02*
X7991843Y-11701593D01*
X7991843Y-11701593D02*
X7991843Y-11653974D01*
X7991843Y-11653974D02*
X8001367Y-11615879D01*
X8001367Y-11615879D02*
X8010891Y-11596831D01*
X8010891Y-11596831D02*
X8020415Y-11587308D01*
X8020415Y-11587308D02*
X8039462Y-11577784D01*
X8229939Y-11577784D02*
X8248986Y-11577784D01*
X8248986Y-11577784D02*
X8268034Y-11587308D01*
X8268034Y-11587308D02*
X8277558Y-11596831D01*
X8277558Y-11596831D02*
X8287082Y-11615879D01*
X8287082Y-11615879D02*
X8296605Y-11653974D01*
X8296605Y-11653974D02*
X8296605Y-11701593D01*
X8296605Y-11701593D02*
X8287082Y-11739688D01*
X8287082Y-11739688D02*
X8277558Y-11758736D01*
X8277558Y-11758736D02*
X8268034Y-11768260D01*
X8268034Y-11768260D02*
X8248986Y-11777784D01*
X8248986Y-11777784D02*
X8229939Y-11777784D01*
X8229939Y-11777784D02*
X8210891Y-11768260D01*
X8210891Y-11768260D02*
X8201367Y-11758736D01*
X8201367Y-11758736D02*
X8191843Y-11739688D01*
X8191843Y-11739688D02*
X8182320Y-11701593D01*
X8182320Y-11701593D02*
X8182320Y-11653974D01*
X8182320Y-11653974D02*
X8191843Y-11615879D01*
X8191843Y-11615879D02*
X8201367Y-11596831D01*
X8201367Y-11596831D02*
X8210891Y-11587308D01*
X8210891Y-11587308D02*
X8229939Y-11577784D01*
X8382320Y-11777784D02*
X8382320Y-11644450D01*
X8382320Y-11663498D02*
X8391844Y-11653974D01*
X8391844Y-11653974D02*
X8410891Y-11644450D01*
X8410891Y-11644450D02*
X8439463Y-11644450D01*
X8439463Y-11644450D02*
X8458510Y-11653974D01*
X8458510Y-11653974D02*
X8468034Y-11673022D01*
X8468034Y-11673022D02*
X8468034Y-11777784D01*
X8468034Y-11673022D02*
X8477558Y-11653974D01*
X8477558Y-11653974D02*
X8496605Y-11644450D01*
X8496605Y-11644450D02*
X8525177Y-11644450D01*
X8525177Y-11644450D02*
X8544225Y-11653974D01*
X8544225Y-11653974D02*
X8553748Y-11673022D01*
X8553748Y-11673022D02*
X8553748Y-11777784D01*
X8648986Y-11777784D02*
X8648986Y-11644450D01*
X8648986Y-11663498D02*
X8658510Y-11653974D01*
X8658510Y-11653974D02*
X8677558Y-11644450D01*
X8677558Y-11644450D02*
X8706129Y-11644450D01*
X8706129Y-11644450D02*
X8725177Y-11653974D01*
X8725177Y-11653974D02*
X8734701Y-11673022D01*
X8734701Y-11673022D02*
X8734701Y-11777784D01*
X8734701Y-11673022D02*
X8744225Y-11653974D01*
X8744225Y-11653974D02*
X8763272Y-11644450D01*
X8763272Y-11644450D02*
X8791844Y-11644450D01*
X8791844Y-11644450D02*
X8810891Y-11653974D01*
X8810891Y-11653974D02*
X8820415Y-11673022D01*
X8820415Y-11673022D02*
X8820415Y-11777784D01*
X9210891Y-11568260D02*
X9039463Y-11825403D01*
X9468034Y-11577784D02*
X9487082Y-11577784D01*
X9487082Y-11577784D02*
X9506129Y-11587308D01*
X9506129Y-11587308D02*
X9515653Y-11596831D01*
X9515653Y-11596831D02*
X9525177Y-11615879D01*
X9525177Y-11615879D02*
X9534701Y-11653974D01*
X9534701Y-11653974D02*
X9534701Y-11701593D01*
X9534701Y-11701593D02*
X9525177Y-11739688D01*
X9525177Y-11739688D02*
X9515653Y-11758736D01*
X9515653Y-11758736D02*
X9506129Y-11768260D01*
X9506129Y-11768260D02*
X9487082Y-11777784D01*
X9487082Y-11777784D02*
X9468034Y-11777784D01*
X9468034Y-11777784D02*
X9448987Y-11768260D01*
X9448987Y-11768260D02*
X9439463Y-11758736D01*
X9439463Y-11758736D02*
X9429939Y-11739688D01*
X9429939Y-11739688D02*
X9420415Y-11701593D01*
X9420415Y-11701593D02*
X9420415Y-11653974D01*
X9420415Y-11653974D02*
X9429939Y-11615879D01*
X9429939Y-11615879D02*
X9439463Y-11596831D01*
X9439463Y-11596831D02*
X9448987Y-11587308D01*
X9448987Y-11587308D02*
X9468034Y-11577784D01*
X9620415Y-11758736D02*
X9629939Y-11768260D01*
X9629939Y-11768260D02*
X9620415Y-11777784D01*
X9620415Y-11777784D02*
X9610891Y-11768260D01*
X9610891Y-11768260D02*
X9620415Y-11758736D01*
X9620415Y-11758736D02*
X9620415Y-11777784D01*
X9753748Y-11577784D02*
X9772796Y-11577784D01*
X9772796Y-11577784D02*
X9791844Y-11587308D01*
X9791844Y-11587308D02*
X9801368Y-11596831D01*
X9801368Y-11596831D02*
X9810891Y-11615879D01*
X9810891Y-11615879D02*
X9820415Y-11653974D01*
X9820415Y-11653974D02*
X9820415Y-11701593D01*
X9820415Y-11701593D02*
X9810891Y-11739688D01*
X9810891Y-11739688D02*
X9801368Y-11758736D01*
X9801368Y-11758736D02*
X9791844Y-11768260D01*
X9791844Y-11768260D02*
X9772796Y-11777784D01*
X9772796Y-11777784D02*
X9753748Y-11777784D01*
X9753748Y-11777784D02*
X9734701Y-11768260D01*
X9734701Y-11768260D02*
X9725177Y-11758736D01*
X9725177Y-11758736D02*
X9715653Y-11739688D01*
X9715653Y-11739688D02*
X9706129Y-11701593D01*
X9706129Y-11701593D02*
X9706129Y-11653974D01*
X9706129Y-11653974D02*
X9715653Y-11615879D01*
X9715653Y-11615879D02*
X9725177Y-11596831D01*
X9725177Y-11596831D02*
X9734701Y-11587308D01*
X9734701Y-11587308D02*
X9753748Y-11577784D01*
X9896606Y-11596831D02*
X9906129Y-11587308D01*
X9906129Y-11587308D02*
X9925177Y-11577784D01*
X9925177Y-11577784D02*
X9972796Y-11577784D01*
X9972796Y-11577784D02*
X9991844Y-11587308D01*
X9991844Y-11587308D02*
X10001368Y-11596831D01*
X10001368Y-11596831D02*
X10010891Y-11615879D01*
X10010891Y-11615879D02*
X10010891Y-11634927D01*
X10010891Y-11634927D02*
X10001368Y-11663498D01*
X10001368Y-11663498D02*
X9887082Y-11777784D01*
X9887082Y-11777784D02*
X10010891Y-11777784D01*
X10077558Y-11577784D02*
X10201368Y-11577784D01*
X10201368Y-11577784D02*
X10134701Y-11653974D01*
X10134701Y-11653974D02*
X10163272Y-11653974D01*
X10163272Y-11653974D02*
X10182320Y-11663498D01*
X10182320Y-11663498D02*
X10191844Y-11673022D01*
X10191844Y-11673022D02*
X10201368Y-11692069D01*
X10201368Y-11692069D02*
X10201368Y-11739688D01*
X10201368Y-11739688D02*
X10191844Y-11758736D01*
X10191844Y-11758736D02*
X10182320Y-11768260D01*
X10182320Y-11768260D02*
X10163272Y-11777784D01*
X10163272Y-11777784D02*
X10106129Y-11777784D01*
X10106129Y-11777784D02*
X10087082Y-11768260D01*
X10087082Y-11768260D02*
X10077558Y-11758736D01*
X10372796Y-11577784D02*
X10334701Y-11577784D01*
X10334701Y-11577784D02*
X10315653Y-11587308D01*
X10315653Y-11587308D02*
X10306129Y-11596831D01*
X10306129Y-11596831D02*
X10287082Y-11625403D01*
X10287082Y-11625403D02*
X10277558Y-11663498D01*
X10277558Y-11663498D02*
X10277558Y-11739688D01*
X10277558Y-11739688D02*
X10287082Y-11758736D01*
X10287082Y-11758736D02*
X10296606Y-11768260D01*
X10296606Y-11768260D02*
X10315653Y-11777784D01*
X10315653Y-11777784D02*
X10353749Y-11777784D01*
X10353749Y-11777784D02*
X10372796Y-11768260D01*
X10372796Y-11768260D02*
X10382320Y-11758736D01*
X10382320Y-11758736D02*
X10391844Y-11739688D01*
X10391844Y-11739688D02*
X10391844Y-11692069D01*
X10391844Y-11692069D02*
X10382320Y-11673022D01*
X10382320Y-11673022D02*
X10372796Y-11663498D01*
X10372796Y-11663498D02*
X10353749Y-11653974D01*
X10353749Y-11653974D02*
X10315653Y-11653974D01*
X10315653Y-11653974D02*
X10296606Y-11663498D01*
X10296606Y-11663498D02*
X10287082Y-11673022D01*
X10287082Y-11673022D02*
X10277558Y-11692069D01*
X10468034Y-11577784D02*
X10468034Y-11615879D01*
X10544225Y-11577784D02*
X10544225Y-11615879D01*
X10839463Y-11853974D02*
X10829939Y-11844450D01*
X10829939Y-11844450D02*
X10810891Y-11815879D01*
X10810891Y-11815879D02*
X10801368Y-11796831D01*
X10801368Y-11796831D02*
X10791844Y-11768260D01*
X10791844Y-11768260D02*
X10782320Y-11720641D01*
X10782320Y-11720641D02*
X10782320Y-11682546D01*
X10782320Y-11682546D02*
X10791844Y-11634927D01*
X10791844Y-11634927D02*
X10801368Y-11606355D01*
X10801368Y-11606355D02*
X10810891Y-11587308D01*
X10810891Y-11587308D02*
X10829939Y-11558736D01*
X10829939Y-11558736D02*
X10839463Y-11549212D01*
X10953749Y-11577784D02*
X10972796Y-11577784D01*
X10972796Y-11577784D02*
X10991844Y-11587308D01*
X10991844Y-11587308D02*
X11001368Y-11596831D01*
X11001368Y-11596831D02*
X11010891Y-11615879D01*
X11010891Y-11615879D02*
X11020415Y-11653974D01*
X11020415Y-11653974D02*
X11020415Y-11701593D01*
X11020415Y-11701593D02*
X11010891Y-11739688D01*
X11010891Y-11739688D02*
X11001368Y-11758736D01*
X11001368Y-11758736D02*
X10991844Y-11768260D01*
X10991844Y-11768260D02*
X10972796Y-11777784D01*
X10972796Y-11777784D02*
X10953749Y-11777784D01*
X10953749Y-11777784D02*
X10934701Y-11768260D01*
X10934701Y-11768260D02*
X10925177Y-11758736D01*
X10925177Y-11758736D02*
X10915653Y-11739688D01*
X10915653Y-11739688D02*
X10906130Y-11701593D01*
X10906130Y-11701593D02*
X10906130Y-11653974D01*
X10906130Y-11653974D02*
X10915653Y-11615879D01*
X10915653Y-11615879D02*
X10925177Y-11596831D01*
X10925177Y-11596831D02*
X10934701Y-11587308D01*
X10934701Y-11587308D02*
X10953749Y-11577784D01*
X11258510Y-11777784D02*
X11258510Y-11577784D01*
X11344225Y-11777784D02*
X11344225Y-11673022D01*
X11344225Y-11673022D02*
X11334701Y-11653974D01*
X11334701Y-11653974D02*
X11315653Y-11644450D01*
X11315653Y-11644450D02*
X11287082Y-11644450D01*
X11287082Y-11644450D02*
X11268034Y-11653974D01*
X11268034Y-11653974D02*
X11258510Y-11663498D01*
X11468034Y-11777784D02*
X11448987Y-11768260D01*
X11448987Y-11768260D02*
X11439463Y-11758736D01*
X11439463Y-11758736D02*
X11429939Y-11739688D01*
X11429939Y-11739688D02*
X11429939Y-11682546D01*
X11429939Y-11682546D02*
X11439463Y-11663498D01*
X11439463Y-11663498D02*
X11448987Y-11653974D01*
X11448987Y-11653974D02*
X11468034Y-11644450D01*
X11468034Y-11644450D02*
X11496606Y-11644450D01*
X11496606Y-11644450D02*
X11515653Y-11653974D01*
X11515653Y-11653974D02*
X11525177Y-11663498D01*
X11525177Y-11663498D02*
X11534701Y-11682546D01*
X11534701Y-11682546D02*
X11534701Y-11739688D01*
X11534701Y-11739688D02*
X11525177Y-11758736D01*
X11525177Y-11758736D02*
X11515653Y-11768260D01*
X11515653Y-11768260D02*
X11496606Y-11777784D01*
X11496606Y-11777784D02*
X11468034Y-11777784D01*
X11648987Y-11777784D02*
X11629939Y-11768260D01*
X11629939Y-11768260D02*
X11620415Y-11749212D01*
X11620415Y-11749212D02*
X11620415Y-11577784D01*
X11801368Y-11768260D02*
X11782320Y-11777784D01*
X11782320Y-11777784D02*
X11744225Y-11777784D01*
X11744225Y-11777784D02*
X11725177Y-11768260D01*
X11725177Y-11768260D02*
X11715653Y-11749212D01*
X11715653Y-11749212D02*
X11715653Y-11673022D01*
X11715653Y-11673022D02*
X11725177Y-11653974D01*
X11725177Y-11653974D02*
X11744225Y-11644450D01*
X11744225Y-11644450D02*
X11782320Y-11644450D01*
X11782320Y-11644450D02*
X11801368Y-11653974D01*
X11801368Y-11653974D02*
X11810891Y-11673022D01*
X11810891Y-11673022D02*
X11810891Y-11692069D01*
X11810891Y-11692069D02*
X11715653Y-11711117D01*
X11887082Y-11768260D02*
X11906130Y-11777784D01*
X11906130Y-11777784D02*
X11944225Y-11777784D01*
X11944225Y-11777784D02*
X11963272Y-11768260D01*
X11963272Y-11768260D02*
X11972796Y-11749212D01*
X11972796Y-11749212D02*
X11972796Y-11739688D01*
X11972796Y-11739688D02*
X11963272Y-11720641D01*
X11963272Y-11720641D02*
X11944225Y-11711117D01*
X11944225Y-11711117D02*
X11915653Y-11711117D01*
X11915653Y-11711117D02*
X11896606Y-11701593D01*
X11896606Y-11701593D02*
X11887082Y-11682546D01*
X11887082Y-11682546D02*
X11887082Y-11673022D01*
X11887082Y-11673022D02*
X11896606Y-11653974D01*
X11896606Y-11653974D02*
X11915653Y-11644450D01*
X11915653Y-11644450D02*
X11944225Y-11644450D01*
X11944225Y-11644450D02*
X11963272Y-11653974D01*
X12210892Y-11701593D02*
X12363273Y-11701593D01*
X12287082Y-11777784D02*
X12287082Y-11625403D01*
X12696606Y-11644450D02*
X12696606Y-11777784D01*
X12648987Y-11568260D02*
X12601368Y-11711117D01*
X12601368Y-11711117D02*
X12725177Y-11711117D01*
X12944225Y-11768260D02*
X12963273Y-11777784D01*
X12963273Y-11777784D02*
X13001368Y-11777784D01*
X13001368Y-11777784D02*
X13020415Y-11768260D01*
X13020415Y-11768260D02*
X13029939Y-11749212D01*
X13029939Y-11749212D02*
X13029939Y-11739688D01*
X13029939Y-11739688D02*
X13020415Y-11720641D01*
X13020415Y-11720641D02*
X13001368Y-11711117D01*
X13001368Y-11711117D02*
X12972796Y-11711117D01*
X12972796Y-11711117D02*
X12953749Y-11701593D01*
X12953749Y-11701593D02*
X12944225Y-11682546D01*
X12944225Y-11682546D02*
X12944225Y-11673022D01*
X12944225Y-11673022D02*
X12953749Y-11653974D01*
X12953749Y-11653974D02*
X12972796Y-11644450D01*
X12972796Y-11644450D02*
X13001368Y-11644450D01*
X13001368Y-11644450D02*
X13020415Y-11653974D01*
X13144225Y-11777784D02*
X13125177Y-11768260D01*
X13125177Y-11768260D02*
X13115654Y-11749212D01*
X13115654Y-11749212D02*
X13115654Y-11577784D01*
X13248987Y-11777784D02*
X13229939Y-11768260D01*
X13229939Y-11768260D02*
X13220415Y-11758736D01*
X13220415Y-11758736D02*
X13210892Y-11739688D01*
X13210892Y-11739688D02*
X13210892Y-11682546D01*
X13210892Y-11682546D02*
X13220415Y-11663498D01*
X13220415Y-11663498D02*
X13229939Y-11653974D01*
X13229939Y-11653974D02*
X13248987Y-11644450D01*
X13248987Y-11644450D02*
X13277558Y-11644450D01*
X13277558Y-11644450D02*
X13296606Y-11653974D01*
X13296606Y-11653974D02*
X13306130Y-11663498D01*
X13306130Y-11663498D02*
X13315654Y-11682546D01*
X13315654Y-11682546D02*
X13315654Y-11739688D01*
X13315654Y-11739688D02*
X13306130Y-11758736D01*
X13306130Y-11758736D02*
X13296606Y-11768260D01*
X13296606Y-11768260D02*
X13277558Y-11777784D01*
X13277558Y-11777784D02*
X13248987Y-11777784D01*
X13372796Y-11644450D02*
X13448987Y-11644450D01*
X13401368Y-11577784D02*
X13401368Y-11749212D01*
X13401368Y-11749212D02*
X13410892Y-11768260D01*
X13410892Y-11768260D02*
X13429939Y-11777784D01*
X13429939Y-11777784D02*
X13448987Y-11777784D01*
X13506130Y-11768260D02*
X13525177Y-11777784D01*
X13525177Y-11777784D02*
X13563273Y-11777784D01*
X13563273Y-11777784D02*
X13582320Y-11768260D01*
X13582320Y-11768260D02*
X13591844Y-11749212D01*
X13591844Y-11749212D02*
X13591844Y-11739688D01*
X13591844Y-11739688D02*
X13582320Y-11720641D01*
X13582320Y-11720641D02*
X13563273Y-11711117D01*
X13563273Y-11711117D02*
X13534701Y-11711117D01*
X13534701Y-11711117D02*
X13515654Y-11701593D01*
X13515654Y-11701593D02*
X13506130Y-11682546D01*
X13506130Y-11682546D02*
X13506130Y-11673022D01*
X13506130Y-11673022D02*
X13515654Y-11653974D01*
X13515654Y-11653974D02*
X13534701Y-11644450D01*
X13534701Y-11644450D02*
X13563273Y-11644450D01*
X13563273Y-11644450D02*
X13582320Y-11653974D01*
X13658511Y-11853974D02*
X13668035Y-11844450D01*
X13668035Y-11844450D02*
X13687082Y-11815879D01*
X13687082Y-11815879D02*
X13696606Y-11796831D01*
X13696606Y-11796831D02*
X13706130Y-11768260D01*
X13706130Y-11768260D02*
X13715654Y-11720641D01*
X13715654Y-11720641D02*
X13715654Y-11682546D01*
X13715654Y-11682546D02*
X13706130Y-11634927D01*
X13706130Y-11634927D02*
X13696606Y-11606355D01*
X13696606Y-11606355D02*
X13687082Y-11587308D01*
X13687082Y-11587308D02*
X13668035Y-11558736D01*
X13668035Y-11558736D02*
X13658511Y-11549212D01*
D14*
X7214400Y-11900300D02*
X7214400Y-12000300D01*
X7164400Y-11950300D02*
X7264400Y-11950300D01*
D11*
X7629939Y-12041784D02*
X7515653Y-12041784D01*
X7572796Y-12041784D02*
X7572796Y-11841784D01*
X7572796Y-11841784D02*
X7553748Y-11870355D01*
X7553748Y-11870355D02*
X7534701Y-11889403D01*
X7534701Y-11889403D02*
X7515653Y-11898927D01*
X7715653Y-12022736D02*
X7725177Y-12032260D01*
X7725177Y-12032260D02*
X7715653Y-12041784D01*
X7715653Y-12041784D02*
X7706129Y-12032260D01*
X7706129Y-12032260D02*
X7715653Y-12022736D01*
X7715653Y-12022736D02*
X7715653Y-12041784D01*
X7848986Y-11841784D02*
X7868034Y-11841784D01*
X7868034Y-11841784D02*
X7887082Y-11851308D01*
X7887082Y-11851308D02*
X7896605Y-11860831D01*
X7896605Y-11860831D02*
X7906129Y-11879879D01*
X7906129Y-11879879D02*
X7915653Y-11917974D01*
X7915653Y-11917974D02*
X7915653Y-11965593D01*
X7915653Y-11965593D02*
X7906129Y-12003688D01*
X7906129Y-12003688D02*
X7896605Y-12022736D01*
X7896605Y-12022736D02*
X7887082Y-12032260D01*
X7887082Y-12032260D02*
X7868034Y-12041784D01*
X7868034Y-12041784D02*
X7848986Y-12041784D01*
X7848986Y-12041784D02*
X7829939Y-12032260D01*
X7829939Y-12032260D02*
X7820415Y-12022736D01*
X7820415Y-12022736D02*
X7810891Y-12003688D01*
X7810891Y-12003688D02*
X7801367Y-11965593D01*
X7801367Y-11965593D02*
X7801367Y-11917974D01*
X7801367Y-11917974D02*
X7810891Y-11879879D01*
X7810891Y-11879879D02*
X7820415Y-11860831D01*
X7820415Y-11860831D02*
X7829939Y-11851308D01*
X7829939Y-11851308D02*
X7848986Y-11841784D01*
X8039462Y-11841784D02*
X8058510Y-11841784D01*
X8058510Y-11841784D02*
X8077558Y-11851308D01*
X8077558Y-11851308D02*
X8087082Y-11860831D01*
X8087082Y-11860831D02*
X8096605Y-11879879D01*
X8096605Y-11879879D02*
X8106129Y-11917974D01*
X8106129Y-11917974D02*
X8106129Y-11965593D01*
X8106129Y-11965593D02*
X8096605Y-12003688D01*
X8096605Y-12003688D02*
X8087082Y-12022736D01*
X8087082Y-12022736D02*
X8077558Y-12032260D01*
X8077558Y-12032260D02*
X8058510Y-12041784D01*
X8058510Y-12041784D02*
X8039462Y-12041784D01*
X8039462Y-12041784D02*
X8020415Y-12032260D01*
X8020415Y-12032260D02*
X8010891Y-12022736D01*
X8010891Y-12022736D02*
X8001367Y-12003688D01*
X8001367Y-12003688D02*
X7991843Y-11965593D01*
X7991843Y-11965593D02*
X7991843Y-11917974D01*
X7991843Y-11917974D02*
X8001367Y-11879879D01*
X8001367Y-11879879D02*
X8010891Y-11860831D01*
X8010891Y-11860831D02*
X8020415Y-11851308D01*
X8020415Y-11851308D02*
X8039462Y-11841784D01*
X8229939Y-11841784D02*
X8248986Y-11841784D01*
X8248986Y-11841784D02*
X8268034Y-11851308D01*
X8268034Y-11851308D02*
X8277558Y-11860831D01*
X8277558Y-11860831D02*
X8287082Y-11879879D01*
X8287082Y-11879879D02*
X8296605Y-11917974D01*
X8296605Y-11917974D02*
X8296605Y-11965593D01*
X8296605Y-11965593D02*
X8287082Y-12003688D01*
X8287082Y-12003688D02*
X8277558Y-12022736D01*
X8277558Y-12022736D02*
X8268034Y-12032260D01*
X8268034Y-12032260D02*
X8248986Y-12041784D01*
X8248986Y-12041784D02*
X8229939Y-12041784D01*
X8229939Y-12041784D02*
X8210891Y-12032260D01*
X8210891Y-12032260D02*
X8201367Y-12022736D01*
X8201367Y-12022736D02*
X8191843Y-12003688D01*
X8191843Y-12003688D02*
X8182320Y-11965593D01*
X8182320Y-11965593D02*
X8182320Y-11917974D01*
X8182320Y-11917974D02*
X8191843Y-11879879D01*
X8191843Y-11879879D02*
X8201367Y-11860831D01*
X8201367Y-11860831D02*
X8210891Y-11851308D01*
X8210891Y-11851308D02*
X8229939Y-11841784D01*
X8382320Y-12041784D02*
X8382320Y-11908450D01*
X8382320Y-11927498D02*
X8391844Y-11917974D01*
X8391844Y-11917974D02*
X8410891Y-11908450D01*
X8410891Y-11908450D02*
X8439463Y-11908450D01*
X8439463Y-11908450D02*
X8458510Y-11917974D01*
X8458510Y-11917974D02*
X8468034Y-11937022D01*
X8468034Y-11937022D02*
X8468034Y-12041784D01*
X8468034Y-11937022D02*
X8477558Y-11917974D01*
X8477558Y-11917974D02*
X8496605Y-11908450D01*
X8496605Y-11908450D02*
X8525177Y-11908450D01*
X8525177Y-11908450D02*
X8544225Y-11917974D01*
X8544225Y-11917974D02*
X8553748Y-11937022D01*
X8553748Y-11937022D02*
X8553748Y-12041784D01*
X8648986Y-12041784D02*
X8648986Y-11908450D01*
X8648986Y-11927498D02*
X8658510Y-11917974D01*
X8658510Y-11917974D02*
X8677558Y-11908450D01*
X8677558Y-11908450D02*
X8706129Y-11908450D01*
X8706129Y-11908450D02*
X8725177Y-11917974D01*
X8725177Y-11917974D02*
X8734701Y-11937022D01*
X8734701Y-11937022D02*
X8734701Y-12041784D01*
X8734701Y-11937022D02*
X8744225Y-11917974D01*
X8744225Y-11917974D02*
X8763272Y-11908450D01*
X8763272Y-11908450D02*
X8791844Y-11908450D01*
X8791844Y-11908450D02*
X8810891Y-11917974D01*
X8810891Y-11917974D02*
X8820415Y-11937022D01*
X8820415Y-11937022D02*
X8820415Y-12041784D01*
X9210891Y-11832260D02*
X9039463Y-12089403D01*
X9468034Y-11841784D02*
X9487082Y-11841784D01*
X9487082Y-11841784D02*
X9506129Y-11851308D01*
X9506129Y-11851308D02*
X9515653Y-11860831D01*
X9515653Y-11860831D02*
X9525177Y-11879879D01*
X9525177Y-11879879D02*
X9534701Y-11917974D01*
X9534701Y-11917974D02*
X9534701Y-11965593D01*
X9534701Y-11965593D02*
X9525177Y-12003688D01*
X9525177Y-12003688D02*
X9515653Y-12022736D01*
X9515653Y-12022736D02*
X9506129Y-12032260D01*
X9506129Y-12032260D02*
X9487082Y-12041784D01*
X9487082Y-12041784D02*
X9468034Y-12041784D01*
X9468034Y-12041784D02*
X9448987Y-12032260D01*
X9448987Y-12032260D02*
X9439463Y-12022736D01*
X9439463Y-12022736D02*
X9429939Y-12003688D01*
X9429939Y-12003688D02*
X9420415Y-11965593D01*
X9420415Y-11965593D02*
X9420415Y-11917974D01*
X9420415Y-11917974D02*
X9429939Y-11879879D01*
X9429939Y-11879879D02*
X9439463Y-11860831D01*
X9439463Y-11860831D02*
X9448987Y-11851308D01*
X9448987Y-11851308D02*
X9468034Y-11841784D01*
X9620415Y-12022736D02*
X9629939Y-12032260D01*
X9629939Y-12032260D02*
X9620415Y-12041784D01*
X9620415Y-12041784D02*
X9610891Y-12032260D01*
X9610891Y-12032260D02*
X9620415Y-12022736D01*
X9620415Y-12022736D02*
X9620415Y-12041784D01*
X9753748Y-11841784D02*
X9772796Y-11841784D01*
X9772796Y-11841784D02*
X9791844Y-11851308D01*
X9791844Y-11851308D02*
X9801368Y-11860831D01*
X9801368Y-11860831D02*
X9810891Y-11879879D01*
X9810891Y-11879879D02*
X9820415Y-11917974D01*
X9820415Y-11917974D02*
X9820415Y-11965593D01*
X9820415Y-11965593D02*
X9810891Y-12003688D01*
X9810891Y-12003688D02*
X9801368Y-12022736D01*
X9801368Y-12022736D02*
X9791844Y-12032260D01*
X9791844Y-12032260D02*
X9772796Y-12041784D01*
X9772796Y-12041784D02*
X9753748Y-12041784D01*
X9753748Y-12041784D02*
X9734701Y-12032260D01*
X9734701Y-12032260D02*
X9725177Y-12022736D01*
X9725177Y-12022736D02*
X9715653Y-12003688D01*
X9715653Y-12003688D02*
X9706129Y-11965593D01*
X9706129Y-11965593D02*
X9706129Y-11917974D01*
X9706129Y-11917974D02*
X9715653Y-11879879D01*
X9715653Y-11879879D02*
X9725177Y-11860831D01*
X9725177Y-11860831D02*
X9734701Y-11851308D01*
X9734701Y-11851308D02*
X9753748Y-11841784D01*
X9887082Y-11841784D02*
X10010891Y-11841784D01*
X10010891Y-11841784D02*
X9944225Y-11917974D01*
X9944225Y-11917974D02*
X9972796Y-11917974D01*
X9972796Y-11917974D02*
X9991844Y-11927498D01*
X9991844Y-11927498D02*
X10001368Y-11937022D01*
X10001368Y-11937022D02*
X10010891Y-11956069D01*
X10010891Y-11956069D02*
X10010891Y-12003688D01*
X10010891Y-12003688D02*
X10001368Y-12022736D01*
X10001368Y-12022736D02*
X9991844Y-12032260D01*
X9991844Y-12032260D02*
X9972796Y-12041784D01*
X9972796Y-12041784D02*
X9915653Y-12041784D01*
X9915653Y-12041784D02*
X9896606Y-12032260D01*
X9896606Y-12032260D02*
X9887082Y-12022736D01*
X10106129Y-12041784D02*
X10144225Y-12041784D01*
X10144225Y-12041784D02*
X10163272Y-12032260D01*
X10163272Y-12032260D02*
X10172796Y-12022736D01*
X10172796Y-12022736D02*
X10191844Y-11994165D01*
X10191844Y-11994165D02*
X10201368Y-11956069D01*
X10201368Y-11956069D02*
X10201368Y-11879879D01*
X10201368Y-11879879D02*
X10191844Y-11860831D01*
X10191844Y-11860831D02*
X10182320Y-11851308D01*
X10182320Y-11851308D02*
X10163272Y-11841784D01*
X10163272Y-11841784D02*
X10125177Y-11841784D01*
X10125177Y-11841784D02*
X10106129Y-11851308D01*
X10106129Y-11851308D02*
X10096606Y-11860831D01*
X10096606Y-11860831D02*
X10087082Y-11879879D01*
X10087082Y-11879879D02*
X10087082Y-11927498D01*
X10087082Y-11927498D02*
X10096606Y-11946546D01*
X10096606Y-11946546D02*
X10106129Y-11956069D01*
X10106129Y-11956069D02*
X10125177Y-11965593D01*
X10125177Y-11965593D02*
X10163272Y-11965593D01*
X10163272Y-11965593D02*
X10182320Y-11956069D01*
X10182320Y-11956069D02*
X10191844Y-11946546D01*
X10191844Y-11946546D02*
X10201368Y-11927498D01*
X10372796Y-11908450D02*
X10372796Y-12041784D01*
X10325177Y-11832260D02*
X10277558Y-11975117D01*
X10277558Y-11975117D02*
X10401368Y-11975117D01*
X10468034Y-11841784D02*
X10468034Y-11879879D01*
X10544225Y-11841784D02*
X10544225Y-11879879D01*
X10839463Y-12117974D02*
X10829939Y-12108450D01*
X10829939Y-12108450D02*
X10810891Y-12079879D01*
X10810891Y-12079879D02*
X10801368Y-12060831D01*
X10801368Y-12060831D02*
X10791844Y-12032260D01*
X10791844Y-12032260D02*
X10782320Y-11984641D01*
X10782320Y-11984641D02*
X10782320Y-11946546D01*
X10782320Y-11946546D02*
X10791844Y-11898927D01*
X10791844Y-11898927D02*
X10801368Y-11870355D01*
X10801368Y-11870355D02*
X10810891Y-11851308D01*
X10810891Y-11851308D02*
X10829939Y-11822736D01*
X10829939Y-11822736D02*
X10839463Y-11813212D01*
X10906130Y-11860831D02*
X10915653Y-11851308D01*
X10915653Y-11851308D02*
X10934701Y-11841784D01*
X10934701Y-11841784D02*
X10982320Y-11841784D01*
X10982320Y-11841784D02*
X11001368Y-11851308D01*
X11001368Y-11851308D02*
X11010891Y-11860831D01*
X11010891Y-11860831D02*
X11020415Y-11879879D01*
X11020415Y-11879879D02*
X11020415Y-11898927D01*
X11020415Y-11898927D02*
X11010891Y-11927498D01*
X11010891Y-11927498D02*
X10896606Y-12041784D01*
X10896606Y-12041784D02*
X11020415Y-12041784D01*
X11144225Y-11841784D02*
X11163272Y-11841784D01*
X11163272Y-11841784D02*
X11182320Y-11851308D01*
X11182320Y-11851308D02*
X11191844Y-11860831D01*
X11191844Y-11860831D02*
X11201368Y-11879879D01*
X11201368Y-11879879D02*
X11210891Y-11917974D01*
X11210891Y-11917974D02*
X11210891Y-11965593D01*
X11210891Y-11965593D02*
X11201368Y-12003688D01*
X11201368Y-12003688D02*
X11191844Y-12022736D01*
X11191844Y-12022736D02*
X11182320Y-12032260D01*
X11182320Y-12032260D02*
X11163272Y-12041784D01*
X11163272Y-12041784D02*
X11144225Y-12041784D01*
X11144225Y-12041784D02*
X11125177Y-12032260D01*
X11125177Y-12032260D02*
X11115653Y-12022736D01*
X11115653Y-12022736D02*
X11106130Y-12003688D01*
X11106130Y-12003688D02*
X11096606Y-11965593D01*
X11096606Y-11965593D02*
X11096606Y-11917974D01*
X11096606Y-11917974D02*
X11106130Y-11879879D01*
X11106130Y-11879879D02*
X11115653Y-11860831D01*
X11115653Y-11860831D02*
X11125177Y-11851308D01*
X11125177Y-11851308D02*
X11144225Y-11841784D01*
X11448987Y-12041784D02*
X11448987Y-11841784D01*
X11534701Y-12041784D02*
X11534701Y-11937022D01*
X11534701Y-11937022D02*
X11525177Y-11917974D01*
X11525177Y-11917974D02*
X11506130Y-11908450D01*
X11506130Y-11908450D02*
X11477558Y-11908450D01*
X11477558Y-11908450D02*
X11458510Y-11917974D01*
X11458510Y-11917974D02*
X11448987Y-11927498D01*
X11658510Y-12041784D02*
X11639463Y-12032260D01*
X11639463Y-12032260D02*
X11629939Y-12022736D01*
X11629939Y-12022736D02*
X11620415Y-12003688D01*
X11620415Y-12003688D02*
X11620415Y-11946546D01*
X11620415Y-11946546D02*
X11629939Y-11927498D01*
X11629939Y-11927498D02*
X11639463Y-11917974D01*
X11639463Y-11917974D02*
X11658510Y-11908450D01*
X11658510Y-11908450D02*
X11687082Y-11908450D01*
X11687082Y-11908450D02*
X11706130Y-11917974D01*
X11706130Y-11917974D02*
X11715653Y-11927498D01*
X11715653Y-11927498D02*
X11725177Y-11946546D01*
X11725177Y-11946546D02*
X11725177Y-12003688D01*
X11725177Y-12003688D02*
X11715653Y-12022736D01*
X11715653Y-12022736D02*
X11706130Y-12032260D01*
X11706130Y-12032260D02*
X11687082Y-12041784D01*
X11687082Y-12041784D02*
X11658510Y-12041784D01*
X11839463Y-12041784D02*
X11820415Y-12032260D01*
X11820415Y-12032260D02*
X11810891Y-12013212D01*
X11810891Y-12013212D02*
X11810891Y-11841784D01*
X11991844Y-12032260D02*
X11972796Y-12041784D01*
X11972796Y-12041784D02*
X11934701Y-12041784D01*
X11934701Y-12041784D02*
X11915653Y-12032260D01*
X11915653Y-12032260D02*
X11906130Y-12013212D01*
X11906130Y-12013212D02*
X11906130Y-11937022D01*
X11906130Y-11937022D02*
X11915653Y-11917974D01*
X11915653Y-11917974D02*
X11934701Y-11908450D01*
X11934701Y-11908450D02*
X11972796Y-11908450D01*
X11972796Y-11908450D02*
X11991844Y-11917974D01*
X11991844Y-11917974D02*
X12001368Y-11937022D01*
X12001368Y-11937022D02*
X12001368Y-11956069D01*
X12001368Y-11956069D02*
X11906130Y-11975117D01*
X12077558Y-12032260D02*
X12096606Y-12041784D01*
X12096606Y-12041784D02*
X12134701Y-12041784D01*
X12134701Y-12041784D02*
X12153749Y-12032260D01*
X12153749Y-12032260D02*
X12163272Y-12013212D01*
X12163272Y-12013212D02*
X12163272Y-12003688D01*
X12163272Y-12003688D02*
X12153749Y-11984641D01*
X12153749Y-11984641D02*
X12134701Y-11975117D01*
X12134701Y-11975117D02*
X12106130Y-11975117D01*
X12106130Y-11975117D02*
X12087082Y-11965593D01*
X12087082Y-11965593D02*
X12077558Y-11946546D01*
X12077558Y-11946546D02*
X12077558Y-11937022D01*
X12077558Y-11937022D02*
X12087082Y-11917974D01*
X12087082Y-11917974D02*
X12106130Y-11908450D01*
X12106130Y-11908450D02*
X12134701Y-11908450D01*
X12134701Y-11908450D02*
X12153749Y-11917974D01*
X12229939Y-12117974D02*
X12239463Y-12108450D01*
X12239463Y-12108450D02*
X12258511Y-12079879D01*
X12258511Y-12079879D02*
X12268034Y-12060831D01*
X12268034Y-12060831D02*
X12277558Y-12032260D01*
X12277558Y-12032260D02*
X12287082Y-11984641D01*
X12287082Y-11984641D02*
X12287082Y-11946546D01*
X12287082Y-11946546D02*
X12277558Y-11898927D01*
X12277558Y-11898927D02*
X12268034Y-11870355D01*
X12268034Y-11870355D02*
X12258511Y-11851308D01*
X12258511Y-11851308D02*
X12239463Y-11822736D01*
X12239463Y-11822736D02*
X12229939Y-11813212D01*
X7235111Y-12285011D02*
X7235111Y-12143589D01*
X7093689Y-12143589D01*
X7093689Y-12285011D01*
X7235111Y-12285011D01*
X7515653Y-12124831D02*
X7525177Y-12115308D01*
X7525177Y-12115308D02*
X7544224Y-12105784D01*
X7544224Y-12105784D02*
X7591843Y-12105784D01*
X7591843Y-12105784D02*
X7610891Y-12115308D01*
X7610891Y-12115308D02*
X7620415Y-12124831D01*
X7620415Y-12124831D02*
X7629939Y-12143879D01*
X7629939Y-12143879D02*
X7629939Y-12162927D01*
X7629939Y-12162927D02*
X7620415Y-12191498D01*
X7620415Y-12191498D02*
X7506129Y-12305784D01*
X7506129Y-12305784D02*
X7629939Y-12305784D01*
X7715653Y-12286736D02*
X7725177Y-12296260D01*
X7725177Y-12296260D02*
X7715653Y-12305784D01*
X7715653Y-12305784D02*
X7706129Y-12296260D01*
X7706129Y-12296260D02*
X7715653Y-12286736D01*
X7715653Y-12286736D02*
X7715653Y-12305784D01*
X7801367Y-12124831D02*
X7810891Y-12115308D01*
X7810891Y-12115308D02*
X7829939Y-12105784D01*
X7829939Y-12105784D02*
X7877558Y-12105784D01*
X7877558Y-12105784D02*
X7896605Y-12115308D01*
X7896605Y-12115308D02*
X7906129Y-12124831D01*
X7906129Y-12124831D02*
X7915653Y-12143879D01*
X7915653Y-12143879D02*
X7915653Y-12162927D01*
X7915653Y-12162927D02*
X7906129Y-12191498D01*
X7906129Y-12191498D02*
X7791843Y-12305784D01*
X7791843Y-12305784D02*
X7915653Y-12305784D01*
X8039462Y-12105784D02*
X8058510Y-12105784D01*
X8058510Y-12105784D02*
X8077558Y-12115308D01*
X8077558Y-12115308D02*
X8087082Y-12124831D01*
X8087082Y-12124831D02*
X8096605Y-12143879D01*
X8096605Y-12143879D02*
X8106129Y-12181974D01*
X8106129Y-12181974D02*
X8106129Y-12229593D01*
X8106129Y-12229593D02*
X8096605Y-12267688D01*
X8096605Y-12267688D02*
X8087082Y-12286736D01*
X8087082Y-12286736D02*
X8077558Y-12296260D01*
X8077558Y-12296260D02*
X8058510Y-12305784D01*
X8058510Y-12305784D02*
X8039462Y-12305784D01*
X8039462Y-12305784D02*
X8020415Y-12296260D01*
X8020415Y-12296260D02*
X8010891Y-12286736D01*
X8010891Y-12286736D02*
X8001367Y-12267688D01*
X8001367Y-12267688D02*
X7991843Y-12229593D01*
X7991843Y-12229593D02*
X7991843Y-12181974D01*
X7991843Y-12181974D02*
X8001367Y-12143879D01*
X8001367Y-12143879D02*
X8010891Y-12124831D01*
X8010891Y-12124831D02*
X8020415Y-12115308D01*
X8020415Y-12115308D02*
X8039462Y-12105784D01*
X8229939Y-12105784D02*
X8248986Y-12105784D01*
X8248986Y-12105784D02*
X8268034Y-12115308D01*
X8268034Y-12115308D02*
X8277558Y-12124831D01*
X8277558Y-12124831D02*
X8287082Y-12143879D01*
X8287082Y-12143879D02*
X8296605Y-12181974D01*
X8296605Y-12181974D02*
X8296605Y-12229593D01*
X8296605Y-12229593D02*
X8287082Y-12267688D01*
X8287082Y-12267688D02*
X8277558Y-12286736D01*
X8277558Y-12286736D02*
X8268034Y-12296260D01*
X8268034Y-12296260D02*
X8248986Y-12305784D01*
X8248986Y-12305784D02*
X8229939Y-12305784D01*
X8229939Y-12305784D02*
X8210891Y-12296260D01*
X8210891Y-12296260D02*
X8201367Y-12286736D01*
X8201367Y-12286736D02*
X8191843Y-12267688D01*
X8191843Y-12267688D02*
X8182320Y-12229593D01*
X8182320Y-12229593D02*
X8182320Y-12181974D01*
X8182320Y-12181974D02*
X8191843Y-12143879D01*
X8191843Y-12143879D02*
X8201367Y-12124831D01*
X8201367Y-12124831D02*
X8210891Y-12115308D01*
X8210891Y-12115308D02*
X8229939Y-12105784D01*
X8382320Y-12305784D02*
X8382320Y-12172450D01*
X8382320Y-12191498D02*
X8391844Y-12181974D01*
X8391844Y-12181974D02*
X8410891Y-12172450D01*
X8410891Y-12172450D02*
X8439463Y-12172450D01*
X8439463Y-12172450D02*
X8458510Y-12181974D01*
X8458510Y-12181974D02*
X8468034Y-12201022D01*
X8468034Y-12201022D02*
X8468034Y-12305784D01*
X8468034Y-12201022D02*
X8477558Y-12181974D01*
X8477558Y-12181974D02*
X8496605Y-12172450D01*
X8496605Y-12172450D02*
X8525177Y-12172450D01*
X8525177Y-12172450D02*
X8544225Y-12181974D01*
X8544225Y-12181974D02*
X8553748Y-12201022D01*
X8553748Y-12201022D02*
X8553748Y-12305784D01*
X8648986Y-12305784D02*
X8648986Y-12172450D01*
X8648986Y-12191498D02*
X8658510Y-12181974D01*
X8658510Y-12181974D02*
X8677558Y-12172450D01*
X8677558Y-12172450D02*
X8706129Y-12172450D01*
X8706129Y-12172450D02*
X8725177Y-12181974D01*
X8725177Y-12181974D02*
X8734701Y-12201022D01*
X8734701Y-12201022D02*
X8734701Y-12305784D01*
X8734701Y-12201022D02*
X8744225Y-12181974D01*
X8744225Y-12181974D02*
X8763272Y-12172450D01*
X8763272Y-12172450D02*
X8791844Y-12172450D01*
X8791844Y-12172450D02*
X8810891Y-12181974D01*
X8810891Y-12181974D02*
X8820415Y-12201022D01*
X8820415Y-12201022D02*
X8820415Y-12305784D01*
X9210891Y-12096260D02*
X9039463Y-12353403D01*
X9468034Y-12105784D02*
X9487082Y-12105784D01*
X9487082Y-12105784D02*
X9506129Y-12115308D01*
X9506129Y-12115308D02*
X9515653Y-12124831D01*
X9515653Y-12124831D02*
X9525177Y-12143879D01*
X9525177Y-12143879D02*
X9534701Y-12181974D01*
X9534701Y-12181974D02*
X9534701Y-12229593D01*
X9534701Y-12229593D02*
X9525177Y-12267688D01*
X9525177Y-12267688D02*
X9515653Y-12286736D01*
X9515653Y-12286736D02*
X9506129Y-12296260D01*
X9506129Y-12296260D02*
X9487082Y-12305784D01*
X9487082Y-12305784D02*
X9468034Y-12305784D01*
X9468034Y-12305784D02*
X9448987Y-12296260D01*
X9448987Y-12296260D02*
X9439463Y-12286736D01*
X9439463Y-12286736D02*
X9429939Y-12267688D01*
X9429939Y-12267688D02*
X9420415Y-12229593D01*
X9420415Y-12229593D02*
X9420415Y-12181974D01*
X9420415Y-12181974D02*
X9429939Y-12143879D01*
X9429939Y-12143879D02*
X9439463Y-12124831D01*
X9439463Y-12124831D02*
X9448987Y-12115308D01*
X9448987Y-12115308D02*
X9468034Y-12105784D01*
X9620415Y-12286736D02*
X9629939Y-12296260D01*
X9629939Y-12296260D02*
X9620415Y-12305784D01*
X9620415Y-12305784D02*
X9610891Y-12296260D01*
X9610891Y-12296260D02*
X9620415Y-12286736D01*
X9620415Y-12286736D02*
X9620415Y-12305784D01*
X9753748Y-12105784D02*
X9772796Y-12105784D01*
X9772796Y-12105784D02*
X9791844Y-12115308D01*
X9791844Y-12115308D02*
X9801368Y-12124831D01*
X9801368Y-12124831D02*
X9810891Y-12143879D01*
X9810891Y-12143879D02*
X9820415Y-12181974D01*
X9820415Y-12181974D02*
X9820415Y-12229593D01*
X9820415Y-12229593D02*
X9810891Y-12267688D01*
X9810891Y-12267688D02*
X9801368Y-12286736D01*
X9801368Y-12286736D02*
X9791844Y-12296260D01*
X9791844Y-12296260D02*
X9772796Y-12305784D01*
X9772796Y-12305784D02*
X9753748Y-12305784D01*
X9753748Y-12305784D02*
X9734701Y-12296260D01*
X9734701Y-12296260D02*
X9725177Y-12286736D01*
X9725177Y-12286736D02*
X9715653Y-12267688D01*
X9715653Y-12267688D02*
X9706129Y-12229593D01*
X9706129Y-12229593D02*
X9706129Y-12181974D01*
X9706129Y-12181974D02*
X9715653Y-12143879D01*
X9715653Y-12143879D02*
X9725177Y-12124831D01*
X9725177Y-12124831D02*
X9734701Y-12115308D01*
X9734701Y-12115308D02*
X9753748Y-12105784D01*
X9934701Y-12191498D02*
X9915653Y-12181974D01*
X9915653Y-12181974D02*
X9906129Y-12172450D01*
X9906129Y-12172450D02*
X9896606Y-12153403D01*
X9896606Y-12153403D02*
X9896606Y-12143879D01*
X9896606Y-12143879D02*
X9906129Y-12124831D01*
X9906129Y-12124831D02*
X9915653Y-12115308D01*
X9915653Y-12115308D02*
X9934701Y-12105784D01*
X9934701Y-12105784D02*
X9972796Y-12105784D01*
X9972796Y-12105784D02*
X9991844Y-12115308D01*
X9991844Y-12115308D02*
X10001368Y-12124831D01*
X10001368Y-12124831D02*
X10010891Y-12143879D01*
X10010891Y-12143879D02*
X10010891Y-12153403D01*
X10010891Y-12153403D02*
X10001368Y-12172450D01*
X10001368Y-12172450D02*
X9991844Y-12181974D01*
X9991844Y-12181974D02*
X9972796Y-12191498D01*
X9972796Y-12191498D02*
X9934701Y-12191498D01*
X9934701Y-12191498D02*
X9915653Y-12201022D01*
X9915653Y-12201022D02*
X9906129Y-12210546D01*
X9906129Y-12210546D02*
X9896606Y-12229593D01*
X9896606Y-12229593D02*
X9896606Y-12267688D01*
X9896606Y-12267688D02*
X9906129Y-12286736D01*
X9906129Y-12286736D02*
X9915653Y-12296260D01*
X9915653Y-12296260D02*
X9934701Y-12305784D01*
X9934701Y-12305784D02*
X9972796Y-12305784D01*
X9972796Y-12305784D02*
X9991844Y-12296260D01*
X9991844Y-12296260D02*
X10001368Y-12286736D01*
X10001368Y-12286736D02*
X10010891Y-12267688D01*
X10010891Y-12267688D02*
X10010891Y-12229593D01*
X10010891Y-12229593D02*
X10001368Y-12210546D01*
X10001368Y-12210546D02*
X9991844Y-12201022D01*
X9991844Y-12201022D02*
X9972796Y-12191498D01*
X10182320Y-12105784D02*
X10144225Y-12105784D01*
X10144225Y-12105784D02*
X10125177Y-12115308D01*
X10125177Y-12115308D02*
X10115653Y-12124831D01*
X10115653Y-12124831D02*
X10096606Y-12153403D01*
X10096606Y-12153403D02*
X10087082Y-12191498D01*
X10087082Y-12191498D02*
X10087082Y-12267688D01*
X10087082Y-12267688D02*
X10096606Y-12286736D01*
X10096606Y-12286736D02*
X10106129Y-12296260D01*
X10106129Y-12296260D02*
X10125177Y-12305784D01*
X10125177Y-12305784D02*
X10163272Y-12305784D01*
X10163272Y-12305784D02*
X10182320Y-12296260D01*
X10182320Y-12296260D02*
X10191844Y-12286736D01*
X10191844Y-12286736D02*
X10201368Y-12267688D01*
X10201368Y-12267688D02*
X10201368Y-12220069D01*
X10201368Y-12220069D02*
X10191844Y-12201022D01*
X10191844Y-12201022D02*
X10182320Y-12191498D01*
X10182320Y-12191498D02*
X10163272Y-12181974D01*
X10163272Y-12181974D02*
X10125177Y-12181974D01*
X10125177Y-12181974D02*
X10106129Y-12191498D01*
X10106129Y-12191498D02*
X10096606Y-12201022D01*
X10096606Y-12201022D02*
X10087082Y-12220069D01*
X10372796Y-12105784D02*
X10334701Y-12105784D01*
X10334701Y-12105784D02*
X10315653Y-12115308D01*
X10315653Y-12115308D02*
X10306129Y-12124831D01*
X10306129Y-12124831D02*
X10287082Y-12153403D01*
X10287082Y-12153403D02*
X10277558Y-12191498D01*
X10277558Y-12191498D02*
X10277558Y-12267688D01*
X10277558Y-12267688D02*
X10287082Y-12286736D01*
X10287082Y-12286736D02*
X10296606Y-12296260D01*
X10296606Y-12296260D02*
X10315653Y-12305784D01*
X10315653Y-12305784D02*
X10353749Y-12305784D01*
X10353749Y-12305784D02*
X10372796Y-12296260D01*
X10372796Y-12296260D02*
X10382320Y-12286736D01*
X10382320Y-12286736D02*
X10391844Y-12267688D01*
X10391844Y-12267688D02*
X10391844Y-12220069D01*
X10391844Y-12220069D02*
X10382320Y-12201022D01*
X10382320Y-12201022D02*
X10372796Y-12191498D01*
X10372796Y-12191498D02*
X10353749Y-12181974D01*
X10353749Y-12181974D02*
X10315653Y-12181974D01*
X10315653Y-12181974D02*
X10296606Y-12191498D01*
X10296606Y-12191498D02*
X10287082Y-12201022D01*
X10287082Y-12201022D02*
X10277558Y-12220069D01*
X10468034Y-12105784D02*
X10468034Y-12143879D01*
X10544225Y-12105784D02*
X10544225Y-12143879D01*
X10839463Y-12381974D02*
X10829939Y-12372450D01*
X10829939Y-12372450D02*
X10810891Y-12343879D01*
X10810891Y-12343879D02*
X10801368Y-12324831D01*
X10801368Y-12324831D02*
X10791844Y-12296260D01*
X10791844Y-12296260D02*
X10782320Y-12248641D01*
X10782320Y-12248641D02*
X10782320Y-12210546D01*
X10782320Y-12210546D02*
X10791844Y-12162927D01*
X10791844Y-12162927D02*
X10801368Y-12134355D01*
X10801368Y-12134355D02*
X10810891Y-12115308D01*
X10810891Y-12115308D02*
X10829939Y-12086736D01*
X10829939Y-12086736D02*
X10839463Y-12077212D01*
X11001368Y-12172450D02*
X11001368Y-12305784D01*
X10953749Y-12096260D02*
X10906130Y-12239117D01*
X10906130Y-12239117D02*
X11029939Y-12239117D01*
X11258510Y-12305784D02*
X11258510Y-12105784D01*
X11344225Y-12305784D02*
X11344225Y-12201022D01*
X11344225Y-12201022D02*
X11334701Y-12181974D01*
X11334701Y-12181974D02*
X11315653Y-12172450D01*
X11315653Y-12172450D02*
X11287082Y-12172450D01*
X11287082Y-12172450D02*
X11268034Y-12181974D01*
X11268034Y-12181974D02*
X11258510Y-12191498D01*
X11468034Y-12305784D02*
X11448987Y-12296260D01*
X11448987Y-12296260D02*
X11439463Y-12286736D01*
X11439463Y-12286736D02*
X11429939Y-12267688D01*
X11429939Y-12267688D02*
X11429939Y-12210546D01*
X11429939Y-12210546D02*
X11439463Y-12191498D01*
X11439463Y-12191498D02*
X11448987Y-12181974D01*
X11448987Y-12181974D02*
X11468034Y-12172450D01*
X11468034Y-12172450D02*
X11496606Y-12172450D01*
X11496606Y-12172450D02*
X11515653Y-12181974D01*
X11515653Y-12181974D02*
X11525177Y-12191498D01*
X11525177Y-12191498D02*
X11534701Y-12210546D01*
X11534701Y-12210546D02*
X11534701Y-12267688D01*
X11534701Y-12267688D02*
X11525177Y-12286736D01*
X11525177Y-12286736D02*
X11515653Y-12296260D01*
X11515653Y-12296260D02*
X11496606Y-12305784D01*
X11496606Y-12305784D02*
X11468034Y-12305784D01*
X11648987Y-12305784D02*
X11629939Y-12296260D01*
X11629939Y-12296260D02*
X11620415Y-12277212D01*
X11620415Y-12277212D02*
X11620415Y-12105784D01*
X11801368Y-12296260D02*
X11782320Y-12305784D01*
X11782320Y-12305784D02*
X11744225Y-12305784D01*
X11744225Y-12305784D02*
X11725177Y-12296260D01*
X11725177Y-12296260D02*
X11715653Y-12277212D01*
X11715653Y-12277212D02*
X11715653Y-12201022D01*
X11715653Y-12201022D02*
X11725177Y-12181974D01*
X11725177Y-12181974D02*
X11744225Y-12172450D01*
X11744225Y-12172450D02*
X11782320Y-12172450D01*
X11782320Y-12172450D02*
X11801368Y-12181974D01*
X11801368Y-12181974D02*
X11810891Y-12201022D01*
X11810891Y-12201022D02*
X11810891Y-12220069D01*
X11810891Y-12220069D02*
X11715653Y-12239117D01*
X11887082Y-12296260D02*
X11906130Y-12305784D01*
X11906130Y-12305784D02*
X11944225Y-12305784D01*
X11944225Y-12305784D02*
X11963272Y-12296260D01*
X11963272Y-12296260D02*
X11972796Y-12277212D01*
X11972796Y-12277212D02*
X11972796Y-12267688D01*
X11972796Y-12267688D02*
X11963272Y-12248641D01*
X11963272Y-12248641D02*
X11944225Y-12239117D01*
X11944225Y-12239117D02*
X11915653Y-12239117D01*
X11915653Y-12239117D02*
X11896606Y-12229593D01*
X11896606Y-12229593D02*
X11887082Y-12210546D01*
X11887082Y-12210546D02*
X11887082Y-12201022D01*
X11887082Y-12201022D02*
X11896606Y-12181974D01*
X11896606Y-12181974D02*
X11915653Y-12172450D01*
X11915653Y-12172450D02*
X11944225Y-12172450D01*
X11944225Y-12172450D02*
X11963272Y-12181974D01*
X12039463Y-12381974D02*
X12048987Y-12372450D01*
X12048987Y-12372450D02*
X12068034Y-12343879D01*
X12068034Y-12343879D02*
X12077558Y-12324831D01*
X12077558Y-12324831D02*
X12087082Y-12296260D01*
X12087082Y-12296260D02*
X12096606Y-12248641D01*
X12096606Y-12248641D02*
X12096606Y-12210546D01*
X12096606Y-12210546D02*
X12087082Y-12162927D01*
X12087082Y-12162927D02*
X12077558Y-12134355D01*
X12077558Y-12134355D02*
X12068034Y-12115308D01*
X12068034Y-12115308D02*
X12048987Y-12086736D01*
X12048987Y-12086736D02*
X12039463Y-12077212D01*
M02*
