M48
; DRILL file {KiCad 7.0.6-71-g49772d2539} date Mon Aug  7 20:47:20 2023
; FORMAT={-:-/ absolute / metric / decimal}
; #@! TF.CreationDate,2023-08-07T20:47:20-04:00
; #@! TF.GenerationSoftware,Kicad,Pcbnew,7.0.6-71-g49772d2539
; #@! TF.FileFunction,Plated,1,4,PTH
FMAT,2
METRIC
; #@! TA.AperFunction,Plated,PTH,ViaDrill
T1C0.400
; #@! TA.AperFunction,Plated,PTH,ComponentDrill
T2C0.600
; #@! TA.AperFunction,Plated,PTH,ComponentDrill
T3C1.000
; #@! TA.AperFunction,Plated,PTH,ComponentDrill
T4C2.200
%
G90
G05
T1
X74.93Y-87.655
X76.708Y-87.655
X78.892Y-89.764
X78.969Y-87.96
X79.195Y-103.165
X79.324Y-90.983
X80.416Y-91.211
X80.594Y-92.278
X80.645Y-93.345
X80.67Y-104.267
X80.747Y-84.43
X80.747Y-85.979
X80.797Y-106.274
X80.823Y-102.413
X80.848Y-101.168
X81.001Y-94.58
X81.001Y-99.48
X81.483Y-92.837
X81.559Y-89.433
X81.585Y-104.267
X81.839Y-106.274
X84.531Y-103.581
X84.531Y-105.054
X85.039Y-102.26
X85.75Y-94.894
X85.75Y-99.187
X86.15Y-86.973
X86.334Y-89.062
X87.312Y-89.269
X88.189Y-91.516
X88.24Y-101.397
X88.498Y-106.164
X88.925Y-86.385
X88.976Y-89.154
X89.137Y-92.837
X89.149Y-91.238
X90.221Y-86.36
X90.272Y-87.452
X90.653Y-99.644
X91.643Y-105.08
X91.999Y-93.806
X92.203Y-101.397
X92.286Y-86.995
X92.312Y-85.09
X93.091Y-103.022
X93.116Y-91.237
X94.014Y-88.925
X94.039Y-97.434
X94.039Y-99.466
X94.132Y-95.275
X95.131Y-96.317
X95.157Y-98.4
X96.325Y-95.199
X96.325Y-97.434
X96.35Y-99.466
X96.477Y-85.852
X96.477Y-87.122
X97.417Y-96.291
X97.493Y-98.425
X98.082Y-91.927
X98.535Y-95.199
X98.535Y-99.72
X98.56Y-97.434
X99.779Y-101.727
X99.826Y-86.418
X100.381Y-85.395
X100.618Y-87.833
X100.813Y-93.675
X100.99Y-86.372
X101.969Y-100.588
X102.192Y-96.164
X102.337Y-91.973
X102.695Y-99.896
X102.887Y-98.895
X103.2Y-100.762
X103.285Y-90.754
X103.937Y-91.946
X104.06Y-98.877
X104.064Y-99.907
X104.478Y-101.273
X108.383Y-94.983
X108.788Y-92.329
X108.822Y-83.185
X108.822Y-88.773
X108.847Y-85.065
X108.899Y-96.393
X108.899Y-97.409
X112.606Y-88.925
X112.63Y-87.173
X112.63Y-90.703
X113.716Y-104.978
X116.51Y-103.861
X123.723Y-90.729
X123.723Y-94.767
X123.723Y-98.781
T3
X95.665Y-106.172
X98.205Y-106.172
X100.745Y-106.172
X103.285Y-106.172
X110.727Y-85.841
X110.727Y-88.381
X110.727Y-90.921
X110.727Y-93.461
X110.727Y-96.001
X110.727Y-98.541
X110.727Y-101.081
X110.727Y-103.621
X118.347Y-85.852
X118.347Y-88.392
X118.347Y-90.932
X118.347Y-93.472
X118.347Y-96.012
X118.347Y-98.552
X118.347Y-101.092
X118.347Y-103.632
T4
X75.311Y-84.328
X75.311Y-105.156
X122.199Y-105.156
X122.225Y-84.303
T2
X74.697Y-92.71G85X74.097Y-92.71
G05
X74.697Y-101.35G85X74.097Y-101.35
G05
X79.127Y-92.71G85X78.027Y-92.71
G05
X79.127Y-101.35G85X78.027Y-101.35
G05
T0
M30
