G04 #@! TF.GenerationSoftware,KiCad,Pcbnew,7.0.6-71-g49772d2539*
G04 #@! TF.CreationDate,2023-08-07T20:45:02-04:00*
G04 #@! TF.ProjectId,Free_PDK,46726565-5f50-4444-9b2e-6b696361645f,rev?*
G04 #@! TF.SameCoordinates,Original*
G04 #@! TF.FileFunction,Copper,L3,Inr*
G04 #@! TF.FilePolarity,Positive*
%FSLAX46Y46*%
G04 Gerber Fmt 4.6, Leading zero omitted, Abs format (unit mm)*
G04 Created by KiCad (PCBNEW 7.0.6-71-g49772d2539) date 2023-08-07 20:45:02*
%MOMM*%
%LPD*%
G01*
G04 APERTURE LIST*
G04 #@! TA.AperFunction,ComponentPad*
%ADD10C,3.800000*%
G04 #@! TD*
G04 #@! TA.AperFunction,ComponentPad*
%ADD11R,1.700000X1.700000*%
G04 #@! TD*
G04 #@! TA.AperFunction,ComponentPad*
%ADD12O,1.700000X1.700000*%
G04 #@! TD*
G04 #@! TA.AperFunction,ComponentPad*
%ADD13O,2.100000X1.000000*%
G04 #@! TD*
G04 #@! TA.AperFunction,ComponentPad*
%ADD14O,1.600000X1.000000*%
G04 #@! TD*
G04 #@! TA.AperFunction,ViaPad*
%ADD15C,0.800000*%
G04 #@! TD*
G04 APERTURE END LIST*
D10*
X122224800Y-84302600D03*
X75311000Y-84328000D03*
D11*
X110726750Y-85840600D03*
D12*
X110726750Y-88380600D03*
X110726750Y-90920600D03*
X110726750Y-93460600D03*
X110726750Y-96000600D03*
X110726750Y-98540600D03*
X110726750Y-101080600D03*
X110726750Y-103620600D03*
D11*
X103284550Y-106172000D03*
D12*
X100744550Y-106172000D03*
X98204550Y-106172000D03*
X95664550Y-106172000D03*
D13*
X78576600Y-92710000D03*
D14*
X74396600Y-92710000D03*
D13*
X78576600Y-101350000D03*
D14*
X74396600Y-101350000D03*
D10*
X122199400Y-105156000D03*
X75311000Y-105156000D03*
D11*
X118346750Y-85852000D03*
D12*
X118346750Y-88392000D03*
X118346750Y-90932000D03*
X118346750Y-93472000D03*
X118346750Y-96012000D03*
X118346750Y-98552000D03*
X118346750Y-101092000D03*
X118346750Y-103632000D03*
D15*
X94013550Y-88925400D03*
X94132400Y-95275400D03*
X76708000Y-87655400D03*
X103200200Y-100761800D03*
X96477350Y-87122000D03*
X100617550Y-87833200D03*
X108788200Y-92329000D03*
X81838800Y-106273600D03*
X96350350Y-99466400D03*
X92286350Y-86995000D03*
X89136750Y-92837000D03*
X98560150Y-97434400D03*
X116509800Y-103860600D03*
X87312358Y-89268853D03*
X98534750Y-95199200D03*
X80848200Y-101168200D03*
X97417150Y-96291400D03*
X96324950Y-95199200D03*
X95156550Y-98399600D03*
X74930000Y-87655400D03*
X103284550Y-90754200D03*
X79324200Y-90982800D03*
X104478000Y-101273200D03*
X108383251Y-94982899D03*
X80594200Y-92278200D03*
X85750400Y-99187000D03*
X80822800Y-102412800D03*
X102336600Y-91973400D03*
X108821750Y-88773000D03*
X78892400Y-89763600D03*
X108898850Y-97409000D03*
X95131150Y-96316800D03*
X93116400Y-91236800D03*
X104063800Y-99906522D03*
X104060333Y-98877344D03*
X100380800Y-85394800D03*
X88239600Y-101396800D03*
X92311750Y-85090000D03*
X108847150Y-85064600D03*
X81559400Y-89433400D03*
X103936800Y-91945800D03*
X80416400Y-91211400D03*
X81483200Y-92837000D03*
X94038950Y-97434400D03*
X86150000Y-86973000D03*
X96324950Y-97434400D03*
X98534750Y-99720400D03*
X97493350Y-98425000D03*
X80645000Y-93345000D03*
X80797400Y-106273600D03*
X91643200Y-105079800D03*
X108898850Y-96393000D03*
X94038950Y-99466400D03*
X84531200Y-105054400D03*
X85039200Y-102260400D03*
X112629850Y-90703400D03*
X92203100Y-101396800D03*
X112606350Y-88925400D03*
X84531200Y-103581200D03*
X88498200Y-106163800D03*
X99779350Y-101727000D03*
X102192350Y-96164400D03*
X112629850Y-87172800D03*
X91998800Y-93806499D03*
X78968600Y-87960200D03*
X81000600Y-99480000D03*
X81584800Y-104267000D03*
X80746600Y-84429600D03*
X85750400Y-94894400D03*
X79194900Y-103164600D03*
X80746600Y-85979000D03*
X80670400Y-104267000D03*
X81000600Y-94580000D03*
X86334444Y-89062240D03*
X100990400Y-86372100D03*
X113715800Y-104978200D03*
X99826133Y-86417610D03*
X101968900Y-100587722D03*
X123723400Y-90728800D03*
X102695005Y-99896170D03*
X123723400Y-94767400D03*
X123723400Y-98780600D03*
X102886750Y-98895500D03*
X90652600Y-99644200D03*
X93091000Y-103022400D03*
X89148768Y-91237869D03*
X100812600Y-93675200D03*
X96477350Y-85852000D03*
X98081858Y-91926909D03*
X88925400Y-86385400D03*
X108821750Y-83185000D03*
X90220800Y-86360000D03*
X88188800Y-91516200D03*
X90271600Y-87452200D03*
X88976200Y-89154000D03*
G04 #@! TA.AperFunction,Conductor*
G36*
X121462766Y-81808502D02*
G01*
X121509259Y-81862158D01*
X121519363Y-81932432D01*
X121489869Y-81997012D01*
X121441029Y-82031652D01*
X121200909Y-82126722D01*
X120936270Y-82272208D01*
X120711365Y-82435611D01*
X120711365Y-82435612D01*
X121538972Y-83263218D01*
X121572997Y-83325531D01*
X121567933Y-83396346D01*
X121527766Y-83451356D01*
X121462261Y-83502870D01*
X121462253Y-83502878D01*
X121369485Y-83609937D01*
X121309758Y-83648320D01*
X121238762Y-83648320D01*
X121185165Y-83616519D01*
X120360111Y-82791464D01*
X120279318Y-82889127D01*
X120279316Y-82889130D01*
X120117511Y-83144095D01*
X120117504Y-83144109D01*
X119988928Y-83417347D01*
X119988926Y-83417351D01*
X119895605Y-83704560D01*
X119895603Y-83704568D01*
X119839018Y-84001199D01*
X119839015Y-84001223D01*
X119820055Y-84302593D01*
X119820055Y-84302606D01*
X119839015Y-84603976D01*
X119839017Y-84603991D01*
X119844548Y-84632988D01*
X119837663Y-84703650D01*
X119793669Y-84759373D01*
X119726533Y-84782465D01*
X119657570Y-84765594D01*
X119619912Y-84732106D01*
X119587951Y-84689411D01*
X119554296Y-84644453D01*
X119445641Y-84563115D01*
X119439081Y-84558204D01*
X119439079Y-84558203D01*
X119439076Y-84558201D01*
X119304233Y-84507909D01*
X119304236Y-84507909D01*
X119244623Y-84501500D01*
X117448885Y-84501500D01*
X117448864Y-84501502D01*
X117389269Y-84507908D01*
X117389268Y-84507908D01*
X117254423Y-84558201D01*
X117254420Y-84558203D01*
X117139203Y-84644453D01*
X117052953Y-84759670D01*
X117052951Y-84759673D01*
X117002659Y-84894515D01*
X116996250Y-84954121D01*
X116996250Y-86749864D01*
X116996252Y-86749885D01*
X117002658Y-86809480D01*
X117002658Y-86809481D01*
X117052951Y-86944326D01*
X117052953Y-86944329D01*
X117139203Y-87059546D01*
X117180548Y-87090496D01*
X117254419Y-87145796D01*
X117254421Y-87145796D01*
X117254423Y-87145798D01*
X117335534Y-87176050D01*
X117382916Y-87193722D01*
X117439752Y-87236268D01*
X117464564Y-87302788D01*
X117449473Y-87372162D01*
X117427981Y-87400873D01*
X117308252Y-87520602D01*
X117308248Y-87520607D01*
X117172716Y-87714167D01*
X117072848Y-87928334D01*
X117072846Y-87928338D01*
X117011687Y-88156588D01*
X116991091Y-88392000D01*
X117011687Y-88627411D01*
X117072846Y-88855661D01*
X117072848Y-88855665D01*
X117172715Y-89069830D01*
X117300272Y-89252001D01*
X117308255Y-89263401D01*
X117475349Y-89430495D01*
X117658567Y-89558786D01*
X117658569Y-89558787D01*
X117702897Y-89614244D01*
X117710206Y-89684863D01*
X117678175Y-89748224D01*
X117658569Y-89765213D01*
X117475352Y-89893502D01*
X117475346Y-89893507D01*
X117308257Y-90060596D01*
X117308248Y-90060607D01*
X117172716Y-90254167D01*
X117072848Y-90468334D01*
X117072846Y-90468338D01*
X117011687Y-90696588D01*
X116991091Y-90932000D01*
X117011687Y-91167411D01*
X117072587Y-91394693D01*
X117072847Y-91395663D01*
X117148836Y-91558622D01*
X117172715Y-91609830D01*
X117300272Y-91792001D01*
X117308255Y-91803401D01*
X117475349Y-91970495D01*
X117548931Y-92022018D01*
X117658569Y-92098787D01*
X117702897Y-92154244D01*
X117710206Y-92224863D01*
X117678175Y-92288224D01*
X117658569Y-92305213D01*
X117475352Y-92433502D01*
X117475346Y-92433507D01*
X117308257Y-92600596D01*
X117308248Y-92600607D01*
X117172716Y-92794167D01*
X117072848Y-93008334D01*
X117072846Y-93008338D01*
X117011687Y-93236588D01*
X116991091Y-93472000D01*
X117011687Y-93707411D01*
X117072846Y-93935661D01*
X117072847Y-93935663D01*
X117167399Y-94138430D01*
X117172715Y-94149830D01*
X117300272Y-94332001D01*
X117308255Y-94343401D01*
X117475349Y-94510495D01*
X117475353Y-94510498D01*
X117475357Y-94510501D01*
X117659004Y-94639092D01*
X117703333Y-94694549D01*
X117710642Y-94765168D01*
X117678612Y-94828529D01*
X117659005Y-94845518D01*
X117475675Y-94973887D01*
X117475669Y-94973892D01*
X117308642Y-95140919D01*
X117308637Y-95140925D01*
X117173150Y-95334421D01*
X117073320Y-95548506D01*
X117073318Y-95548511D01*
X117016113Y-95762000D01*
X117730732Y-95762000D01*
X117798853Y-95782002D01*
X117845346Y-95835658D01*
X117855450Y-95905932D01*
X117851628Y-95923498D01*
X117846750Y-95940110D01*
X117846750Y-96083889D01*
X117851628Y-96100502D01*
X117851628Y-96171498D01*
X117813244Y-96231224D01*
X117748664Y-96260718D01*
X117730732Y-96262000D01*
X117016114Y-96262000D01*
X117073318Y-96475488D01*
X117073320Y-96475493D01*
X117173149Y-96689577D01*
X117173150Y-96689579D01*
X117308636Y-96883073D01*
X117308643Y-96883082D01*
X117475667Y-97050106D01*
X117475671Y-97050109D01*
X117659005Y-97178481D01*
X117703333Y-97233938D01*
X117710642Y-97304557D01*
X117678612Y-97367918D01*
X117659005Y-97384907D01*
X117475352Y-97513502D01*
X117475346Y-97513507D01*
X117308257Y-97680596D01*
X117308248Y-97680607D01*
X117172716Y-97874167D01*
X117072848Y-98088334D01*
X117072846Y-98088338D01*
X117011687Y-98316588D01*
X116991091Y-98551999D01*
X117011687Y-98787411D01*
X117072846Y-99015661D01*
X117072848Y-99015665D01*
X117172715Y-99229830D01*
X117300272Y-99412001D01*
X117308255Y-99423401D01*
X117475349Y-99590495D01*
X117658567Y-99718786D01*
X117658569Y-99718787D01*
X117702897Y-99774244D01*
X117710206Y-99844863D01*
X117678175Y-99908224D01*
X117658569Y-99925213D01*
X117475352Y-100053502D01*
X117475346Y-100053507D01*
X117308257Y-100220596D01*
X117308248Y-100220607D01*
X117172716Y-100414167D01*
X117072848Y-100628334D01*
X117072846Y-100628338D01*
X117011687Y-100856588D01*
X116991091Y-101092000D01*
X117011687Y-101327411D01*
X117072846Y-101555661D01*
X117072847Y-101555663D01*
X117094489Y-101602075D01*
X117172715Y-101769830D01*
X117300272Y-101952001D01*
X117308255Y-101963401D01*
X117475349Y-102130495D01*
X117616451Y-102229296D01*
X117658569Y-102258787D01*
X117702897Y-102314244D01*
X117710206Y-102384863D01*
X117678175Y-102448224D01*
X117658569Y-102465213D01*
X117475352Y-102593502D01*
X117475346Y-102593507D01*
X117308257Y-102760596D01*
X117308248Y-102760607D01*
X117172716Y-102954167D01*
X117072848Y-103168334D01*
X117072846Y-103168338D01*
X117011687Y-103396588D01*
X116994406Y-103594112D01*
X116991091Y-103632000D01*
X116996240Y-103690852D01*
X117011687Y-103867411D01*
X117072846Y-104095661D01*
X117072847Y-104095663D01*
X117081125Y-104113416D01*
X117172715Y-104309830D01*
X117300272Y-104492001D01*
X117308255Y-104503401D01*
X117475349Y-104670495D01*
X117668920Y-104806035D01*
X117883087Y-104905903D01*
X118111342Y-104967063D01*
X118346750Y-104987659D01*
X118582158Y-104967063D01*
X118810413Y-104905903D01*
X119024580Y-104806035D01*
X119218151Y-104670495D01*
X119385245Y-104503401D01*
X119520785Y-104309830D01*
X119620653Y-104095663D01*
X119681813Y-103867408D01*
X119702409Y-103632000D01*
X119681813Y-103396592D01*
X119620653Y-103168337D01*
X119520785Y-102954171D01*
X119520784Y-102954170D01*
X119520783Y-102954167D01*
X119385251Y-102760607D01*
X119385248Y-102760603D01*
X119385245Y-102760599D01*
X119218151Y-102593505D01*
X119034930Y-102465212D01*
X118990603Y-102409756D01*
X118983294Y-102339137D01*
X119015325Y-102275776D01*
X119034931Y-102258787D01*
X119077047Y-102229297D01*
X119218151Y-102130495D01*
X119385245Y-101963401D01*
X119520785Y-101769830D01*
X119620653Y-101555663D01*
X119681813Y-101327408D01*
X119702409Y-101092000D01*
X119681813Y-100856592D01*
X119620653Y-100628337D01*
X119520785Y-100414171D01*
X119520784Y-100414170D01*
X119520783Y-100414167D01*
X119385251Y-100220607D01*
X119385248Y-100220603D01*
X119385245Y-100220599D01*
X119218151Y-100053505D01*
X119159570Y-100012486D01*
X119034931Y-99925212D01*
X118990603Y-99869755D01*
X118983294Y-99799135D01*
X119015325Y-99735775D01*
X119034931Y-99718787D01*
X119218151Y-99590495D01*
X119385245Y-99423401D01*
X119520785Y-99229830D01*
X119620653Y-99015663D01*
X119681813Y-98787408D01*
X119702409Y-98552000D01*
X119681813Y-98316592D01*
X119620653Y-98088337D01*
X119520785Y-97874171D01*
X119520784Y-97874170D01*
X119520783Y-97874167D01*
X119385251Y-97680607D01*
X119385248Y-97680603D01*
X119385245Y-97680599D01*
X119218151Y-97513505D01*
X119218147Y-97513502D01*
X119218142Y-97513498D01*
X119105073Y-97434326D01*
X119034494Y-97384907D01*
X118990166Y-97329451D01*
X118982857Y-97258832D01*
X119014887Y-97195472D01*
X119034494Y-97178482D01*
X119217828Y-97050109D01*
X119217832Y-97050106D01*
X119384856Y-96883082D01*
X119384863Y-96883073D01*
X119520349Y-96689579D01*
X119520350Y-96689577D01*
X119620179Y-96475493D01*
X119620181Y-96475488D01*
X119677386Y-96262000D01*
X118962768Y-96262000D01*
X118894647Y-96241998D01*
X118848154Y-96188342D01*
X118838050Y-96118068D01*
X118841872Y-96100502D01*
X118846750Y-96083889D01*
X118846750Y-95940110D01*
X118841872Y-95923498D01*
X118841872Y-95852502D01*
X118880256Y-95792776D01*
X118944836Y-95763282D01*
X118962768Y-95762000D01*
X119677386Y-95762000D01*
X119620181Y-95548511D01*
X119620179Y-95548506D01*
X119520349Y-95334421D01*
X119384862Y-95140925D01*
X119217827Y-94973889D01*
X119034494Y-94845518D01*
X118990166Y-94790061D01*
X118982857Y-94719442D01*
X119014888Y-94656081D01*
X119034492Y-94639094D01*
X119218151Y-94510495D01*
X119385245Y-94343401D01*
X119520785Y-94149830D01*
X119620653Y-93935663D01*
X119681813Y-93707408D01*
X119702409Y-93472000D01*
X119681813Y-93236592D01*
X119620653Y-93008337D01*
X119520785Y-92794171D01*
X119520784Y-92794170D01*
X119520783Y-92794167D01*
X119385251Y-92600607D01*
X119385248Y-92600603D01*
X119385245Y-92600599D01*
X119218151Y-92433505D01*
X119034930Y-92305212D01*
X118990603Y-92249756D01*
X118983294Y-92179137D01*
X119015325Y-92115776D01*
X119034931Y-92098787D01*
X119106871Y-92048414D01*
X119218151Y-91970495D01*
X119385245Y-91803401D01*
X119520785Y-91609830D01*
X119620653Y-91395663D01*
X119681813Y-91167408D01*
X119702409Y-90932000D01*
X119681813Y-90696592D01*
X119620653Y-90468337D01*
X119520785Y-90254171D01*
X119520784Y-90254170D01*
X119520783Y-90254167D01*
X119385251Y-90060607D01*
X119385248Y-90060603D01*
X119385245Y-90060599D01*
X119218151Y-89893505D01*
X119218147Y-89893502D01*
X119034931Y-89765212D01*
X118990603Y-89709755D01*
X118983294Y-89639135D01*
X119015325Y-89575775D01*
X119034931Y-89558787D01*
X119218151Y-89430495D01*
X119385245Y-89263401D01*
X119520785Y-89069830D01*
X119620653Y-88855663D01*
X119681813Y-88627408D01*
X119702409Y-88392000D01*
X119681813Y-88156592D01*
X119620653Y-87928337D01*
X119520785Y-87714171D01*
X119520784Y-87714170D01*
X119520783Y-87714167D01*
X119385251Y-87520607D01*
X119385247Y-87520602D01*
X119385245Y-87520599D01*
X119265519Y-87400873D01*
X119231493Y-87338561D01*
X119236558Y-87267746D01*
X119279105Y-87210910D01*
X119310579Y-87193723D01*
X119439081Y-87145796D01*
X119554296Y-87059546D01*
X119640546Y-86944331D01*
X119690841Y-86809483D01*
X119697250Y-86749873D01*
X119697249Y-85085692D01*
X119717251Y-85017572D01*
X119770907Y-84971079D01*
X119841181Y-84960975D01*
X119905761Y-84990469D01*
X119943082Y-85046756D01*
X119988926Y-85187848D01*
X119988928Y-85187852D01*
X120117504Y-85461090D01*
X120117511Y-85461104D01*
X120279314Y-85716066D01*
X120279321Y-85716075D01*
X120360112Y-85813733D01*
X121183681Y-84990163D01*
X121245994Y-84956138D01*
X121316809Y-84961202D01*
X121373645Y-85003749D01*
X121375412Y-85006168D01*
X121389694Y-85026224D01*
X121534360Y-85164162D01*
X121569857Y-85225646D01*
X121566479Y-85296562D01*
X121536504Y-85344447D01*
X120711365Y-86169585D01*
X120711365Y-86169587D01*
X120936271Y-86332991D01*
X121200909Y-86478477D01*
X121481687Y-86589646D01*
X121481690Y-86589647D01*
X121774204Y-86664751D01*
X121774203Y-86664751D01*
X122073790Y-86702598D01*
X122073808Y-86702600D01*
X122375792Y-86702600D01*
X122375809Y-86702598D01*
X122675396Y-86664751D01*
X122967909Y-86589647D01*
X122967912Y-86589646D01*
X123248690Y-86478477D01*
X123513328Y-86332991D01*
X123738233Y-86169587D01*
X123738233Y-86169586D01*
X122910627Y-85341981D01*
X122876602Y-85279668D01*
X122881666Y-85208853D01*
X122921833Y-85153843D01*
X122987340Y-85102329D01*
X123080113Y-84995262D01*
X123139839Y-84956879D01*
X123210836Y-84956879D01*
X123264434Y-84988680D01*
X124089487Y-85813733D01*
X124170280Y-85716072D01*
X124332095Y-85461092D01*
X124332095Y-85461090D01*
X124460671Y-85187852D01*
X124460673Y-85187848D01*
X124518467Y-85009981D01*
X124558541Y-84951376D01*
X124623938Y-84923739D01*
X124693894Y-84935846D01*
X124746200Y-84983852D01*
X124764300Y-85048918D01*
X124764300Y-90260452D01*
X124744298Y-90328573D01*
X124690642Y-90375066D01*
X124620368Y-90385170D01*
X124555788Y-90355676D01*
X124529181Y-90323452D01*
X124455934Y-90196585D01*
X124455933Y-90196583D01*
X124329273Y-90055913D01*
X124176132Y-89944650D01*
X124176132Y-89944649D01*
X124035660Y-89882107D01*
X124003203Y-89867656D01*
X124003201Y-89867655D01*
X124003200Y-89867655D01*
X123818046Y-89828300D01*
X123628754Y-89828300D01*
X123443599Y-89867655D01*
X123270667Y-89944649D01*
X123270667Y-89944650D01*
X123117526Y-90055913D01*
X122990866Y-90196583D01*
X122990865Y-90196585D01*
X122896222Y-90360513D01*
X122896218Y-90360521D01*
X122837725Y-90540543D01*
X122817940Y-90728800D01*
X122837725Y-90917056D01*
X122896218Y-91097078D01*
X122896222Y-91097086D01*
X122990865Y-91261014D01*
X122990866Y-91261016D01*
X123117526Y-91401686D01*
X123270667Y-91512949D01*
X123270667Y-91512950D01*
X123277967Y-91516200D01*
X123443597Y-91589944D01*
X123628754Y-91629300D01*
X123818046Y-91629300D01*
X124003203Y-91589944D01*
X124176130Y-91512951D01*
X124176130Y-91512950D01*
X124176132Y-91512950D01*
X124176132Y-91512949D01*
X124329271Y-91401688D01*
X124335569Y-91394694D01*
X124455933Y-91261016D01*
X124455934Y-91261014D01*
X124459972Y-91254021D01*
X124509976Y-91167411D01*
X124529181Y-91134147D01*
X124580563Y-91085154D01*
X124650277Y-91071717D01*
X124716188Y-91098104D01*
X124757370Y-91155936D01*
X124764300Y-91197147D01*
X124764300Y-94299052D01*
X124744298Y-94367173D01*
X124690642Y-94413666D01*
X124620368Y-94423770D01*
X124555788Y-94394276D01*
X124529181Y-94362052D01*
X124455934Y-94235185D01*
X124455933Y-94235183D01*
X124329273Y-94094513D01*
X124176132Y-93983250D01*
X124176132Y-93983249D01*
X124043642Y-93924261D01*
X124003203Y-93906256D01*
X124003201Y-93906255D01*
X124003200Y-93906255D01*
X123818046Y-93866900D01*
X123628754Y-93866900D01*
X123443599Y-93906255D01*
X123270667Y-93983249D01*
X123270667Y-93983250D01*
X123117526Y-94094513D01*
X122990866Y-94235183D01*
X122990865Y-94235185D01*
X122896222Y-94399113D01*
X122896218Y-94399121D01*
X122837725Y-94579143D01*
X122817940Y-94767399D01*
X122837725Y-94955656D01*
X122896218Y-95135678D01*
X122896222Y-95135686D01*
X122990865Y-95299614D01*
X122990866Y-95299616D01*
X123117526Y-95440286D01*
X123270667Y-95551549D01*
X123270667Y-95551550D01*
X123306011Y-95567286D01*
X123443597Y-95628544D01*
X123628754Y-95667900D01*
X123818046Y-95667900D01*
X124003203Y-95628544D01*
X124176130Y-95551551D01*
X124176130Y-95551550D01*
X124176132Y-95551550D01*
X124176132Y-95551549D01*
X124329271Y-95440288D01*
X124341582Y-95426616D01*
X124455933Y-95299616D01*
X124455934Y-95299614D01*
X124477255Y-95262686D01*
X124529180Y-95172747D01*
X124580563Y-95123754D01*
X124650277Y-95110317D01*
X124716188Y-95136704D01*
X124757370Y-95194536D01*
X124764300Y-95235747D01*
X124764300Y-98312252D01*
X124744298Y-98380373D01*
X124690642Y-98426866D01*
X124620368Y-98436970D01*
X124555788Y-98407476D01*
X124529181Y-98375252D01*
X124455934Y-98248385D01*
X124455933Y-98248383D01*
X124329273Y-98107713D01*
X124176132Y-97996450D01*
X124176132Y-97996449D01*
X124050545Y-97940534D01*
X124003203Y-97919456D01*
X124003201Y-97919455D01*
X124003200Y-97919455D01*
X123818046Y-97880100D01*
X123628754Y-97880100D01*
X123443599Y-97919455D01*
X123270667Y-97996449D01*
X123270667Y-97996450D01*
X123117526Y-98107713D01*
X122990866Y-98248383D01*
X122990865Y-98248385D01*
X122896222Y-98412313D01*
X122896218Y-98412321D01*
X122837725Y-98592343D01*
X122817940Y-98780599D01*
X122837725Y-98968856D01*
X122896218Y-99148878D01*
X122896222Y-99148886D01*
X122990865Y-99312814D01*
X122990866Y-99312816D01*
X123117526Y-99453486D01*
X123270667Y-99564749D01*
X123270667Y-99564750D01*
X123302880Y-99579092D01*
X123443597Y-99641744D01*
X123628754Y-99681100D01*
X123818046Y-99681100D01*
X124003203Y-99641744D01*
X124176130Y-99564751D01*
X124176130Y-99564750D01*
X124176132Y-99564750D01*
X124176132Y-99564749D01*
X124329271Y-99453488D01*
X124352475Y-99427718D01*
X124455933Y-99312816D01*
X124455934Y-99312814D01*
X124456285Y-99312207D01*
X124529180Y-99185947D01*
X124580563Y-99136954D01*
X124650277Y-99123517D01*
X124716188Y-99149904D01*
X124757370Y-99207736D01*
X124764300Y-99248947D01*
X124764300Y-104487853D01*
X124744298Y-104555974D01*
X124690642Y-104602467D01*
X124620368Y-104612571D01*
X124555788Y-104583077D01*
X124518467Y-104526790D01*
X124435273Y-104270751D01*
X124435271Y-104270747D01*
X124306695Y-103997509D01*
X124306688Y-103997495D01*
X124144885Y-103742533D01*
X124144878Y-103742524D01*
X124064086Y-103644864D01*
X123240516Y-104468435D01*
X123178204Y-104502461D01*
X123107389Y-104497396D01*
X123050553Y-104454849D01*
X123048785Y-104452428D01*
X123044196Y-104445984D01*
X123034506Y-104432376D01*
X122889838Y-104294435D01*
X122854341Y-104232952D01*
X122857719Y-104162036D01*
X122887694Y-104114150D01*
X123712833Y-103289012D01*
X123712833Y-103289011D01*
X123487933Y-103125611D01*
X123223290Y-102980122D01*
X122942512Y-102868953D01*
X122942509Y-102868952D01*
X122649995Y-102793848D01*
X122649996Y-102793848D01*
X122350409Y-102756001D01*
X122350392Y-102756000D01*
X122048408Y-102756000D01*
X122048390Y-102756001D01*
X121748803Y-102793848D01*
X121456290Y-102868952D01*
X121456287Y-102868953D01*
X121175509Y-102980122D01*
X120910870Y-103125608D01*
X120685965Y-103289011D01*
X120685965Y-103289012D01*
X121513572Y-104116618D01*
X121547597Y-104178931D01*
X121542533Y-104249746D01*
X121502366Y-104304756D01*
X121436861Y-104356270D01*
X121436853Y-104356278D01*
X121344085Y-104463337D01*
X121284358Y-104501720D01*
X121213362Y-104501720D01*
X121159765Y-104469919D01*
X120334711Y-103644864D01*
X120253918Y-103742527D01*
X120253916Y-103742530D01*
X120092111Y-103997495D01*
X120092104Y-103997509D01*
X119963528Y-104270747D01*
X119963526Y-104270751D01*
X119870205Y-104557960D01*
X119870203Y-104557968D01*
X119813618Y-104854599D01*
X119813615Y-104854623D01*
X119794655Y-105155993D01*
X119794655Y-105156006D01*
X119813615Y-105457376D01*
X119813618Y-105457400D01*
X119870203Y-105754031D01*
X119870205Y-105754039D01*
X119963526Y-106041248D01*
X119963528Y-106041252D01*
X120092104Y-106314490D01*
X120092111Y-106314504D01*
X120253914Y-106569466D01*
X120253921Y-106569475D01*
X120334712Y-106667133D01*
X121158281Y-105843563D01*
X121220594Y-105809538D01*
X121291409Y-105814602D01*
X121348245Y-105857149D01*
X121350012Y-105859568D01*
X121364294Y-105879624D01*
X121508960Y-106017562D01*
X121544457Y-106079046D01*
X121541079Y-106149962D01*
X121511104Y-106197847D01*
X120685965Y-107022985D01*
X120685965Y-107022987D01*
X120910871Y-107186391D01*
X121175509Y-107331877D01*
X121456287Y-107443046D01*
X121456305Y-107443051D01*
X121473470Y-107447459D01*
X121534476Y-107483773D01*
X121566165Y-107547306D01*
X121558475Y-107617884D01*
X121513848Y-107673102D01*
X121446452Y-107695426D01*
X121442135Y-107695500D01*
X104448601Y-107695500D01*
X104380480Y-107675498D01*
X104333987Y-107621842D01*
X104323883Y-107551568D01*
X104353377Y-107486988D01*
X104373092Y-107468632D01*
X104376879Y-107465796D01*
X104376881Y-107465796D01*
X104492096Y-107379546D01*
X104578346Y-107264331D01*
X104628641Y-107129483D01*
X104635050Y-107069873D01*
X104635049Y-105274128D01*
X104628641Y-105214517D01*
X104598570Y-105133892D01*
X104578348Y-105079673D01*
X104578346Y-105079670D01*
X104578346Y-105079669D01*
X104517508Y-104998400D01*
X104502386Y-104978199D01*
X112810340Y-104978199D01*
X112830125Y-105166456D01*
X112888618Y-105346478D01*
X112888622Y-105346486D01*
X112983265Y-105510414D01*
X112983266Y-105510416D01*
X113109926Y-105651086D01*
X113263067Y-105762349D01*
X113263067Y-105762350D01*
X113310412Y-105783429D01*
X113435997Y-105839344D01*
X113621154Y-105878700D01*
X113810446Y-105878700D01*
X113995603Y-105839344D01*
X114168530Y-105762351D01*
X114168530Y-105762350D01*
X114168532Y-105762350D01*
X114168532Y-105762349D01*
X114321671Y-105651088D01*
X114339234Y-105631583D01*
X114448333Y-105510416D01*
X114448334Y-105510414D01*
X114542979Y-105346484D01*
X114558515Y-105298671D01*
X114601474Y-105166456D01*
X114602625Y-105155500D01*
X114621260Y-104978200D01*
X114601474Y-104789944D01*
X114562663Y-104670497D01*
X114542981Y-104609921D01*
X114542977Y-104609913D01*
X114539273Y-104603498D01*
X114506255Y-104546309D01*
X114448334Y-104445985D01*
X114448333Y-104445983D01*
X114321673Y-104305313D01*
X114168532Y-104194050D01*
X114168532Y-104194049D01*
X114025012Y-104130150D01*
X113995603Y-104117056D01*
X113995601Y-104117055D01*
X113995600Y-104117055D01*
X113810446Y-104077700D01*
X113621154Y-104077700D01*
X113435999Y-104117055D01*
X113263067Y-104194049D01*
X113263067Y-104194050D01*
X113109926Y-104305313D01*
X112983266Y-104445983D01*
X112983265Y-104445985D01*
X112888622Y-104609913D01*
X112888618Y-104609921D01*
X112830125Y-104789943D01*
X112810340Y-104978199D01*
X104502386Y-104978199D01*
X104492096Y-104964453D01*
X104403456Y-104898098D01*
X104376881Y-104878204D01*
X104376879Y-104878203D01*
X104376876Y-104878201D01*
X104242033Y-104827909D01*
X104242036Y-104827909D01*
X104182423Y-104821500D01*
X102386685Y-104821500D01*
X102386664Y-104821502D01*
X102327069Y-104827908D01*
X102327068Y-104827908D01*
X102192223Y-104878201D01*
X102192220Y-104878203D01*
X102077003Y-104964453D01*
X101990753Y-105079670D01*
X101990752Y-105079671D01*
X101942827Y-105208167D01*
X101900280Y-105265003D01*
X101833760Y-105289814D01*
X101764386Y-105274723D01*
X101735676Y-105253230D01*
X101615953Y-105133507D01*
X101615947Y-105133502D01*
X101422380Y-104997965D01*
X101297834Y-104939888D01*
X101208213Y-104898097D01*
X101208211Y-104898096D01*
X100979961Y-104836937D01*
X100744550Y-104816341D01*
X100509138Y-104836937D01*
X100280888Y-104898096D01*
X100280884Y-104898098D01*
X100066717Y-104997966D01*
X99873157Y-105133498D01*
X99873146Y-105133507D01*
X99706057Y-105300596D01*
X99706052Y-105300602D01*
X99577762Y-105483819D01*
X99522305Y-105528147D01*
X99451685Y-105535456D01*
X99388325Y-105503425D01*
X99371336Y-105483818D01*
X99243051Y-105300607D01*
X99243047Y-105300602D01*
X99243045Y-105300599D01*
X99075951Y-105133505D01*
X98988081Y-105071978D01*
X98882380Y-104997965D01*
X98757834Y-104939888D01*
X98668213Y-104898097D01*
X98668211Y-104898096D01*
X98439961Y-104836937D01*
X98263402Y-104821489D01*
X98204550Y-104816341D01*
X98204549Y-104816341D01*
X97969138Y-104836937D01*
X97740888Y-104898096D01*
X97740884Y-104898098D01*
X97526717Y-104997966D01*
X97333157Y-105133498D01*
X97333146Y-105133507D01*
X97166057Y-105300596D01*
X97166052Y-105300602D01*
X97037457Y-105484255D01*
X96982000Y-105528583D01*
X96911380Y-105535892D01*
X96848020Y-105503861D01*
X96831031Y-105484255D01*
X96702662Y-105300925D01*
X96535626Y-105133888D01*
X96535623Y-105133886D01*
X96342129Y-104998400D01*
X96342127Y-104998399D01*
X96128043Y-104898570D01*
X96128038Y-104898568D01*
X95914550Y-104841364D01*
X95914550Y-105557390D01*
X95894548Y-105625511D01*
X95840892Y-105672004D01*
X95770620Y-105682108D01*
X95712155Y-105673702D01*
X95700313Y-105672000D01*
X95628787Y-105672000D01*
X95616944Y-105673702D01*
X95558480Y-105682108D01*
X95488206Y-105672003D01*
X95434551Y-105625510D01*
X95414550Y-105557390D01*
X95414550Y-104841364D01*
X95201061Y-104898568D01*
X95201056Y-104898570D01*
X94986971Y-104998400D01*
X94793475Y-105133887D01*
X94793469Y-105133892D01*
X94626442Y-105300919D01*
X94626437Y-105300925D01*
X94490950Y-105494421D01*
X94391120Y-105708506D01*
X94391118Y-105708511D01*
X94333913Y-105922000D01*
X95048532Y-105922000D01*
X95116653Y-105942002D01*
X95163146Y-105995658D01*
X95173250Y-106065932D01*
X95169428Y-106083498D01*
X95164550Y-106100110D01*
X95164550Y-106243889D01*
X95169428Y-106260502D01*
X95169428Y-106331498D01*
X95131044Y-106391224D01*
X95066464Y-106420718D01*
X95048532Y-106422000D01*
X94333914Y-106422000D01*
X94391118Y-106635488D01*
X94391120Y-106635493D01*
X94490949Y-106849577D01*
X94490950Y-106849579D01*
X94626436Y-107043073D01*
X94626443Y-107043082D01*
X94793467Y-107210106D01*
X94793476Y-107210113D01*
X94986970Y-107345599D01*
X94986972Y-107345600D01*
X95201056Y-107445429D01*
X95201063Y-107445432D01*
X95209874Y-107447793D01*
X95270497Y-107484744D01*
X95301519Y-107548604D01*
X95293091Y-107619099D01*
X95247889Y-107673846D01*
X95180264Y-107695464D01*
X95177264Y-107695500D01*
X76068265Y-107695500D01*
X76000144Y-107675498D01*
X75953651Y-107621842D01*
X75943547Y-107551568D01*
X75973041Y-107486988D01*
X76032767Y-107448604D01*
X76036930Y-107447459D01*
X76054094Y-107443051D01*
X76054112Y-107443046D01*
X76334890Y-107331877D01*
X76599528Y-107186391D01*
X76824433Y-107022987D01*
X76824433Y-107022986D01*
X75996827Y-106195381D01*
X75962802Y-106133068D01*
X75967866Y-106062253D01*
X76008033Y-106007243D01*
X76073540Y-105955729D01*
X76166313Y-105848662D01*
X76226039Y-105810279D01*
X76297036Y-105810279D01*
X76350634Y-105842080D01*
X77175687Y-106667133D01*
X77256480Y-106569472D01*
X77418295Y-106314492D01*
X77418295Y-106314490D01*
X77489205Y-106163799D01*
X87592740Y-106163799D01*
X87612525Y-106352056D01*
X87671018Y-106532078D01*
X87671022Y-106532086D01*
X87765665Y-106696014D01*
X87765666Y-106696016D01*
X87892326Y-106836686D01*
X88045467Y-106947949D01*
X88045467Y-106947950D01*
X88092812Y-106969029D01*
X88218397Y-107024944D01*
X88403554Y-107064300D01*
X88592846Y-107064300D01*
X88778003Y-107024944D01*
X88950930Y-106947951D01*
X88950930Y-106947950D01*
X88950932Y-106947950D01*
X88950932Y-106947949D01*
X89104071Y-106836688D01*
X89123225Y-106815416D01*
X89230733Y-106696016D01*
X89230734Y-106696014D01*
X89325379Y-106532084D01*
X89333499Y-106507095D01*
X89383874Y-106352056D01*
X89393775Y-106257848D01*
X89403660Y-106163800D01*
X89383874Y-105975544D01*
X89377434Y-105955723D01*
X89325381Y-105795521D01*
X89325377Y-105795513D01*
X89230734Y-105631585D01*
X89230733Y-105631583D01*
X89104073Y-105490913D01*
X88950932Y-105379650D01*
X88950932Y-105379649D01*
X88801815Y-105313258D01*
X88778003Y-105302656D01*
X88778001Y-105302655D01*
X88778000Y-105302655D01*
X88592846Y-105263300D01*
X88403554Y-105263300D01*
X88218399Y-105302655D01*
X88045467Y-105379649D01*
X88045467Y-105379650D01*
X87892326Y-105490913D01*
X87765666Y-105631583D01*
X87765665Y-105631585D01*
X87671022Y-105795513D01*
X87671018Y-105795521D01*
X87612525Y-105975543D01*
X87592740Y-106163799D01*
X77489205Y-106163799D01*
X77546871Y-106041252D01*
X77546873Y-106041248D01*
X77640194Y-105754039D01*
X77640196Y-105754031D01*
X77696781Y-105457400D01*
X77696784Y-105457376D01*
X77715745Y-105156006D01*
X77715745Y-105155993D01*
X77696784Y-104854623D01*
X77696781Y-104854599D01*
X77640196Y-104557968D01*
X77640194Y-104557960D01*
X77546873Y-104270751D01*
X77546871Y-104270747D01*
X77418295Y-103997509D01*
X77418288Y-103997495D01*
X77256485Y-103742533D01*
X77256478Y-103742524D01*
X77175686Y-103644864D01*
X76352116Y-104468435D01*
X76289804Y-104502461D01*
X76218989Y-104497396D01*
X76162153Y-104454849D01*
X76160385Y-104452428D01*
X76155796Y-104445984D01*
X76146106Y-104432376D01*
X76001438Y-104294435D01*
X75965941Y-104232952D01*
X75969319Y-104162036D01*
X75999294Y-104114150D01*
X76824433Y-103289012D01*
X76824433Y-103289011D01*
X76599533Y-103125611D01*
X76334890Y-102980122D01*
X76054112Y-102868953D01*
X76054109Y-102868952D01*
X75761595Y-102793848D01*
X75761596Y-102793848D01*
X75462009Y-102756001D01*
X75461992Y-102756000D01*
X75160008Y-102756000D01*
X75159990Y-102756001D01*
X74860403Y-102793848D01*
X74567890Y-102868952D01*
X74567887Y-102868953D01*
X74287109Y-102980122D01*
X74022470Y-103125608D01*
X73797565Y-103289011D01*
X73797565Y-103289012D01*
X74625172Y-104116618D01*
X74659197Y-104178931D01*
X74654133Y-104249746D01*
X74613966Y-104304756D01*
X74548461Y-104356270D01*
X74548453Y-104356278D01*
X74455685Y-104463337D01*
X74395958Y-104501720D01*
X74324962Y-104501720D01*
X74271365Y-104469919D01*
X73446311Y-103644864D01*
X73365518Y-103742527D01*
X73365516Y-103742530D01*
X73203711Y-103997495D01*
X73203704Y-103997509D01*
X73075128Y-104270747D01*
X73075126Y-104270751D01*
X73017333Y-104448618D01*
X72977259Y-104507223D01*
X72911862Y-104534860D01*
X72841905Y-104522753D01*
X72789600Y-104474746D01*
X72771500Y-104409681D01*
X72771500Y-101400935D01*
X73092230Y-101400935D01*
X73107756Y-101502277D01*
X73123044Y-101602071D01*
X73151312Y-101678397D01*
X73193711Y-101792881D01*
X73193715Y-101792889D01*
X73301344Y-101965566D01*
X73301354Y-101965579D01*
X73424644Y-102095278D01*
X73441541Y-102113053D01*
X73450222Y-102119095D01*
X73608552Y-102229296D01*
X73608553Y-102229297D01*
X73795538Y-102309539D01*
X73795541Y-102309539D01*
X73795542Y-102309540D01*
X73994859Y-102350500D01*
X73994860Y-102350500D01*
X74747341Y-102350500D01*
X74747342Y-102350500D01*
X74747343Y-102350499D01*
X74747360Y-102350499D01*
X74841433Y-102340931D01*
X74899038Y-102335074D01*
X75093188Y-102274159D01*
X75271102Y-102175409D01*
X75271103Y-102175408D01*
X75271105Y-102175407D01*
X75394254Y-102069686D01*
X75425495Y-102042866D01*
X75550048Y-101881958D01*
X75625478Y-101728183D01*
X75639658Y-101699276D01*
X75639658Y-101699274D01*
X75639660Y-101699271D01*
X75690663Y-101502285D01*
X75695803Y-101400935D01*
X77022230Y-101400935D01*
X77037756Y-101502277D01*
X77053044Y-101602071D01*
X77081312Y-101678397D01*
X77123711Y-101792881D01*
X77123715Y-101792889D01*
X77231344Y-101965566D01*
X77231354Y-101965579D01*
X77354644Y-102095278D01*
X77371541Y-102113053D01*
X77380222Y-102119095D01*
X77538552Y-102229296D01*
X77538553Y-102229297D01*
X77725538Y-102309539D01*
X77725541Y-102309539D01*
X77725542Y-102309540D01*
X77924859Y-102350500D01*
X78433176Y-102350500D01*
X78501297Y-102370502D01*
X78547790Y-102424158D01*
X78557894Y-102494432D01*
X78528400Y-102559012D01*
X78526812Y-102560811D01*
X78462364Y-102632387D01*
X78367722Y-102796313D01*
X78367718Y-102796321D01*
X78309225Y-102976343D01*
X78289440Y-103164600D01*
X78309225Y-103352856D01*
X78367718Y-103532878D01*
X78367722Y-103532886D01*
X78462365Y-103696814D01*
X78462366Y-103696816D01*
X78589026Y-103837486D01*
X78742167Y-103948749D01*
X78742167Y-103948750D01*
X78783382Y-103967100D01*
X78915097Y-104025744D01*
X79100254Y-104065100D01*
X79289546Y-104065100D01*
X79474703Y-104025744D01*
X79606418Y-103967099D01*
X79676784Y-103957665D01*
X79741082Y-103987771D01*
X79778895Y-104047859D01*
X79782977Y-104095375D01*
X79764940Y-104266999D01*
X79784725Y-104455256D01*
X79843218Y-104635278D01*
X79843222Y-104635286D01*
X79937865Y-104799214D01*
X79937866Y-104799216D01*
X80064526Y-104939886D01*
X80217667Y-105051149D01*
X80217667Y-105051150D01*
X80264448Y-105071978D01*
X80390597Y-105128144D01*
X80575754Y-105167500D01*
X80765046Y-105167500D01*
X80950203Y-105128144D01*
X81076352Y-105071977D01*
X81146718Y-105062544D01*
X81178844Y-105071976D01*
X81304997Y-105128144D01*
X81490154Y-105167500D01*
X81679446Y-105167500D01*
X81864603Y-105128144D01*
X82030233Y-105054400D01*
X83625740Y-105054400D01*
X83645525Y-105242656D01*
X83704018Y-105422678D01*
X83704022Y-105422686D01*
X83798665Y-105586614D01*
X83798666Y-105586616D01*
X83925326Y-105727286D01*
X84078467Y-105838549D01*
X84078467Y-105838550D01*
X84120241Y-105857149D01*
X84251397Y-105915544D01*
X84436554Y-105954900D01*
X84625846Y-105954900D01*
X84811003Y-105915544D01*
X84983930Y-105838551D01*
X84983930Y-105838550D01*
X84983932Y-105838550D01*
X84983932Y-105838549D01*
X85137071Y-105727288D01*
X85153983Y-105708506D01*
X85263733Y-105586616D01*
X85263734Y-105586614D01*
X85266271Y-105582220D01*
X85358379Y-105422684D01*
X85416874Y-105242656D01*
X85436660Y-105054400D01*
X85416874Y-104866144D01*
X85413123Y-104854599D01*
X85358381Y-104686121D01*
X85358377Y-104686113D01*
X85342779Y-104659097D01*
X85283242Y-104555974D01*
X85263735Y-104522187D01*
X85263734Y-104522186D01*
X85263733Y-104522184D01*
X85155617Y-104402109D01*
X85124901Y-104338103D01*
X85133664Y-104267650D01*
X85155616Y-104233490D01*
X85263733Y-104113416D01*
X85358379Y-103949484D01*
X85358618Y-103948750D01*
X85416874Y-103769456D01*
X85416874Y-103769455D01*
X85436660Y-103581200D01*
X85416874Y-103392944D01*
X85362523Y-103225672D01*
X85360496Y-103154706D01*
X85397159Y-103093908D01*
X85431106Y-103071631D01*
X85491930Y-103044551D01*
X85645071Y-102933288D01*
X85767742Y-102797049D01*
X85771733Y-102792616D01*
X85771734Y-102792614D01*
X85790218Y-102760599D01*
X85866379Y-102628684D01*
X85924874Y-102448656D01*
X85944660Y-102260400D01*
X85924874Y-102072144D01*
X85924076Y-102069688D01*
X85866381Y-101892121D01*
X85866377Y-101892113D01*
X85860512Y-101881955D01*
X85829655Y-101828509D01*
X85771734Y-101728185D01*
X85771733Y-101728183D01*
X85645073Y-101587513D01*
X85491932Y-101476250D01*
X85491932Y-101476249D01*
X85322776Y-101400936D01*
X85319003Y-101399256D01*
X85319001Y-101399255D01*
X85319000Y-101399255D01*
X85307445Y-101396799D01*
X91297640Y-101396799D01*
X91317425Y-101585056D01*
X91375918Y-101765078D01*
X91375922Y-101765086D01*
X91470565Y-101929014D01*
X91470566Y-101929016D01*
X91597226Y-102069686D01*
X91750367Y-102180949D01*
X91750367Y-102180950D01*
X91759711Y-102185110D01*
X91923297Y-102257944D01*
X92108454Y-102297300D01*
X92251590Y-102297300D01*
X92319711Y-102317302D01*
X92366204Y-102370958D01*
X92376308Y-102441232D01*
X92360709Y-102486300D01*
X92263821Y-102654114D01*
X92263818Y-102654121D01*
X92205325Y-102834143D01*
X92185540Y-103022399D01*
X92205325Y-103210656D01*
X92263818Y-103390678D01*
X92263822Y-103390686D01*
X92358465Y-103554614D01*
X92358466Y-103554616D01*
X92485126Y-103695286D01*
X92638267Y-103806549D01*
X92638267Y-103806550D01*
X92685612Y-103827629D01*
X92811197Y-103883544D01*
X92996354Y-103922900D01*
X93185646Y-103922900D01*
X93370803Y-103883544D01*
X93543730Y-103806551D01*
X93543730Y-103806550D01*
X93543732Y-103806550D01*
X93543732Y-103806549D01*
X93696871Y-103695288D01*
X93764121Y-103620600D01*
X109371091Y-103620600D01*
X109391687Y-103856011D01*
X109452846Y-104084261D01*
X109452848Y-104084265D01*
X109552715Y-104298430D01*
X109685350Y-104487853D01*
X109688255Y-104492001D01*
X109855349Y-104659095D01*
X110048920Y-104794635D01*
X110263087Y-104894503D01*
X110491342Y-104955663D01*
X110726750Y-104976259D01*
X110962158Y-104955663D01*
X111190413Y-104894503D01*
X111404580Y-104794635D01*
X111598151Y-104659095D01*
X111765245Y-104492001D01*
X111900785Y-104298430D01*
X112000653Y-104084263D01*
X112061813Y-103856008D01*
X112082409Y-103620600D01*
X112061813Y-103385192D01*
X112000653Y-103156937D01*
X111900785Y-102942771D01*
X111900784Y-102942770D01*
X111900783Y-102942767D01*
X111765251Y-102749207D01*
X111765248Y-102749203D01*
X111765245Y-102749199D01*
X111598151Y-102582105D01*
X111414930Y-102453812D01*
X111370603Y-102398356D01*
X111363294Y-102327737D01*
X111395325Y-102264376D01*
X111414931Y-102247387D01*
X111427980Y-102238250D01*
X111598151Y-102119095D01*
X111765245Y-101952001D01*
X111900785Y-101758430D01*
X112000653Y-101544263D01*
X112061813Y-101316008D01*
X112082409Y-101080600D01*
X112061813Y-100845192D01*
X112000653Y-100616937D01*
X111900785Y-100402771D01*
X111900784Y-100402770D01*
X111900783Y-100402767D01*
X111765251Y-100209207D01*
X111765248Y-100209203D01*
X111765245Y-100209199D01*
X111598151Y-100042105D01*
X111598147Y-100042102D01*
X111598142Y-100042098D01*
X111414931Y-99913813D01*
X111370602Y-99858356D01*
X111363293Y-99787737D01*
X111395323Y-99724376D01*
X111414931Y-99707387D01*
X111598151Y-99579095D01*
X111765245Y-99412001D01*
X111900785Y-99218430D01*
X112000653Y-99004263D01*
X112061813Y-98776008D01*
X112082409Y-98540600D01*
X112061813Y-98305192D01*
X112000653Y-98076937D01*
X111900785Y-97862771D01*
X111900784Y-97862770D01*
X111900783Y-97862767D01*
X111765251Y-97669207D01*
X111765248Y-97669203D01*
X111765245Y-97669199D01*
X111598151Y-97502105D01*
X111414930Y-97373812D01*
X111370603Y-97318356D01*
X111363294Y-97247737D01*
X111395325Y-97184376D01*
X111414931Y-97167387D01*
X111598151Y-97039095D01*
X111765245Y-96872001D01*
X111900785Y-96678430D01*
X112000653Y-96464263D01*
X112061813Y-96236008D01*
X112082409Y-96000600D01*
X112061813Y-95765192D01*
X112000653Y-95536937D01*
X111900785Y-95322771D01*
X111900784Y-95322770D01*
X111900783Y-95322767D01*
X111765251Y-95129207D01*
X111765248Y-95129203D01*
X111765245Y-95129199D01*
X111598151Y-94962105D01*
X111588941Y-94955656D01*
X111414931Y-94833812D01*
X111370603Y-94778355D01*
X111363294Y-94707735D01*
X111395325Y-94644375D01*
X111414931Y-94627387D01*
X111598151Y-94499095D01*
X111765245Y-94332001D01*
X111900785Y-94138430D01*
X112000653Y-93924263D01*
X112061813Y-93696008D01*
X112082409Y-93460600D01*
X112061813Y-93225192D01*
X112000653Y-92996937D01*
X111900785Y-92782771D01*
X111900784Y-92782770D01*
X111900783Y-92782767D01*
X111765251Y-92589207D01*
X111765248Y-92589203D01*
X111765245Y-92589199D01*
X111598151Y-92422105D01*
X111414930Y-92293812D01*
X111370603Y-92238356D01*
X111363294Y-92167737D01*
X111395325Y-92104376D01*
X111414931Y-92087387D01*
X111598151Y-91959095D01*
X111765245Y-91792001D01*
X111900785Y-91598430D01*
X111944737Y-91504174D01*
X111991653Y-91450891D01*
X112059930Y-91431430D01*
X112127890Y-91451972D01*
X112132993Y-91455491D01*
X112177115Y-91487548D01*
X112177117Y-91487550D01*
X112214460Y-91504176D01*
X112350047Y-91564544D01*
X112535204Y-91603900D01*
X112724496Y-91603900D01*
X112909653Y-91564544D01*
X113082580Y-91487551D01*
X113082580Y-91487550D01*
X113082582Y-91487550D01*
X113082582Y-91487549D01*
X113235721Y-91376288D01*
X113339515Y-91261014D01*
X113362383Y-91235616D01*
X113362384Y-91235614D01*
X113401761Y-91167411D01*
X113457029Y-91071684D01*
X113515524Y-90891656D01*
X113535310Y-90703400D01*
X113515524Y-90515144D01*
X113500316Y-90468338D01*
X113457031Y-90335121D01*
X113457027Y-90335113D01*
X113362384Y-90171185D01*
X113362383Y-90171183D01*
X113235723Y-90030513D01*
X113082582Y-89919250D01*
X113076863Y-89915948D01*
X113078384Y-89913312D01*
X113034338Y-89875888D01*
X113013677Y-89807964D01*
X113033018Y-89739652D01*
X113065610Y-89704807D01*
X113140221Y-89650599D01*
X113212221Y-89598288D01*
X113215672Y-89594456D01*
X113338883Y-89457616D01*
X113338884Y-89457614D01*
X113354523Y-89430526D01*
X113433529Y-89293684D01*
X113492024Y-89113656D01*
X113511810Y-88925400D01*
X113494103Y-88756929D01*
X113492024Y-88737143D01*
X113433531Y-88557121D01*
X113433527Y-88557113D01*
X113338884Y-88393185D01*
X113338883Y-88393183D01*
X113212223Y-88252513D01*
X113084301Y-88159572D01*
X113040947Y-88103349D01*
X113034872Y-88032613D01*
X113068004Y-87969822D01*
X113084295Y-87955704D01*
X113235721Y-87845688D01*
X113302122Y-87771943D01*
X113362383Y-87705016D01*
X113362384Y-87705014D01*
X113386068Y-87663992D01*
X113457029Y-87541084D01*
X113515524Y-87361056D01*
X113535310Y-87172800D01*
X113515524Y-86984544D01*
X113515524Y-86984543D01*
X113457031Y-86804521D01*
X113457027Y-86804513D01*
X113446277Y-86785894D01*
X113412851Y-86727998D01*
X113362384Y-86640585D01*
X113362383Y-86640583D01*
X113235723Y-86499913D01*
X113082582Y-86388650D01*
X113082582Y-86388649D01*
X112956995Y-86332734D01*
X112909653Y-86311656D01*
X112909651Y-86311655D01*
X112909650Y-86311655D01*
X112724496Y-86272300D01*
X112535204Y-86272300D01*
X112350049Y-86311655D01*
X112350046Y-86311656D01*
X112350047Y-86311656D01*
X112254496Y-86354198D01*
X112184131Y-86363632D01*
X112119834Y-86333526D01*
X112082020Y-86273437D01*
X112077249Y-86239091D01*
X112077249Y-84942735D01*
X112077249Y-84942728D01*
X112070841Y-84883117D01*
X112035005Y-84787035D01*
X112020548Y-84748273D01*
X112020546Y-84748270D01*
X112020546Y-84748269D01*
X111976485Y-84689411D01*
X111934296Y-84633053D01*
X111857341Y-84575445D01*
X111819081Y-84546804D01*
X111819079Y-84546803D01*
X111819076Y-84546801D01*
X111684233Y-84496509D01*
X111684236Y-84496509D01*
X111624623Y-84490100D01*
X109828885Y-84490100D01*
X109828864Y-84490102D01*
X109769269Y-84496508D01*
X109769268Y-84496508D01*
X109634423Y-84546801D01*
X109634420Y-84546803D01*
X109519203Y-84633053D01*
X109432953Y-84748270D01*
X109432951Y-84748273D01*
X109382659Y-84883115D01*
X109376250Y-84942721D01*
X109376250Y-86738464D01*
X109376252Y-86738485D01*
X109382658Y-86798080D01*
X109382658Y-86798081D01*
X109432951Y-86932926D01*
X109432953Y-86932929D01*
X109432954Y-86932931D01*
X109441487Y-86944329D01*
X109519203Y-87048146D01*
X109566881Y-87083837D01*
X109634419Y-87134396D01*
X109634421Y-87134396D01*
X109634423Y-87134398D01*
X109693015Y-87156251D01*
X109762916Y-87182322D01*
X109819752Y-87224868D01*
X109844564Y-87291388D01*
X109829473Y-87360762D01*
X109807981Y-87389473D01*
X109688252Y-87509202D01*
X109688248Y-87509207D01*
X109552716Y-87702767D01*
X109452848Y-87916934D01*
X109452846Y-87916938D01*
X109391687Y-88145188D01*
X109371091Y-88380599D01*
X109391687Y-88616011D01*
X109452846Y-88844261D01*
X109452847Y-88844263D01*
X109552715Y-89058430D01*
X109688255Y-89252001D01*
X109855349Y-89419095D01*
X110002709Y-89522278D01*
X110038569Y-89547387D01*
X110082897Y-89602844D01*
X110090206Y-89673463D01*
X110058175Y-89736824D01*
X110038569Y-89753813D01*
X109855352Y-89882102D01*
X109855346Y-89882107D01*
X109688257Y-90049196D01*
X109688248Y-90049207D01*
X109552716Y-90242767D01*
X109452848Y-90456934D01*
X109452846Y-90456938D01*
X109391687Y-90685188D01*
X109371091Y-90920599D01*
X109391687Y-91156011D01*
X109452846Y-91384261D01*
X109452848Y-91384265D01*
X109552715Y-91598430D01*
X109659167Y-91750460D01*
X109688255Y-91792001D01*
X109855349Y-91959095D01*
X109982912Y-92048416D01*
X110038569Y-92087387D01*
X110082897Y-92142844D01*
X110090206Y-92213463D01*
X110058175Y-92276824D01*
X110038569Y-92293813D01*
X109855352Y-92422102D01*
X109855346Y-92422107D01*
X109688257Y-92589196D01*
X109688248Y-92589207D01*
X109552716Y-92782767D01*
X109452848Y-92996934D01*
X109452846Y-92996938D01*
X109391687Y-93225188D01*
X109371091Y-93460599D01*
X109391687Y-93696011D01*
X109452846Y-93924261D01*
X109452847Y-93924263D01*
X109510446Y-94047784D01*
X109552715Y-94138430D01*
X109601019Y-94207416D01*
X109688255Y-94332001D01*
X109855349Y-94499095D01*
X110038567Y-94627386D01*
X110038569Y-94627387D01*
X110082897Y-94682844D01*
X110090206Y-94753463D01*
X110058175Y-94816824D01*
X110038569Y-94833813D01*
X109855352Y-94962102D01*
X109855346Y-94962107D01*
X109688257Y-95129196D01*
X109688248Y-95129207D01*
X109552716Y-95322767D01*
X109452848Y-95536934D01*
X109452846Y-95536938D01*
X109391687Y-95765188D01*
X109371091Y-96000599D01*
X109391687Y-96236011D01*
X109422942Y-96352656D01*
X109452847Y-96464263D01*
X109552715Y-96678430D01*
X109688255Y-96872001D01*
X109855349Y-97039095D01*
X109855352Y-97039097D01*
X110038569Y-97167387D01*
X110082897Y-97222844D01*
X110090206Y-97293463D01*
X110058175Y-97356824D01*
X110038569Y-97373813D01*
X109855352Y-97502102D01*
X109855346Y-97502107D01*
X109688257Y-97669196D01*
X109688248Y-97669207D01*
X109552716Y-97862767D01*
X109452848Y-98076934D01*
X109452846Y-98076938D01*
X109391687Y-98305188D01*
X109371091Y-98540599D01*
X109391687Y-98776011D01*
X109444018Y-98971313D01*
X109452847Y-99004263D01*
X109552715Y-99218430D01*
X109688255Y-99412001D01*
X109855349Y-99579095D01*
X110028747Y-99700510D01*
X110038569Y-99707387D01*
X110082897Y-99762844D01*
X110090206Y-99833463D01*
X110058175Y-99896824D01*
X110038569Y-99913813D01*
X109855352Y-100042102D01*
X109855346Y-100042107D01*
X109688257Y-100209196D01*
X109688248Y-100209207D01*
X109552716Y-100402767D01*
X109452848Y-100616934D01*
X109452846Y-100616938D01*
X109391687Y-100845188D01*
X109371091Y-101080600D01*
X109391687Y-101316011D01*
X109451368Y-101538744D01*
X109452847Y-101544263D01*
X109479803Y-101602071D01*
X109552715Y-101758430D01*
X109646326Y-101892121D01*
X109688255Y-101952001D01*
X109855349Y-102119095D01*
X110025518Y-102238249D01*
X110038569Y-102247387D01*
X110082897Y-102302844D01*
X110090206Y-102373463D01*
X110058175Y-102436824D01*
X110038569Y-102453813D01*
X109855352Y-102582102D01*
X109855346Y-102582107D01*
X109688257Y-102749196D01*
X109688248Y-102749207D01*
X109552716Y-102942767D01*
X109452848Y-103156934D01*
X109452846Y-103156938D01*
X109391687Y-103385188D01*
X109371091Y-103620600D01*
X93764121Y-103620600D01*
X93764122Y-103620599D01*
X93823533Y-103554616D01*
X93823534Y-103554614D01*
X93864967Y-103482850D01*
X93918179Y-103390684D01*
X93919964Y-103385192D01*
X93976674Y-103210656D01*
X93996460Y-103022400D01*
X93976674Y-102834144D01*
X93976674Y-102834143D01*
X93918181Y-102654121D01*
X93918177Y-102654114D01*
X93876602Y-102582102D01*
X93823534Y-102490185D01*
X93823533Y-102490183D01*
X93696873Y-102349513D01*
X93543732Y-102238250D01*
X93543732Y-102238249D01*
X93402591Y-102175409D01*
X93370803Y-102161256D01*
X93370801Y-102161255D01*
X93370800Y-102161255D01*
X93185646Y-102121900D01*
X93042510Y-102121900D01*
X92974389Y-102101898D01*
X92927896Y-102048242D01*
X92917792Y-101977968D01*
X92933391Y-101932900D01*
X93027539Y-101769830D01*
X93030279Y-101765084D01*
X93042653Y-101727000D01*
X98873890Y-101727000D01*
X98893675Y-101915256D01*
X98952168Y-102095278D01*
X98952172Y-102095286D01*
X99046815Y-102259214D01*
X99046816Y-102259216D01*
X99173476Y-102399886D01*
X99326617Y-102511149D01*
X99326617Y-102511150D01*
X99373962Y-102532229D01*
X99499547Y-102588144D01*
X99684704Y-102627500D01*
X99873996Y-102627500D01*
X100059153Y-102588144D01*
X100232080Y-102511151D01*
X100232080Y-102511150D01*
X100232082Y-102511150D01*
X100232082Y-102511149D01*
X100385221Y-102399888D01*
X100386601Y-102398356D01*
X100511883Y-102259216D01*
X100511884Y-102259214D01*
X100518712Y-102247387D01*
X100606529Y-102095284D01*
X100665024Y-101915256D01*
X100684810Y-101727000D01*
X100665024Y-101538744D01*
X100653175Y-101502277D01*
X100606531Y-101358721D01*
X100606527Y-101358713D01*
X100581871Y-101316008D01*
X100549888Y-101260610D01*
X100511884Y-101194785D01*
X100511883Y-101194783D01*
X100385223Y-101054113D01*
X100232082Y-100942850D01*
X100232082Y-100942849D01*
X100106495Y-100886934D01*
X100059153Y-100865856D01*
X100059151Y-100865855D01*
X100059150Y-100865855D01*
X99873996Y-100826500D01*
X99684704Y-100826500D01*
X99499549Y-100865855D01*
X99326617Y-100942849D01*
X99326617Y-100942850D01*
X99173476Y-101054113D01*
X99046816Y-101194783D01*
X99046815Y-101194785D01*
X98952172Y-101358713D01*
X98952168Y-101358721D01*
X98893675Y-101538743D01*
X98873890Y-101727000D01*
X93042653Y-101727000D01*
X93088774Y-101585056D01*
X93108560Y-101396800D01*
X93088774Y-101208544D01*
X93085257Y-101197719D01*
X93030281Y-101028521D01*
X93030277Y-101028513D01*
X92935634Y-100864585D01*
X92935633Y-100864583D01*
X92808973Y-100723913D01*
X92655832Y-100612650D01*
X92655832Y-100612649D01*
X92599845Y-100587722D01*
X101063440Y-100587722D01*
X101083225Y-100775978D01*
X101141718Y-100956000D01*
X101141722Y-100956008D01*
X101236365Y-101119936D01*
X101236366Y-101119938D01*
X101363026Y-101260608D01*
X101516167Y-101371871D01*
X101516167Y-101371872D01*
X101563512Y-101392951D01*
X101689097Y-101448866D01*
X101874254Y-101488222D01*
X102063546Y-101488222D01*
X102248703Y-101448866D01*
X102421630Y-101371873D01*
X102421630Y-101371872D01*
X102421632Y-101371872D01*
X102421632Y-101371871D01*
X102574771Y-101260610D01*
X102621653Y-101208543D01*
X102701433Y-101119938D01*
X102701434Y-101119936D01*
X102717563Y-101092000D01*
X102796079Y-100956006D01*
X102825371Y-100865856D01*
X102829688Y-100852568D01*
X102869761Y-100793962D01*
X102923324Y-100768256D01*
X102974808Y-100757314D01*
X102974813Y-100757311D01*
X102974818Y-100757310D01*
X103147729Y-100680324D01*
X103147730Y-100680322D01*
X103147735Y-100680321D01*
X103300876Y-100569058D01*
X103330952Y-100535656D01*
X103427538Y-100428386D01*
X103427539Y-100428384D01*
X103444235Y-100399466D01*
X103522184Y-100264454D01*
X103522283Y-100264151D01*
X103580679Y-100084426D01*
X103583718Y-100055507D01*
X103600465Y-99896170D01*
X103580679Y-99707914D01*
X103578273Y-99700510D01*
X103546495Y-99602706D01*
X103544467Y-99531739D01*
X103572691Y-99479460D01*
X103619283Y-99427716D01*
X103713929Y-99263784D01*
X103728666Y-99218430D01*
X103772424Y-99083756D01*
X103779580Y-99015665D01*
X103792210Y-98895500D01*
X103772424Y-98707244D01*
X103743705Y-98618856D01*
X103713931Y-98527221D01*
X103713927Y-98527213D01*
X103619284Y-98363285D01*
X103619283Y-98363283D01*
X103492623Y-98222613D01*
X103339482Y-98111350D01*
X103339482Y-98111349D01*
X103213895Y-98055434D01*
X103166553Y-98034356D01*
X103166551Y-98034355D01*
X103166550Y-98034355D01*
X102981396Y-97995000D01*
X102792104Y-97995000D01*
X102606949Y-98034355D01*
X102434017Y-98111349D01*
X102434017Y-98111350D01*
X102280876Y-98222613D01*
X102154216Y-98363283D01*
X102154215Y-98363285D01*
X102059572Y-98527213D01*
X102059568Y-98527221D01*
X102001075Y-98707243D01*
X101981290Y-98895499D01*
X102001075Y-99083753D01*
X102001077Y-99083761D01*
X102035259Y-99188962D01*
X102037287Y-99259930D01*
X102009064Y-99312207D01*
X101962471Y-99363954D01*
X101962470Y-99363956D01*
X101867829Y-99527880D01*
X101867827Y-99527884D01*
X101834216Y-99631325D01*
X101794141Y-99689930D01*
X101740582Y-99715633D01*
X101689102Y-99726576D01*
X101689097Y-99726577D01*
X101689097Y-99726578D01*
X101664059Y-99737725D01*
X101516167Y-99803571D01*
X101516167Y-99803572D01*
X101363026Y-99914835D01*
X101236366Y-100055505D01*
X101236365Y-100055507D01*
X101141722Y-100219435D01*
X101141718Y-100219443D01*
X101083225Y-100399465D01*
X101063440Y-100587722D01*
X92599845Y-100587722D01*
X92530245Y-100556734D01*
X92482903Y-100535656D01*
X92482901Y-100535655D01*
X92482900Y-100535655D01*
X92297746Y-100496300D01*
X92108454Y-100496300D01*
X91923299Y-100535655D01*
X91750367Y-100612649D01*
X91750367Y-100612650D01*
X91597226Y-100723913D01*
X91470566Y-100864583D01*
X91470565Y-100864585D01*
X91375922Y-101028513D01*
X91375918Y-101028521D01*
X91317425Y-101208543D01*
X91297640Y-101396799D01*
X85307445Y-101396799D01*
X85133846Y-101359900D01*
X84944554Y-101359900D01*
X84759399Y-101399255D01*
X84586467Y-101476249D01*
X84586467Y-101476250D01*
X84433326Y-101587513D01*
X84306666Y-101728183D01*
X84306665Y-101728185D01*
X84212022Y-101892113D01*
X84212018Y-101892121D01*
X84153525Y-102072143D01*
X84133740Y-102260400D01*
X84153525Y-102448656D01*
X84207875Y-102615926D01*
X84209903Y-102686893D01*
X84173240Y-102747691D01*
X84139292Y-102769968D01*
X84078472Y-102797047D01*
X84078467Y-102797050D01*
X83925326Y-102908313D01*
X83798666Y-103048983D01*
X83798665Y-103048985D01*
X83704022Y-103212913D01*
X83704018Y-103212921D01*
X83645525Y-103392943D01*
X83625740Y-103581199D01*
X83645525Y-103769456D01*
X83704018Y-103949478D01*
X83704022Y-103949486D01*
X83798665Y-104113414D01*
X83798666Y-104113416D01*
X83906781Y-104233490D01*
X83937499Y-104297497D01*
X83928734Y-104367951D01*
X83906781Y-104402110D01*
X83798666Y-104522183D01*
X83798665Y-104522185D01*
X83704022Y-104686113D01*
X83704018Y-104686121D01*
X83645525Y-104866143D01*
X83625740Y-105054400D01*
X82030233Y-105054400D01*
X82037530Y-105051151D01*
X82037530Y-105051150D01*
X82037532Y-105051150D01*
X82037532Y-105051149D01*
X82190671Y-104939888D01*
X82257072Y-104866143D01*
X82317333Y-104799216D01*
X82317334Y-104799214D01*
X82322687Y-104789943D01*
X82411979Y-104635284D01*
X82470474Y-104455256D01*
X82490260Y-104267000D01*
X82470474Y-104078744D01*
X82470135Y-104077700D01*
X82411981Y-103898721D01*
X82411977Y-103898713D01*
X82387321Y-103856008D01*
X82358767Y-103806550D01*
X82317334Y-103734785D01*
X82317333Y-103734783D01*
X82190673Y-103594113D01*
X82037532Y-103482850D01*
X82037532Y-103482849D01*
X81911945Y-103426934D01*
X81864603Y-103405856D01*
X81864601Y-103405855D01*
X81864600Y-103405855D01*
X81679446Y-103366500D01*
X81490154Y-103366500D01*
X81304999Y-103405855D01*
X81178849Y-103462021D01*
X81108482Y-103471455D01*
X81076351Y-103462021D01*
X81008293Y-103431719D01*
X80950203Y-103405856D01*
X80950201Y-103405855D01*
X80950200Y-103405855D01*
X80765046Y-103366500D01*
X80575754Y-103366500D01*
X80390599Y-103405855D01*
X80258881Y-103464500D01*
X80188514Y-103473934D01*
X80124217Y-103443827D01*
X80086403Y-103383739D01*
X80082322Y-103336223D01*
X80087284Y-103289011D01*
X80100360Y-103164600D01*
X80080574Y-102976344D01*
X80073370Y-102954171D01*
X80022081Y-102796321D01*
X80022077Y-102796313D01*
X80019941Y-102792614D01*
X79939979Y-102654114D01*
X79927434Y-102632385D01*
X79927433Y-102632383D01*
X79800773Y-102491713D01*
X79670708Y-102397215D01*
X79627354Y-102340992D01*
X79621279Y-102270256D01*
X79654411Y-102207465D01*
X79683624Y-102185110D01*
X79691119Y-102180950D01*
X79701102Y-102175409D01*
X79855495Y-102042866D01*
X79980048Y-101881958D01*
X80055478Y-101728183D01*
X80069658Y-101699276D01*
X80069658Y-101699274D01*
X80069660Y-101699271D01*
X80120663Y-101502285D01*
X80130969Y-101299064D01*
X80100156Y-101097929D01*
X80029486Y-100907113D01*
X80007498Y-100871837D01*
X79921855Y-100734433D01*
X79921845Y-100734420D01*
X79781663Y-100586951D01*
X79781661Y-100586949D01*
X79781659Y-100586947D01*
X79755957Y-100569058D01*
X79614647Y-100470703D01*
X79614646Y-100470702D01*
X79427661Y-100390460D01*
X79278170Y-100359740D01*
X79228341Y-100349500D01*
X79228340Y-100349500D01*
X78680184Y-100349500D01*
X78612063Y-100329498D01*
X78565570Y-100275842D01*
X78555466Y-100205568D01*
X78563775Y-100175282D01*
X78601409Y-100084426D01*
X78607287Y-100070236D01*
X78627066Y-99920000D01*
X78626251Y-99913813D01*
X78607287Y-99769765D01*
X78604421Y-99762844D01*
X78549298Y-99629767D01*
X78549293Y-99629760D01*
X78457051Y-99509548D01*
X78418543Y-99480000D01*
X80095140Y-99480000D01*
X80114925Y-99668256D01*
X80173418Y-99848278D01*
X80173422Y-99848286D01*
X80268065Y-100012214D01*
X80268066Y-100012216D01*
X80394726Y-100152886D01*
X80547867Y-100264149D01*
X80547867Y-100264150D01*
X80574128Y-100275842D01*
X80720797Y-100341144D01*
X80905954Y-100380500D01*
X81095246Y-100380500D01*
X81280403Y-100341144D01*
X81453330Y-100264151D01*
X81453330Y-100264150D01*
X81453332Y-100264150D01*
X81453332Y-100264149D01*
X81606471Y-100152888D01*
X81694154Y-100055507D01*
X81733133Y-100012216D01*
X81733134Y-100012214D01*
X81783364Y-99925213D01*
X81827779Y-99848284D01*
X81873560Y-99707387D01*
X81886274Y-99668256D01*
X81888802Y-99644199D01*
X89747140Y-99644199D01*
X89766925Y-99832456D01*
X89825418Y-100012478D01*
X89825422Y-100012486D01*
X89920065Y-100176414D01*
X89920066Y-100176416D01*
X90046726Y-100317086D01*
X90199867Y-100428349D01*
X90199867Y-100428350D01*
X90247212Y-100449429D01*
X90372797Y-100505344D01*
X90557954Y-100544700D01*
X90747246Y-100544700D01*
X90932403Y-100505344D01*
X91105330Y-100428351D01*
X91105330Y-100428350D01*
X91105332Y-100428350D01*
X91105332Y-100428349D01*
X91258471Y-100317088D01*
X91305869Y-100264448D01*
X91385133Y-100176416D01*
X91385134Y-100176414D01*
X91438243Y-100084426D01*
X91479779Y-100012484D01*
X91538274Y-99832456D01*
X91558060Y-99644200D01*
X91538274Y-99455944D01*
X91537476Y-99453488D01*
X91479781Y-99275921D01*
X91479777Y-99275913D01*
X91472774Y-99263784D01*
X91429576Y-99188962D01*
X91385134Y-99111985D01*
X91385133Y-99111983D01*
X91258473Y-98971313D01*
X91105332Y-98860050D01*
X91105332Y-98860049D01*
X90942184Y-98787411D01*
X90932403Y-98783056D01*
X90932401Y-98783055D01*
X90932400Y-98783055D01*
X90747246Y-98743700D01*
X90557954Y-98743700D01*
X90372799Y-98783055D01*
X90199867Y-98860049D01*
X90199867Y-98860050D01*
X90046726Y-98971313D01*
X89920066Y-99111983D01*
X89920065Y-99111985D01*
X89825422Y-99275913D01*
X89825418Y-99275921D01*
X89766925Y-99455943D01*
X89747140Y-99644199D01*
X81888802Y-99644199D01*
X81889060Y-99641744D01*
X81906060Y-99480000D01*
X81886274Y-99291744D01*
X81877190Y-99263785D01*
X81827781Y-99111721D01*
X81827777Y-99111713D01*
X81811634Y-99083753D01*
X81765740Y-99004261D01*
X81733134Y-98947785D01*
X81733133Y-98947783D01*
X81606473Y-98807113D01*
X81453332Y-98695850D01*
X81453332Y-98695849D01*
X81327745Y-98639934D01*
X81280403Y-98618856D01*
X81280401Y-98618855D01*
X81280400Y-98618855D01*
X81095246Y-98579500D01*
X80905954Y-98579500D01*
X80720799Y-98618855D01*
X80547867Y-98695849D01*
X80547867Y-98695850D01*
X80394726Y-98807113D01*
X80268066Y-98947783D01*
X80268065Y-98947785D01*
X80173422Y-99111713D01*
X80173418Y-99111721D01*
X80114925Y-99291743D01*
X80095140Y-99480000D01*
X78418543Y-99480000D01*
X78336839Y-99417306D01*
X78336831Y-99417301D01*
X78196834Y-99359312D01*
X78084322Y-99344500D01*
X78084320Y-99344500D01*
X78008880Y-99344500D01*
X78008877Y-99344500D01*
X77896365Y-99359312D01*
X77756368Y-99417301D01*
X77756360Y-99417306D01*
X77636148Y-99509548D01*
X77543906Y-99629760D01*
X77543901Y-99629768D01*
X77485912Y-99769765D01*
X77466134Y-99919999D01*
X77466134Y-99920000D01*
X77485912Y-100070234D01*
X77529894Y-100176414D01*
X77543902Y-100210233D01*
X77596679Y-100279013D01*
X77622280Y-100345233D01*
X77608016Y-100414781D01*
X77558415Y-100465578D01*
X77557865Y-100465884D01*
X77452099Y-100524589D01*
X77452096Y-100524590D01*
X77297709Y-100657129D01*
X77297702Y-100657136D01*
X77173155Y-100818036D01*
X77173150Y-100818044D01*
X77083541Y-101000723D01*
X77032536Y-101197719D01*
X77032536Y-101197722D01*
X77022230Y-101400935D01*
X75695803Y-101400935D01*
X75700969Y-101299064D01*
X75670156Y-101097929D01*
X75599486Y-100907113D01*
X75577498Y-100871837D01*
X75491855Y-100734433D01*
X75491845Y-100734420D01*
X75351663Y-100586951D01*
X75351661Y-100586949D01*
X75351659Y-100586947D01*
X75325957Y-100569058D01*
X75184647Y-100470703D01*
X75184646Y-100470702D01*
X74997661Y-100390460D01*
X74848170Y-100359740D01*
X74798341Y-100349500D01*
X74045858Y-100349500D01*
X74045839Y-100349500D01*
X73894166Y-100364925D01*
X73894163Y-100364925D01*
X73894162Y-100364926D01*
X73844524Y-100380500D01*
X73700013Y-100425840D01*
X73522094Y-100524592D01*
X73367709Y-100657129D01*
X73367702Y-100657136D01*
X73243155Y-100818036D01*
X73243150Y-100818044D01*
X73153541Y-101000723D01*
X73102536Y-101197719D01*
X73102536Y-101197722D01*
X73092230Y-101400935D01*
X72771500Y-101400935D01*
X72771500Y-96164400D01*
X101286890Y-96164400D01*
X101306675Y-96352656D01*
X101365168Y-96532678D01*
X101365172Y-96532686D01*
X101459815Y-96696614D01*
X101459816Y-96696616D01*
X101586476Y-96837286D01*
X101739617Y-96948549D01*
X101739617Y-96948550D01*
X101786962Y-96969629D01*
X101912547Y-97025544D01*
X102097704Y-97064900D01*
X102286996Y-97064900D01*
X102472153Y-97025544D01*
X102645080Y-96948551D01*
X102645080Y-96948550D01*
X102645082Y-96948550D01*
X102645082Y-96948549D01*
X102798221Y-96837288D01*
X102924883Y-96696616D01*
X103019529Y-96532684D01*
X103031228Y-96496680D01*
X103078024Y-96352656D01*
X103087552Y-96262000D01*
X103097810Y-96164400D01*
X103078024Y-95976144D01*
X103066316Y-95940110D01*
X103019531Y-95796121D01*
X103019527Y-95796113D01*
X103017600Y-95792776D01*
X102982805Y-95732509D01*
X102953529Y-95681800D01*
X104546399Y-95681800D01*
X104546400Y-100482400D01*
X108432600Y-100482400D01*
X108432600Y-95707200D01*
X108432599Y-95707199D01*
X104546400Y-95681799D01*
X104546399Y-95681800D01*
X102953529Y-95681800D01*
X102924884Y-95632185D01*
X102924883Y-95632183D01*
X102798223Y-95491513D01*
X102645082Y-95380250D01*
X102645082Y-95380249D01*
X102515975Y-95322767D01*
X102472153Y-95303256D01*
X102472151Y-95303255D01*
X102472150Y-95303255D01*
X102286996Y-95263900D01*
X102097704Y-95263900D01*
X101912549Y-95303255D01*
X101739617Y-95380249D01*
X101739617Y-95380250D01*
X101586476Y-95491513D01*
X101459816Y-95632183D01*
X101459815Y-95632185D01*
X101365172Y-95796113D01*
X101365168Y-95796121D01*
X101306675Y-95976143D01*
X101286890Y-96164400D01*
X72771500Y-96164400D01*
X72771500Y-92760935D01*
X73092230Y-92760935D01*
X73102414Y-92827409D01*
X73123044Y-92962071D01*
X73145368Y-93022348D01*
X73193711Y-93152881D01*
X73193715Y-93152889D01*
X73301344Y-93325566D01*
X73301354Y-93325579D01*
X73429703Y-93460600D01*
X73441541Y-93473053D01*
X73441544Y-93473055D01*
X73608552Y-93589296D01*
X73608553Y-93589297D01*
X73795538Y-93669539D01*
X73795541Y-93669539D01*
X73795542Y-93669540D01*
X73994859Y-93710500D01*
X73994860Y-93710500D01*
X74747341Y-93710500D01*
X74747342Y-93710500D01*
X74747343Y-93710499D01*
X74747360Y-93710499D01*
X74841433Y-93700931D01*
X74899038Y-93695074D01*
X75093188Y-93634159D01*
X75271102Y-93535409D01*
X75271103Y-93535408D01*
X75271105Y-93535407D01*
X75425490Y-93402870D01*
X75425495Y-93402866D01*
X75550048Y-93241958D01*
X75639660Y-93059271D01*
X75690663Y-92862285D01*
X75695803Y-92760935D01*
X77022230Y-92760935D01*
X77032414Y-92827409D01*
X77053044Y-92962071D01*
X77075368Y-93022348D01*
X77123711Y-93152881D01*
X77123715Y-93152889D01*
X77231344Y-93325566D01*
X77231354Y-93325579D01*
X77359703Y-93460600D01*
X77371541Y-93473053D01*
X77371544Y-93473055D01*
X77538552Y-93589296D01*
X77538553Y-93589297D01*
X77543997Y-93591633D01*
X77598709Y-93636878D01*
X77620275Y-93704520D01*
X77601846Y-93773083D01*
X77594271Y-93784125D01*
X77543903Y-93849765D01*
X77543901Y-93849768D01*
X77485912Y-93989765D01*
X77466134Y-94139999D01*
X77466134Y-94140000D01*
X77485912Y-94290234D01*
X77543901Y-94430231D01*
X77543906Y-94430239D01*
X77636148Y-94550451D01*
X77756360Y-94642693D01*
X77756367Y-94642698D01*
X77896364Y-94700687D01*
X78008880Y-94715500D01*
X78008887Y-94715500D01*
X78084313Y-94715500D01*
X78084320Y-94715500D01*
X78196836Y-94700687D01*
X78336833Y-94642698D01*
X78418543Y-94579999D01*
X80095140Y-94579999D01*
X80114925Y-94768256D01*
X80173418Y-94948278D01*
X80173422Y-94948286D01*
X80268065Y-95112214D01*
X80268066Y-95112216D01*
X80394726Y-95252886D01*
X80547867Y-95364149D01*
X80547867Y-95364150D01*
X80595212Y-95385229D01*
X80720797Y-95441144D01*
X80905954Y-95480500D01*
X81095246Y-95480500D01*
X81280403Y-95441144D01*
X81453330Y-95364151D01*
X81453330Y-95364150D01*
X81453332Y-95364150D01*
X81453332Y-95364149D01*
X81606471Y-95252888D01*
X81678631Y-95172747D01*
X81733133Y-95112216D01*
X81733134Y-95112214D01*
X81812994Y-94973892D01*
X81827779Y-94948284D01*
X81845287Y-94894400D01*
X84844940Y-94894400D01*
X84864725Y-95082656D01*
X84923218Y-95262678D01*
X84923222Y-95262686D01*
X85017865Y-95426614D01*
X85017866Y-95426616D01*
X85144526Y-95567286D01*
X85297667Y-95678549D01*
X85297667Y-95678550D01*
X85304967Y-95681800D01*
X85470597Y-95755544D01*
X85655754Y-95794900D01*
X85845046Y-95794900D01*
X86030203Y-95755544D01*
X86203130Y-95678551D01*
X86203130Y-95678550D01*
X86203132Y-95678550D01*
X86203132Y-95678549D01*
X86356271Y-95567288D01*
X86370443Y-95551549D01*
X86482933Y-95426616D01*
X86482934Y-95426614D01*
X86518997Y-95364151D01*
X86577579Y-95262684D01*
X86606802Y-95172747D01*
X86636074Y-95082656D01*
X86647505Y-94973892D01*
X86655860Y-94894400D01*
X86636074Y-94706144D01*
X86632307Y-94694549D01*
X86577581Y-94526121D01*
X86577577Y-94526113D01*
X86568563Y-94510501D01*
X86539031Y-94459349D01*
X86482934Y-94362185D01*
X86482933Y-94362183D01*
X86356273Y-94221513D01*
X86203132Y-94110250D01*
X86203132Y-94110249D01*
X86062831Y-94047783D01*
X86030203Y-94033256D01*
X86030201Y-94033255D01*
X86030200Y-94033255D01*
X85845046Y-93993900D01*
X85655754Y-93993900D01*
X85470599Y-94033255D01*
X85297667Y-94110249D01*
X85297667Y-94110250D01*
X85144526Y-94221513D01*
X85017866Y-94362183D01*
X85017865Y-94362185D01*
X84923222Y-94526113D01*
X84923218Y-94526121D01*
X84864725Y-94706143D01*
X84844940Y-94894400D01*
X81845287Y-94894400D01*
X81886274Y-94768256D01*
X81906060Y-94580000D01*
X81887049Y-94399116D01*
X81886274Y-94391743D01*
X81827781Y-94211721D01*
X81827777Y-94211713D01*
X81733134Y-94047785D01*
X81733133Y-94047783D01*
X81606473Y-93907113D01*
X81467989Y-93806499D01*
X91093340Y-93806499D01*
X91113125Y-93994755D01*
X91171618Y-94174777D01*
X91171622Y-94174785D01*
X91266265Y-94338713D01*
X91266266Y-94338715D01*
X91392926Y-94479385D01*
X91546067Y-94590648D01*
X91546067Y-94590649D01*
X91593412Y-94611728D01*
X91718997Y-94667643D01*
X91904154Y-94706999D01*
X92093446Y-94706999D01*
X92278603Y-94667643D01*
X92451530Y-94590650D01*
X92451530Y-94590649D01*
X92451532Y-94590649D01*
X92451532Y-94590648D01*
X92604671Y-94479387D01*
X92622713Y-94459350D01*
X92731333Y-94338715D01*
X92731334Y-94338713D01*
X92735209Y-94332001D01*
X92825979Y-94174783D01*
X92846948Y-94110249D01*
X92884474Y-93994755D01*
X92890684Y-93935665D01*
X92904260Y-93806499D01*
X92890460Y-93675199D01*
X99907140Y-93675199D01*
X99926925Y-93863456D01*
X99985418Y-94043478D01*
X99985422Y-94043486D01*
X100080065Y-94207414D01*
X100080066Y-94207416D01*
X100206726Y-94348086D01*
X100359867Y-94459349D01*
X100359867Y-94459350D01*
X100404867Y-94479385D01*
X100532797Y-94536344D01*
X100717954Y-94575700D01*
X100907246Y-94575700D01*
X101092403Y-94536344D01*
X101265330Y-94459351D01*
X101265330Y-94459350D01*
X101265332Y-94459350D01*
X101265332Y-94459349D01*
X101418471Y-94348088D01*
X101422690Y-94343403D01*
X101545133Y-94207416D01*
X101545134Y-94207414D01*
X101563972Y-94174785D01*
X101639779Y-94043484D01*
X101657234Y-93989765D01*
X101698274Y-93863456D01*
X101705379Y-93795850D01*
X101718060Y-93675200D01*
X101698274Y-93486944D01*
X101693759Y-93473048D01*
X101639781Y-93306921D01*
X101639777Y-93306913D01*
X101545134Y-93142985D01*
X101545133Y-93142983D01*
X101418473Y-93002313D01*
X101265332Y-92891050D01*
X101265332Y-92891049D01*
X101122394Y-92827409D01*
X101092403Y-92814056D01*
X101092401Y-92814055D01*
X101092400Y-92814055D01*
X100907246Y-92774700D01*
X100717954Y-92774700D01*
X100532799Y-92814055D01*
X100359867Y-92891049D01*
X100359867Y-92891050D01*
X100206726Y-93002313D01*
X100080066Y-93142983D01*
X100080065Y-93142985D01*
X99985422Y-93306913D01*
X99985418Y-93306921D01*
X99926925Y-93486943D01*
X99907140Y-93675199D01*
X92890460Y-93675199D01*
X92884474Y-93618243D01*
X92875069Y-93589297D01*
X92825981Y-93438220D01*
X92825977Y-93438212D01*
X92805572Y-93402870D01*
X92731334Y-93274284D01*
X92731333Y-93274282D01*
X92604673Y-93133612D01*
X92451532Y-93022349D01*
X92451532Y-93022348D01*
X92316143Y-92962069D01*
X92278603Y-92945355D01*
X92278601Y-92945354D01*
X92278600Y-92945354D01*
X92093446Y-92905999D01*
X91904154Y-92905999D01*
X91718999Y-92945354D01*
X91546067Y-93022348D01*
X91546067Y-93022349D01*
X91392926Y-93133612D01*
X91266266Y-93274282D01*
X91266265Y-93274284D01*
X91171622Y-93438212D01*
X91171618Y-93438220D01*
X91113125Y-93618242D01*
X91093340Y-93806499D01*
X81467989Y-93806499D01*
X81453332Y-93795850D01*
X81453332Y-93795849D01*
X81327745Y-93739934D01*
X81280403Y-93718856D01*
X81280401Y-93718855D01*
X81280400Y-93718855D01*
X81095246Y-93679500D01*
X80905954Y-93679500D01*
X80720799Y-93718855D01*
X80547867Y-93795849D01*
X80547867Y-93795850D01*
X80394726Y-93907113D01*
X80268066Y-94047783D01*
X80268065Y-94047785D01*
X80173422Y-94211713D01*
X80173418Y-94211721D01*
X80114925Y-94391743D01*
X80095140Y-94579999D01*
X78418543Y-94579999D01*
X78457051Y-94550451D01*
X78549298Y-94430233D01*
X78607287Y-94290236D01*
X78627066Y-94140000D01*
X78607287Y-93989764D01*
X78563774Y-93884717D01*
X78556186Y-93814128D01*
X78587965Y-93750641D01*
X78649023Y-93714414D01*
X78680184Y-93710500D01*
X79177341Y-93710500D01*
X79177342Y-93710500D01*
X79177343Y-93710499D01*
X79177360Y-93710499D01*
X79271433Y-93700931D01*
X79329038Y-93695074D01*
X79523188Y-93634159D01*
X79701102Y-93535409D01*
X79701103Y-93535408D01*
X79701105Y-93535407D01*
X79855490Y-93402870D01*
X79855495Y-93402866D01*
X79980048Y-93241958D01*
X80069660Y-93059271D01*
X80120663Y-92862285D01*
X80130969Y-92659064D01*
X80100156Y-92457929D01*
X80029486Y-92267113D01*
X79988901Y-92202000D01*
X79921855Y-92094433D01*
X79921845Y-92094420D01*
X79781663Y-91946951D01*
X79781661Y-91946949D01*
X79781659Y-91946947D01*
X79752868Y-91926908D01*
X79614647Y-91830703D01*
X79614646Y-91830702D01*
X79427661Y-91750460D01*
X79278170Y-91719740D01*
X79228341Y-91709500D01*
X77975858Y-91709500D01*
X77975839Y-91709500D01*
X77824166Y-91724925D01*
X77824163Y-91724925D01*
X77824162Y-91724926D01*
X77780414Y-91738652D01*
X77630013Y-91785840D01*
X77452094Y-91884592D01*
X77297709Y-92017129D01*
X77297702Y-92017136D01*
X77173155Y-92178036D01*
X77173150Y-92178044D01*
X77083541Y-92360723D01*
X77032536Y-92557719D01*
X77032536Y-92557722D01*
X77022230Y-92760935D01*
X75695803Y-92760935D01*
X75700969Y-92659064D01*
X75670156Y-92457929D01*
X75599486Y-92267113D01*
X75558901Y-92202000D01*
X75491855Y-92094433D01*
X75491845Y-92094420D01*
X75351663Y-91946951D01*
X75351661Y-91946949D01*
X75351659Y-91946947D01*
X75322868Y-91926908D01*
X75184647Y-91830703D01*
X75184646Y-91830702D01*
X74997661Y-91750460D01*
X74848170Y-91719740D01*
X74798341Y-91709500D01*
X74045858Y-91709500D01*
X74045839Y-91709500D01*
X73894166Y-91724925D01*
X73894163Y-91724925D01*
X73894162Y-91724926D01*
X73850414Y-91738652D01*
X73700013Y-91785840D01*
X73522094Y-91884592D01*
X73367709Y-92017129D01*
X73367702Y-92017136D01*
X73243155Y-92178036D01*
X73243150Y-92178044D01*
X73153541Y-92360723D01*
X73102536Y-92557719D01*
X73102536Y-92557722D01*
X73092230Y-92760935D01*
X72771500Y-92760935D01*
X72771500Y-91516200D01*
X87283340Y-91516200D01*
X87303125Y-91704456D01*
X87361618Y-91884478D01*
X87361622Y-91884486D01*
X87456265Y-92048414D01*
X87456266Y-92048416D01*
X87582926Y-92189086D01*
X87736067Y-92300349D01*
X87736067Y-92300350D01*
X87746990Y-92305213D01*
X87908997Y-92377344D01*
X88094154Y-92416700D01*
X88283446Y-92416700D01*
X88468603Y-92377344D01*
X88641530Y-92300351D01*
X88641530Y-92300350D01*
X88641532Y-92300350D01*
X88641532Y-92300349D01*
X88794671Y-92189088D01*
X88826006Y-92154286D01*
X88886448Y-92117049D01*
X88945833Y-92115351D01*
X89054122Y-92138369D01*
X89054126Y-92138369D01*
X89243414Y-92138369D01*
X89428571Y-92099013D01*
X89601498Y-92022020D01*
X89601498Y-92022019D01*
X89601500Y-92022019D01*
X89601500Y-92022018D01*
X89732409Y-91926908D01*
X97176398Y-91926908D01*
X97196183Y-92115165D01*
X97254676Y-92295187D01*
X97254680Y-92295195D01*
X97349323Y-92459123D01*
X97349324Y-92459125D01*
X97475984Y-92599795D01*
X97629125Y-92711058D01*
X97629125Y-92711059D01*
X97676470Y-92732138D01*
X97802055Y-92788053D01*
X97987212Y-92827409D01*
X98176504Y-92827409D01*
X98361661Y-92788053D01*
X98534588Y-92711060D01*
X98534588Y-92711059D01*
X98534590Y-92711059D01*
X98534590Y-92711058D01*
X98687729Y-92599797D01*
X98814391Y-92459125D01*
X98909037Y-92295193D01*
X98915006Y-92276824D01*
X98967532Y-92115165D01*
X98969712Y-92094420D01*
X98987318Y-91926909D01*
X98967532Y-91738653D01*
X98963072Y-91724926D01*
X98909039Y-91558630D01*
X98909035Y-91558622D01*
X98814392Y-91394694D01*
X98814391Y-91394692D01*
X98687731Y-91254022D01*
X98534590Y-91142759D01*
X98534590Y-91142758D01*
X98375029Y-91071717D01*
X98361661Y-91065765D01*
X98361659Y-91065764D01*
X98361658Y-91065764D01*
X98176504Y-91026409D01*
X97987212Y-91026409D01*
X97802057Y-91065764D01*
X97629125Y-91142758D01*
X97629125Y-91142759D01*
X97475984Y-91254022D01*
X97349324Y-91394692D01*
X97349323Y-91394694D01*
X97254680Y-91558622D01*
X97254676Y-91558630D01*
X97196183Y-91738652D01*
X97176398Y-91926908D01*
X89732409Y-91926908D01*
X89754639Y-91910757D01*
X89778296Y-91884484D01*
X89881301Y-91770085D01*
X89881302Y-91770083D01*
X89899449Y-91738652D01*
X89975947Y-91606153D01*
X90034442Y-91426125D01*
X90054228Y-91237869D01*
X90036140Y-91065765D01*
X90034442Y-91049612D01*
X89975949Y-90869590D01*
X89975945Y-90869582D01*
X89881302Y-90705654D01*
X89881301Y-90705652D01*
X89754641Y-90564982D01*
X89601500Y-90453719D01*
X89601500Y-90453718D01*
X89475913Y-90397803D01*
X89428571Y-90376725D01*
X89428569Y-90376724D01*
X89428568Y-90376724D01*
X89243414Y-90337369D01*
X89054122Y-90337369D01*
X88868967Y-90376724D01*
X88696035Y-90453718D01*
X88696035Y-90453719D01*
X88542899Y-90564979D01*
X88542893Y-90564984D01*
X88511561Y-90599781D01*
X88451115Y-90637020D01*
X88391731Y-90638716D01*
X88283448Y-90615700D01*
X88283446Y-90615700D01*
X88094154Y-90615700D01*
X87908999Y-90655055D01*
X87736067Y-90732049D01*
X87736067Y-90732050D01*
X87582926Y-90843313D01*
X87456266Y-90983983D01*
X87456265Y-90983985D01*
X87361622Y-91147913D01*
X87361618Y-91147921D01*
X87303125Y-91327943D01*
X87283340Y-91516200D01*
X72771500Y-91516200D01*
X72771500Y-89062239D01*
X85428984Y-89062239D01*
X85448769Y-89250496D01*
X85507262Y-89430518D01*
X85507266Y-89430526D01*
X85601909Y-89594454D01*
X85601910Y-89594456D01*
X85728570Y-89735126D01*
X85881711Y-89846389D01*
X85881711Y-89846390D01*
X85929056Y-89867469D01*
X86054641Y-89923384D01*
X86239798Y-89962740D01*
X86429090Y-89962740D01*
X86614247Y-89923384D01*
X86787174Y-89846391D01*
X86787174Y-89846390D01*
X86787176Y-89846390D01*
X86787176Y-89846389D01*
X86940315Y-89735128D01*
X86960373Y-89712852D01*
X87066977Y-89594456D01*
X87066978Y-89594454D01*
X87083386Y-89566035D01*
X87161623Y-89430524D01*
X87161631Y-89430501D01*
X87220118Y-89250496D01*
X87230260Y-89154000D01*
X88070740Y-89154000D01*
X88090525Y-89342256D01*
X88149018Y-89522278D01*
X88149022Y-89522286D01*
X88243665Y-89686214D01*
X88243666Y-89686216D01*
X88370326Y-89826886D01*
X88523467Y-89938149D01*
X88523467Y-89938150D01*
X88570812Y-89959229D01*
X88696397Y-90015144D01*
X88881554Y-90054500D01*
X89070846Y-90054500D01*
X89256003Y-90015144D01*
X89428930Y-89938151D01*
X89428930Y-89938150D01*
X89428932Y-89938150D01*
X89428932Y-89938149D01*
X89582071Y-89826888D01*
X89595565Y-89811902D01*
X89708733Y-89686216D01*
X89708734Y-89686214D01*
X89735915Y-89639135D01*
X89803379Y-89522284D01*
X89861874Y-89342256D01*
X89881660Y-89154000D01*
X89861874Y-88965744D01*
X89861874Y-88965743D01*
X89803381Y-88785721D01*
X89803377Y-88785713D01*
X89708734Y-88621785D01*
X89708733Y-88621783D01*
X89582073Y-88481113D01*
X89428932Y-88369850D01*
X89428932Y-88369849D01*
X89302019Y-88313344D01*
X89256003Y-88292856D01*
X89256001Y-88292855D01*
X89256000Y-88292855D01*
X89070846Y-88253500D01*
X88881554Y-88253500D01*
X88696399Y-88292855D01*
X88523467Y-88369849D01*
X88523467Y-88369850D01*
X88370326Y-88481113D01*
X88243666Y-88621783D01*
X88243665Y-88621785D01*
X88149022Y-88785713D01*
X88149018Y-88785721D01*
X88090525Y-88965743D01*
X88070740Y-89154000D01*
X87230260Y-89154000D01*
X87239904Y-89062240D01*
X87220118Y-88873984D01*
X87214165Y-88855663D01*
X87161625Y-88693961D01*
X87161621Y-88693953D01*
X87066978Y-88530025D01*
X87066977Y-88530023D01*
X86940317Y-88389353D01*
X86787176Y-88278090D01*
X86787176Y-88278089D01*
X86621216Y-88204199D01*
X86614247Y-88201096D01*
X86614245Y-88201095D01*
X86614244Y-88201095D01*
X86429090Y-88161740D01*
X86239798Y-88161740D01*
X86054643Y-88201095D01*
X85881711Y-88278089D01*
X85881711Y-88278090D01*
X85728570Y-88389353D01*
X85601910Y-88530023D01*
X85601909Y-88530025D01*
X85507266Y-88693953D01*
X85507262Y-88693961D01*
X85448769Y-88873983D01*
X85428984Y-89062239D01*
X72771500Y-89062239D01*
X72771500Y-87960200D01*
X78063140Y-87960200D01*
X78082925Y-88148456D01*
X78141418Y-88328478D01*
X78141422Y-88328486D01*
X78236065Y-88492414D01*
X78236066Y-88492416D01*
X78362726Y-88633086D01*
X78515867Y-88744349D01*
X78515867Y-88744350D01*
X78563212Y-88765429D01*
X78688797Y-88821344D01*
X78873954Y-88860700D01*
X79063246Y-88860700D01*
X79248403Y-88821344D01*
X79421330Y-88744351D01*
X79421330Y-88744350D01*
X79421332Y-88744350D01*
X79421332Y-88744349D01*
X79574471Y-88633088D01*
X79579586Y-88627408D01*
X79701133Y-88492416D01*
X79701134Y-88492414D01*
X79707659Y-88481112D01*
X79795779Y-88328484D01*
X79854274Y-88148456D01*
X79874060Y-87960200D01*
X79854274Y-87771944D01*
X79835907Y-87715416D01*
X79795781Y-87591921D01*
X79795777Y-87591913D01*
X79701134Y-87427985D01*
X79701133Y-87427983D01*
X79574473Y-87287313D01*
X79421332Y-87176050D01*
X79421332Y-87176049D01*
X79284076Y-87114939D01*
X79248403Y-87099056D01*
X79248401Y-87099055D01*
X79248400Y-87099055D01*
X79063246Y-87059700D01*
X78873954Y-87059700D01*
X78688799Y-87099055D01*
X78515867Y-87176049D01*
X78515867Y-87176050D01*
X78362726Y-87287313D01*
X78236066Y-87427983D01*
X78236065Y-87427985D01*
X78141422Y-87591913D01*
X78141418Y-87591921D01*
X78082925Y-87771943D01*
X78063140Y-87960200D01*
X72771500Y-87960200D01*
X72771500Y-85074318D01*
X72791502Y-85006197D01*
X72845158Y-84959704D01*
X72915432Y-84949600D01*
X72980012Y-84979094D01*
X73017333Y-85035381D01*
X73075126Y-85213248D01*
X73075128Y-85213252D01*
X73203704Y-85486490D01*
X73203711Y-85486504D01*
X73365514Y-85741466D01*
X73365521Y-85741475D01*
X73446312Y-85839133D01*
X74269881Y-85015563D01*
X74332194Y-84981538D01*
X74403009Y-84986602D01*
X74459845Y-85029149D01*
X74461612Y-85031568D01*
X74475894Y-85051624D01*
X74620560Y-85189562D01*
X74656057Y-85251046D01*
X74652679Y-85321962D01*
X74622704Y-85369847D01*
X73797565Y-86194985D01*
X73797565Y-86194987D01*
X74022471Y-86358391D01*
X74287109Y-86503877D01*
X74567887Y-86615046D01*
X74567890Y-86615047D01*
X74860404Y-86690151D01*
X74860403Y-86690151D01*
X75159990Y-86727998D01*
X75160008Y-86728000D01*
X75461992Y-86728000D01*
X75462009Y-86727998D01*
X75761596Y-86690151D01*
X76054109Y-86615047D01*
X76054112Y-86615046D01*
X76334890Y-86503877D01*
X76599528Y-86358391D01*
X76824433Y-86194987D01*
X76824433Y-86194986D01*
X76608447Y-85979000D01*
X79841140Y-85979000D01*
X79860925Y-86167256D01*
X79919418Y-86347278D01*
X79919422Y-86347286D01*
X80014065Y-86511214D01*
X80014066Y-86511216D01*
X80140726Y-86651886D01*
X80293867Y-86763149D01*
X80293867Y-86763150D01*
X80341212Y-86784229D01*
X80466797Y-86840144D01*
X80651954Y-86879500D01*
X80841246Y-86879500D01*
X81026403Y-86840144D01*
X81199330Y-86763151D01*
X81199330Y-86763150D01*
X81199332Y-86763150D01*
X81199332Y-86763149D01*
X81352471Y-86651888D01*
X81366643Y-86636149D01*
X81479133Y-86511216D01*
X81479134Y-86511214D01*
X81549896Y-86388650D01*
X81551772Y-86385400D01*
X88019940Y-86385400D01*
X88020282Y-86388650D01*
X88039725Y-86573656D01*
X88098218Y-86753678D01*
X88098222Y-86753686D01*
X88192865Y-86917614D01*
X88192866Y-86917616D01*
X88319526Y-87058286D01*
X88472667Y-87169549D01*
X88472667Y-87169550D01*
X88520012Y-87190629D01*
X88645597Y-87246544D01*
X88830754Y-87285900D01*
X89020046Y-87285900D01*
X89205203Y-87246544D01*
X89205211Y-87246540D01*
X89209670Y-87245092D01*
X89280637Y-87243057D01*
X89341439Y-87279714D01*
X89372770Y-87343423D01*
X89373928Y-87378089D01*
X89366140Y-87452198D01*
X89385925Y-87640456D01*
X89444418Y-87820478D01*
X89444422Y-87820486D01*
X89539065Y-87984414D01*
X89539066Y-87984416D01*
X89665726Y-88125086D01*
X89818867Y-88236349D01*
X89818867Y-88236350D01*
X89855168Y-88252512D01*
X89991797Y-88313344D01*
X90176954Y-88352700D01*
X90366246Y-88352700D01*
X90551403Y-88313344D01*
X90724330Y-88236351D01*
X90724330Y-88236350D01*
X90724332Y-88236350D01*
X90724332Y-88236349D01*
X90877471Y-88125088D01*
X91004133Y-87984416D01*
X91098779Y-87820484D01*
X91157274Y-87640456D01*
X91177060Y-87452200D01*
X91157274Y-87263944D01*
X91157274Y-87263943D01*
X91098781Y-87083921D01*
X91098778Y-87083914D01*
X91007090Y-86925105D01*
X90990352Y-86856109D01*
X91007091Y-86799104D01*
X91047976Y-86728290D01*
X91047976Y-86728288D01*
X91047979Y-86728284D01*
X91106474Y-86548256D01*
X91126260Y-86360000D01*
X91106474Y-86171744D01*
X91105773Y-86169586D01*
X91047981Y-85991721D01*
X91047977Y-85991713D01*
X90967314Y-85852000D01*
X95571890Y-85852000D01*
X95591675Y-86040256D01*
X95650168Y-86220278D01*
X95650172Y-86220286D01*
X95744815Y-86384214D01*
X95744816Y-86384216D01*
X95871476Y-86524886D01*
X96024617Y-86636149D01*
X96024617Y-86636150D01*
X96059961Y-86651886D01*
X96197547Y-86713144D01*
X96382704Y-86752500D01*
X96571996Y-86752500D01*
X96757153Y-86713144D01*
X96930080Y-86636151D01*
X96930080Y-86636150D01*
X96930082Y-86636150D01*
X96930082Y-86636149D01*
X97083221Y-86524888D01*
X97095532Y-86511216D01*
X97179815Y-86417610D01*
X98920673Y-86417610D01*
X98940458Y-86605866D01*
X98998951Y-86785888D01*
X98998955Y-86785896D01*
X99093598Y-86949824D01*
X99093599Y-86949826D01*
X99220259Y-87090496D01*
X99373400Y-87201759D01*
X99373400Y-87201760D01*
X99409797Y-87217965D01*
X99546330Y-87278754D01*
X99731487Y-87318110D01*
X99920779Y-87318110D01*
X100105936Y-87278754D01*
X100278863Y-87201761D01*
X100365527Y-87138795D01*
X100432392Y-87114939D01*
X100501543Y-87131018D01*
X100513644Y-87138795D01*
X100537670Y-87156251D01*
X100710597Y-87233244D01*
X100895754Y-87272600D01*
X101085046Y-87272600D01*
X101270203Y-87233244D01*
X101443130Y-87156251D01*
X101443130Y-87156250D01*
X101443132Y-87156250D01*
X101443132Y-87156249D01*
X101596271Y-87044988D01*
X101681956Y-86949826D01*
X101722933Y-86904316D01*
X101722934Y-86904314D01*
X101750765Y-86856109D01*
X101817579Y-86740384D01*
X101821604Y-86727998D01*
X101876074Y-86560356D01*
X101879802Y-86524886D01*
X101895860Y-86372100D01*
X101876074Y-86183844D01*
X101876074Y-86183843D01*
X101817581Y-86003821D01*
X101817577Y-86003813D01*
X101803251Y-85979000D01*
X101749208Y-85885393D01*
X101722934Y-85839885D01*
X101722933Y-85839883D01*
X101596273Y-85699213D01*
X101443132Y-85587950D01*
X101443132Y-85587949D01*
X101300075Y-85524256D01*
X101270203Y-85510956D01*
X101270201Y-85510955D01*
X101270200Y-85510955D01*
X101085046Y-85471600D01*
X100895754Y-85471600D01*
X100710599Y-85510955D01*
X100537667Y-85587949D01*
X100537666Y-85587950D01*
X100451007Y-85650912D01*
X100384139Y-85674771D01*
X100314987Y-85658690D01*
X100302886Y-85650912D01*
X100278868Y-85633462D01*
X100278861Y-85633458D01*
X100176647Y-85587949D01*
X100105936Y-85556466D01*
X100105934Y-85556465D01*
X100105933Y-85556465D01*
X99920779Y-85517110D01*
X99731487Y-85517110D01*
X99546332Y-85556465D01*
X99373400Y-85633459D01*
X99373400Y-85633460D01*
X99220259Y-85744723D01*
X99093599Y-85885393D01*
X99093598Y-85885395D01*
X98998955Y-86049323D01*
X98998951Y-86049331D01*
X98940458Y-86229353D01*
X98920673Y-86417610D01*
X97179815Y-86417610D01*
X97209883Y-86384216D01*
X97209884Y-86384214D01*
X97223864Y-86360000D01*
X97304529Y-86220284D01*
X97316370Y-86183843D01*
X97363024Y-86040256D01*
X97363023Y-86040256D01*
X97382810Y-85852000D01*
X97363024Y-85663744D01*
X97353184Y-85633459D01*
X97304531Y-85483721D01*
X97304527Y-85483713D01*
X97209884Y-85319785D01*
X97209883Y-85319783D01*
X97083223Y-85179113D01*
X96930082Y-85067850D01*
X96930082Y-85067849D01*
X96767051Y-84995263D01*
X96757153Y-84990856D01*
X96757151Y-84990855D01*
X96757150Y-84990855D01*
X96571996Y-84951500D01*
X96382704Y-84951500D01*
X96197549Y-84990855D01*
X96024617Y-85067849D01*
X96024617Y-85067850D01*
X95871476Y-85179113D01*
X95744816Y-85319783D01*
X95744815Y-85319785D01*
X95650172Y-85483713D01*
X95650168Y-85483721D01*
X95591675Y-85663743D01*
X95571890Y-85852000D01*
X90967314Y-85852000D01*
X90953334Y-85827785D01*
X90953333Y-85827783D01*
X90826673Y-85687113D01*
X90673532Y-85575850D01*
X90673532Y-85575849D01*
X90541602Y-85517110D01*
X90500603Y-85498856D01*
X90500601Y-85498855D01*
X90500600Y-85498855D01*
X90315446Y-85459500D01*
X90126154Y-85459500D01*
X89940999Y-85498855D01*
X89768068Y-85575849D01*
X89629679Y-85676394D01*
X89562811Y-85700252D01*
X89493660Y-85684171D01*
X89481558Y-85676393D01*
X89378132Y-85601250D01*
X89378132Y-85601249D01*
X89252545Y-85545334D01*
X89205203Y-85524256D01*
X89205201Y-85524255D01*
X89205200Y-85524255D01*
X89020046Y-85484900D01*
X88830754Y-85484900D01*
X88645599Y-85524255D01*
X88472667Y-85601249D01*
X88472667Y-85601250D01*
X88319526Y-85712513D01*
X88192866Y-85853183D01*
X88192865Y-85853185D01*
X88098222Y-86017113D01*
X88098218Y-86017121D01*
X88039725Y-86197143D01*
X88022228Y-86363632D01*
X88019940Y-86385400D01*
X81551772Y-86385400D01*
X81573779Y-86347284D01*
X81597774Y-86273437D01*
X81632274Y-86167256D01*
X81652060Y-85979000D01*
X81632274Y-85790744D01*
X81632274Y-85790743D01*
X81573781Y-85610721D01*
X81573777Y-85610713D01*
X81553648Y-85575849D01*
X81509196Y-85498855D01*
X81479134Y-85446785D01*
X81479133Y-85446783D01*
X81352473Y-85306113D01*
X81347566Y-85301695D01*
X81348413Y-85300754D01*
X81309285Y-85250008D01*
X81303213Y-85179272D01*
X81336347Y-85116481D01*
X81351724Y-85103160D01*
X81352468Y-85102490D01*
X81352467Y-85102490D01*
X81352471Y-85102488D01*
X81479133Y-84961816D01*
X81573779Y-84797884D01*
X81632274Y-84617856D01*
X81652060Y-84429600D01*
X81632274Y-84241344D01*
X81581637Y-84085500D01*
X81573781Y-84061321D01*
X81573777Y-84061313D01*
X81539070Y-84001199D01*
X81520567Y-83969150D01*
X81479134Y-83897385D01*
X81479133Y-83897383D01*
X81352473Y-83756713D01*
X81199332Y-83645450D01*
X81199332Y-83645449D01*
X81050031Y-83578976D01*
X81026403Y-83568456D01*
X81026401Y-83568455D01*
X81026400Y-83568455D01*
X80841246Y-83529100D01*
X80651954Y-83529100D01*
X80466799Y-83568455D01*
X80293867Y-83645449D01*
X80293867Y-83645450D01*
X80140726Y-83756713D01*
X80014066Y-83897383D01*
X80014065Y-83897385D01*
X79919422Y-84061313D01*
X79919418Y-84061321D01*
X79860925Y-84241343D01*
X79841140Y-84429599D01*
X79860925Y-84617856D01*
X79919418Y-84797878D01*
X79919422Y-84797886D01*
X80014065Y-84961814D01*
X80014066Y-84961816D01*
X80140726Y-85102486D01*
X80145634Y-85106905D01*
X80144786Y-85107846D01*
X80183912Y-85158587D01*
X80189987Y-85229323D01*
X80156855Y-85292115D01*
X80141395Y-85305510D01*
X80140726Y-85306113D01*
X80014066Y-85446783D01*
X80014065Y-85446785D01*
X79919422Y-85610713D01*
X79919418Y-85610721D01*
X79860925Y-85790743D01*
X79841140Y-85979000D01*
X76608447Y-85979000D01*
X75996827Y-85367381D01*
X75962802Y-85305068D01*
X75967866Y-85234253D01*
X76008033Y-85179243D01*
X76073540Y-85127729D01*
X76166313Y-85020662D01*
X76226039Y-84982279D01*
X76297036Y-84982279D01*
X76350634Y-85014080D01*
X77175687Y-85839133D01*
X77256480Y-85741472D01*
X77418295Y-85486492D01*
X77418295Y-85486490D01*
X77546871Y-85213252D01*
X77546873Y-85213248D01*
X77640194Y-84926039D01*
X77640196Y-84926031D01*
X77696781Y-84629400D01*
X77696784Y-84629376D01*
X77715745Y-84328006D01*
X77715745Y-84327993D01*
X77696784Y-84026623D01*
X77696781Y-84026599D01*
X77640196Y-83729968D01*
X77640194Y-83729960D01*
X77546873Y-83442751D01*
X77546871Y-83442747D01*
X77425585Y-83185000D01*
X107916290Y-83185000D01*
X107936075Y-83373256D01*
X107994568Y-83553278D01*
X107994572Y-83553286D01*
X108089215Y-83717214D01*
X108089216Y-83717216D01*
X108215876Y-83857886D01*
X108369017Y-83969149D01*
X108369017Y-83969150D01*
X108416362Y-83990229D01*
X108541947Y-84046144D01*
X108727104Y-84085500D01*
X108916396Y-84085500D01*
X109101553Y-84046144D01*
X109274480Y-83969151D01*
X109274480Y-83969150D01*
X109274482Y-83969150D01*
X109274482Y-83969149D01*
X109427621Y-83857888D01*
X109554283Y-83717216D01*
X109648929Y-83553284D01*
X109707424Y-83373256D01*
X109727210Y-83185000D01*
X109707424Y-82996744D01*
X109672457Y-82889127D01*
X109648931Y-82816721D01*
X109648927Y-82816713D01*
X109554284Y-82652785D01*
X109554283Y-82652783D01*
X109427623Y-82512113D01*
X109274482Y-82400850D01*
X109274482Y-82400849D01*
X109143515Y-82342539D01*
X109101553Y-82323856D01*
X109101551Y-82323855D01*
X109101550Y-82323855D01*
X108916396Y-82284500D01*
X108727104Y-82284500D01*
X108541949Y-82323855D01*
X108369017Y-82400849D01*
X108369017Y-82400850D01*
X108215876Y-82512113D01*
X108089216Y-82652783D01*
X108089215Y-82652785D01*
X107994572Y-82816713D01*
X107994568Y-82816721D01*
X107936075Y-82996743D01*
X107916290Y-83185000D01*
X77425585Y-83185000D01*
X77418295Y-83169509D01*
X77418288Y-83169495D01*
X77256485Y-82914533D01*
X77256478Y-82914524D01*
X77175686Y-82816864D01*
X76352116Y-83640435D01*
X76289804Y-83674461D01*
X76218989Y-83669396D01*
X76162153Y-83626849D01*
X76160385Y-83624428D01*
X76146107Y-83604378D01*
X76146106Y-83604376D01*
X76001438Y-83466435D01*
X75965941Y-83404952D01*
X75969319Y-83334036D01*
X75999294Y-83286150D01*
X76824433Y-82461012D01*
X76824433Y-82461011D01*
X76599533Y-82297611D01*
X76334890Y-82152122D01*
X76054112Y-82040953D01*
X76054094Y-82040948D01*
X76036930Y-82036541D01*
X75975924Y-82000227D01*
X75944235Y-81936694D01*
X75951925Y-81866116D01*
X75996552Y-81810898D01*
X76063948Y-81788574D01*
X76068265Y-81788500D01*
X121394645Y-81788500D01*
X121462766Y-81808502D01*
G37*
G04 #@! TD.AperFunction*
M02*
