%TF.GenerationSoftware,KiCad,Pcbnew,7.0.6-71-g49772d2539*%
%TF.CreationDate,2023-08-07T20:47:23-04:00*%
%TF.ProjectId,Free_PDK,46726565-5f50-4444-9b2e-6b696361645f,rev?*%
%TF.SameCoordinates,Original*%
%TF.FileFunction,Drillmap*%
%TF.FilePolarity,Positive*%
%FSLAX45Y45*%
G04 Gerber Fmt 4.5, Leading zero omitted, Abs format (unit mm)*
G04 Created by KiCad (PCBNEW 7.0.6-71-g49772d2539) date 2023-08-07 20:47:23*
%MOMM*%
%LPD*%
G01*
G04 APERTURE LIST*
%ADD10C,0.254000*%
%ADD11C,0.200000*%
%ADD12C,0.065000*%
G04 APERTURE END LIST*
D10*
X12476480Y-8432800D02*
X12476480Y-10515600D01*
X7531100Y-8178800D02*
X12222480Y-8178800D01*
X12222480Y-10769600D02*
X7531100Y-10769600D01*
X7277100Y-10515600D02*
G75*
G03*
X7531100Y-10769600I254000J0D01*
G01*
X7277100Y-10515600D02*
X7277100Y-8432800D01*
X12222480Y-10769600D02*
G75*
G03*
X12476480Y-10515600I0J254000D01*
G01*
X7531100Y-8178800D02*
G75*
G03*
X7277100Y-8432800I0J-254000D01*
G01*
X12476480Y-8432800D02*
G75*
G03*
X12222480Y-8178800I-254000J0D01*
G01*
D11*
D12*
X7772160Y-9381500D02*
X7837160Y-9446500D01*
X7837160Y-9381500D02*
X7772160Y-9446500D01*
X7772160Y-9959500D02*
X7837160Y-10024500D01*
X7837160Y-9959500D02*
X7772160Y-10024500D01*
D11*
X7525177Y-11093784D02*
X7525177Y-10893784D01*
X7525177Y-10893784D02*
X7572796Y-10893784D01*
X7572796Y-10893784D02*
X7601367Y-10903308D01*
X7601367Y-10903308D02*
X7620415Y-10922355D01*
X7620415Y-10922355D02*
X7629939Y-10941403D01*
X7629939Y-10941403D02*
X7639462Y-10979498D01*
X7639462Y-10979498D02*
X7639462Y-11008070D01*
X7639462Y-11008070D02*
X7629939Y-11046165D01*
X7629939Y-11046165D02*
X7620415Y-11065212D01*
X7620415Y-11065212D02*
X7601367Y-11084260D01*
X7601367Y-11084260D02*
X7572796Y-11093784D01*
X7572796Y-11093784D02*
X7525177Y-11093784D01*
X7725177Y-11093784D02*
X7725177Y-10960450D01*
X7725177Y-10998546D02*
X7734701Y-10979498D01*
X7734701Y-10979498D02*
X7744224Y-10969974D01*
X7744224Y-10969974D02*
X7763272Y-10960450D01*
X7763272Y-10960450D02*
X7782320Y-10960450D01*
X7848986Y-11093784D02*
X7848986Y-10960450D01*
X7848986Y-10893784D02*
X7839462Y-10903308D01*
X7839462Y-10903308D02*
X7848986Y-10912831D01*
X7848986Y-10912831D02*
X7858510Y-10903308D01*
X7858510Y-10903308D02*
X7848986Y-10893784D01*
X7848986Y-10893784D02*
X7848986Y-10912831D01*
X7972796Y-11093784D02*
X7953748Y-11084260D01*
X7953748Y-11084260D02*
X7944224Y-11065212D01*
X7944224Y-11065212D02*
X7944224Y-10893784D01*
X8077558Y-11093784D02*
X8058510Y-11084260D01*
X8058510Y-11084260D02*
X8048986Y-11065212D01*
X8048986Y-11065212D02*
X8048986Y-10893784D01*
X8306129Y-11093784D02*
X8306129Y-10893784D01*
X8306129Y-10893784D02*
X8372796Y-11036641D01*
X8372796Y-11036641D02*
X8439463Y-10893784D01*
X8439463Y-10893784D02*
X8439463Y-11093784D01*
X8620415Y-11093784D02*
X8620415Y-10989022D01*
X8620415Y-10989022D02*
X8610891Y-10969974D01*
X8610891Y-10969974D02*
X8591844Y-10960450D01*
X8591844Y-10960450D02*
X8553748Y-10960450D01*
X8553748Y-10960450D02*
X8534701Y-10969974D01*
X8620415Y-11084260D02*
X8601367Y-11093784D01*
X8601367Y-11093784D02*
X8553748Y-11093784D01*
X8553748Y-11093784D02*
X8534701Y-11084260D01*
X8534701Y-11084260D02*
X8525177Y-11065212D01*
X8525177Y-11065212D02*
X8525177Y-11046165D01*
X8525177Y-11046165D02*
X8534701Y-11027117D01*
X8534701Y-11027117D02*
X8553748Y-11017593D01*
X8553748Y-11017593D02*
X8601367Y-11017593D01*
X8601367Y-11017593D02*
X8620415Y-11008070D01*
X8715653Y-10960450D02*
X8715653Y-11160450D01*
X8715653Y-10969974D02*
X8734701Y-10960450D01*
X8734701Y-10960450D02*
X8772796Y-10960450D01*
X8772796Y-10960450D02*
X8791844Y-10969974D01*
X8791844Y-10969974D02*
X8801367Y-10979498D01*
X8801367Y-10979498D02*
X8810891Y-10998546D01*
X8810891Y-10998546D02*
X8810891Y-11055689D01*
X8810891Y-11055689D02*
X8801367Y-11074736D01*
X8801367Y-11074736D02*
X8791844Y-11084260D01*
X8791844Y-11084260D02*
X8772796Y-11093784D01*
X8772796Y-11093784D02*
X8734701Y-11093784D01*
X8734701Y-11093784D02*
X8715653Y-11084260D01*
X8896605Y-11074736D02*
X8906129Y-11084260D01*
X8906129Y-11084260D02*
X8896605Y-11093784D01*
X8896605Y-11093784D02*
X8887082Y-11084260D01*
X8887082Y-11084260D02*
X8896605Y-11074736D01*
X8896605Y-11074736D02*
X8896605Y-11093784D01*
X8896605Y-10969974D02*
X8906129Y-10979498D01*
X8906129Y-10979498D02*
X8896605Y-10989022D01*
X8896605Y-10989022D02*
X8887082Y-10979498D01*
X8887082Y-10979498D02*
X8896605Y-10969974D01*
X8896605Y-10969974D02*
X8896605Y-10989022D01*
D12*
X7199400Y-11389800D02*
X7264400Y-11454800D01*
X7264400Y-11389800D02*
X7199400Y-11454800D01*
D11*
X7563272Y-11313784D02*
X7582320Y-11313784D01*
X7582320Y-11313784D02*
X7601367Y-11323308D01*
X7601367Y-11323308D02*
X7610891Y-11332831D01*
X7610891Y-11332831D02*
X7620415Y-11351879D01*
X7620415Y-11351879D02*
X7629939Y-11389974D01*
X7629939Y-11389974D02*
X7629939Y-11437593D01*
X7629939Y-11437593D02*
X7620415Y-11475688D01*
X7620415Y-11475688D02*
X7610891Y-11494736D01*
X7610891Y-11494736D02*
X7601367Y-11504260D01*
X7601367Y-11504260D02*
X7582320Y-11513784D01*
X7582320Y-11513784D02*
X7563272Y-11513784D01*
X7563272Y-11513784D02*
X7544224Y-11504260D01*
X7544224Y-11504260D02*
X7534701Y-11494736D01*
X7534701Y-11494736D02*
X7525177Y-11475688D01*
X7525177Y-11475688D02*
X7515653Y-11437593D01*
X7515653Y-11437593D02*
X7515653Y-11389974D01*
X7515653Y-11389974D02*
X7525177Y-11351879D01*
X7525177Y-11351879D02*
X7534701Y-11332831D01*
X7534701Y-11332831D02*
X7544224Y-11323308D01*
X7544224Y-11323308D02*
X7563272Y-11313784D01*
X7715653Y-11494736D02*
X7725177Y-11504260D01*
X7725177Y-11504260D02*
X7715653Y-11513784D01*
X7715653Y-11513784D02*
X7706129Y-11504260D01*
X7706129Y-11504260D02*
X7715653Y-11494736D01*
X7715653Y-11494736D02*
X7715653Y-11513784D01*
X7896605Y-11313784D02*
X7858510Y-11313784D01*
X7858510Y-11313784D02*
X7839462Y-11323308D01*
X7839462Y-11323308D02*
X7829939Y-11332831D01*
X7829939Y-11332831D02*
X7810891Y-11361403D01*
X7810891Y-11361403D02*
X7801367Y-11399498D01*
X7801367Y-11399498D02*
X7801367Y-11475688D01*
X7801367Y-11475688D02*
X7810891Y-11494736D01*
X7810891Y-11494736D02*
X7820415Y-11504260D01*
X7820415Y-11504260D02*
X7839462Y-11513784D01*
X7839462Y-11513784D02*
X7877558Y-11513784D01*
X7877558Y-11513784D02*
X7896605Y-11504260D01*
X7896605Y-11504260D02*
X7906129Y-11494736D01*
X7906129Y-11494736D02*
X7915653Y-11475688D01*
X7915653Y-11475688D02*
X7915653Y-11428069D01*
X7915653Y-11428069D02*
X7906129Y-11409022D01*
X7906129Y-11409022D02*
X7896605Y-11399498D01*
X7896605Y-11399498D02*
X7877558Y-11389974D01*
X7877558Y-11389974D02*
X7839462Y-11389974D01*
X7839462Y-11389974D02*
X7820415Y-11399498D01*
X7820415Y-11399498D02*
X7810891Y-11409022D01*
X7810891Y-11409022D02*
X7801367Y-11428069D01*
X8096605Y-11313784D02*
X8001367Y-11313784D01*
X8001367Y-11313784D02*
X7991843Y-11409022D01*
X7991843Y-11409022D02*
X8001367Y-11399498D01*
X8001367Y-11399498D02*
X8020415Y-11389974D01*
X8020415Y-11389974D02*
X8068034Y-11389974D01*
X8068034Y-11389974D02*
X8087082Y-11399498D01*
X8087082Y-11399498D02*
X8096605Y-11409022D01*
X8096605Y-11409022D02*
X8106129Y-11428069D01*
X8106129Y-11428069D02*
X8106129Y-11475688D01*
X8106129Y-11475688D02*
X8096605Y-11494736D01*
X8096605Y-11494736D02*
X8087082Y-11504260D01*
X8087082Y-11504260D02*
X8068034Y-11513784D01*
X8068034Y-11513784D02*
X8020415Y-11513784D01*
X8020415Y-11513784D02*
X8001367Y-11504260D01*
X8001367Y-11504260D02*
X7991843Y-11494736D01*
X8229939Y-11313784D02*
X8248986Y-11313784D01*
X8248986Y-11313784D02*
X8268034Y-11323308D01*
X8268034Y-11323308D02*
X8277558Y-11332831D01*
X8277558Y-11332831D02*
X8287082Y-11351879D01*
X8287082Y-11351879D02*
X8296605Y-11389974D01*
X8296605Y-11389974D02*
X8296605Y-11437593D01*
X8296605Y-11437593D02*
X8287082Y-11475688D01*
X8287082Y-11475688D02*
X8277558Y-11494736D01*
X8277558Y-11494736D02*
X8268034Y-11504260D01*
X8268034Y-11504260D02*
X8248986Y-11513784D01*
X8248986Y-11513784D02*
X8229939Y-11513784D01*
X8229939Y-11513784D02*
X8210891Y-11504260D01*
X8210891Y-11504260D02*
X8201367Y-11494736D01*
X8201367Y-11494736D02*
X8191843Y-11475688D01*
X8191843Y-11475688D02*
X8182320Y-11437593D01*
X8182320Y-11437593D02*
X8182320Y-11389974D01*
X8182320Y-11389974D02*
X8191843Y-11351879D01*
X8191843Y-11351879D02*
X8201367Y-11332831D01*
X8201367Y-11332831D02*
X8210891Y-11323308D01*
X8210891Y-11323308D02*
X8229939Y-11313784D01*
X8382320Y-11513784D02*
X8382320Y-11380450D01*
X8382320Y-11399498D02*
X8391844Y-11389974D01*
X8391844Y-11389974D02*
X8410891Y-11380450D01*
X8410891Y-11380450D02*
X8439463Y-11380450D01*
X8439463Y-11380450D02*
X8458510Y-11389974D01*
X8458510Y-11389974D02*
X8468034Y-11409022D01*
X8468034Y-11409022D02*
X8468034Y-11513784D01*
X8468034Y-11409022D02*
X8477558Y-11389974D01*
X8477558Y-11389974D02*
X8496605Y-11380450D01*
X8496605Y-11380450D02*
X8525177Y-11380450D01*
X8525177Y-11380450D02*
X8544225Y-11389974D01*
X8544225Y-11389974D02*
X8553748Y-11409022D01*
X8553748Y-11409022D02*
X8553748Y-11513784D01*
X8648986Y-11513784D02*
X8648986Y-11380450D01*
X8648986Y-11399498D02*
X8658510Y-11389974D01*
X8658510Y-11389974D02*
X8677558Y-11380450D01*
X8677558Y-11380450D02*
X8706129Y-11380450D01*
X8706129Y-11380450D02*
X8725177Y-11389974D01*
X8725177Y-11389974D02*
X8734701Y-11409022D01*
X8734701Y-11409022D02*
X8734701Y-11513784D01*
X8734701Y-11409022D02*
X8744225Y-11389974D01*
X8744225Y-11389974D02*
X8763272Y-11380450D01*
X8763272Y-11380450D02*
X8791844Y-11380450D01*
X8791844Y-11380450D02*
X8810891Y-11389974D01*
X8810891Y-11389974D02*
X8820415Y-11409022D01*
X8820415Y-11409022D02*
X8820415Y-11513784D01*
X9210891Y-11304260D02*
X9039463Y-11561403D01*
X9468034Y-11313784D02*
X9487082Y-11313784D01*
X9487082Y-11313784D02*
X9506129Y-11323308D01*
X9506129Y-11323308D02*
X9515653Y-11332831D01*
X9515653Y-11332831D02*
X9525177Y-11351879D01*
X9525177Y-11351879D02*
X9534701Y-11389974D01*
X9534701Y-11389974D02*
X9534701Y-11437593D01*
X9534701Y-11437593D02*
X9525177Y-11475688D01*
X9525177Y-11475688D02*
X9515653Y-11494736D01*
X9515653Y-11494736D02*
X9506129Y-11504260D01*
X9506129Y-11504260D02*
X9487082Y-11513784D01*
X9487082Y-11513784D02*
X9468034Y-11513784D01*
X9468034Y-11513784D02*
X9448987Y-11504260D01*
X9448987Y-11504260D02*
X9439463Y-11494736D01*
X9439463Y-11494736D02*
X9429939Y-11475688D01*
X9429939Y-11475688D02*
X9420415Y-11437593D01*
X9420415Y-11437593D02*
X9420415Y-11389974D01*
X9420415Y-11389974D02*
X9429939Y-11351879D01*
X9429939Y-11351879D02*
X9439463Y-11332831D01*
X9439463Y-11332831D02*
X9448987Y-11323308D01*
X9448987Y-11323308D02*
X9468034Y-11313784D01*
X9620415Y-11494736D02*
X9629939Y-11504260D01*
X9629939Y-11504260D02*
X9620415Y-11513784D01*
X9620415Y-11513784D02*
X9610891Y-11504260D01*
X9610891Y-11504260D02*
X9620415Y-11494736D01*
X9620415Y-11494736D02*
X9620415Y-11513784D01*
X9753748Y-11313784D02*
X9772796Y-11313784D01*
X9772796Y-11313784D02*
X9791844Y-11323308D01*
X9791844Y-11323308D02*
X9801368Y-11332831D01*
X9801368Y-11332831D02*
X9810891Y-11351879D01*
X9810891Y-11351879D02*
X9820415Y-11389974D01*
X9820415Y-11389974D02*
X9820415Y-11437593D01*
X9820415Y-11437593D02*
X9810891Y-11475688D01*
X9810891Y-11475688D02*
X9801368Y-11494736D01*
X9801368Y-11494736D02*
X9791844Y-11504260D01*
X9791844Y-11504260D02*
X9772796Y-11513784D01*
X9772796Y-11513784D02*
X9753748Y-11513784D01*
X9753748Y-11513784D02*
X9734701Y-11504260D01*
X9734701Y-11504260D02*
X9725177Y-11494736D01*
X9725177Y-11494736D02*
X9715653Y-11475688D01*
X9715653Y-11475688D02*
X9706129Y-11437593D01*
X9706129Y-11437593D02*
X9706129Y-11389974D01*
X9706129Y-11389974D02*
X9715653Y-11351879D01*
X9715653Y-11351879D02*
X9725177Y-11332831D01*
X9725177Y-11332831D02*
X9734701Y-11323308D01*
X9734701Y-11323308D02*
X9753748Y-11313784D01*
X9896606Y-11332831D02*
X9906129Y-11323308D01*
X9906129Y-11323308D02*
X9925177Y-11313784D01*
X9925177Y-11313784D02*
X9972796Y-11313784D01*
X9972796Y-11313784D02*
X9991844Y-11323308D01*
X9991844Y-11323308D02*
X10001368Y-11332831D01*
X10001368Y-11332831D02*
X10010891Y-11351879D01*
X10010891Y-11351879D02*
X10010891Y-11370927D01*
X10010891Y-11370927D02*
X10001368Y-11399498D01*
X10001368Y-11399498D02*
X9887082Y-11513784D01*
X9887082Y-11513784D02*
X10010891Y-11513784D01*
X10191844Y-11313784D02*
X10096606Y-11313784D01*
X10096606Y-11313784D02*
X10087082Y-11409022D01*
X10087082Y-11409022D02*
X10096606Y-11399498D01*
X10096606Y-11399498D02*
X10115653Y-11389974D01*
X10115653Y-11389974D02*
X10163272Y-11389974D01*
X10163272Y-11389974D02*
X10182320Y-11399498D01*
X10182320Y-11399498D02*
X10191844Y-11409022D01*
X10191844Y-11409022D02*
X10201368Y-11428069D01*
X10201368Y-11428069D02*
X10201368Y-11475688D01*
X10201368Y-11475688D02*
X10191844Y-11494736D01*
X10191844Y-11494736D02*
X10182320Y-11504260D01*
X10182320Y-11504260D02*
X10163272Y-11513784D01*
X10163272Y-11513784D02*
X10115653Y-11513784D01*
X10115653Y-11513784D02*
X10096606Y-11504260D01*
X10096606Y-11504260D02*
X10087082Y-11494736D01*
X10372796Y-11313784D02*
X10334701Y-11313784D01*
X10334701Y-11313784D02*
X10315653Y-11323308D01*
X10315653Y-11323308D02*
X10306129Y-11332831D01*
X10306129Y-11332831D02*
X10287082Y-11361403D01*
X10287082Y-11361403D02*
X10277558Y-11399498D01*
X10277558Y-11399498D02*
X10277558Y-11475688D01*
X10277558Y-11475688D02*
X10287082Y-11494736D01*
X10287082Y-11494736D02*
X10296606Y-11504260D01*
X10296606Y-11504260D02*
X10315653Y-11513784D01*
X10315653Y-11513784D02*
X10353749Y-11513784D01*
X10353749Y-11513784D02*
X10372796Y-11504260D01*
X10372796Y-11504260D02*
X10382320Y-11494736D01*
X10382320Y-11494736D02*
X10391844Y-11475688D01*
X10391844Y-11475688D02*
X10391844Y-11428069D01*
X10391844Y-11428069D02*
X10382320Y-11409022D01*
X10382320Y-11409022D02*
X10372796Y-11399498D01*
X10372796Y-11399498D02*
X10353749Y-11389974D01*
X10353749Y-11389974D02*
X10315653Y-11389974D01*
X10315653Y-11389974D02*
X10296606Y-11399498D01*
X10296606Y-11399498D02*
X10287082Y-11409022D01*
X10287082Y-11409022D02*
X10277558Y-11428069D01*
X10468034Y-11313784D02*
X10468034Y-11351879D01*
X10544225Y-11313784D02*
X10544225Y-11351879D01*
X10839463Y-11589974D02*
X10829939Y-11580450D01*
X10829939Y-11580450D02*
X10810891Y-11551879D01*
X10810891Y-11551879D02*
X10801368Y-11532831D01*
X10801368Y-11532831D02*
X10791844Y-11504260D01*
X10791844Y-11504260D02*
X10782320Y-11456641D01*
X10782320Y-11456641D02*
X10782320Y-11418546D01*
X10782320Y-11418546D02*
X10791844Y-11370927D01*
X10791844Y-11370927D02*
X10801368Y-11342355D01*
X10801368Y-11342355D02*
X10810891Y-11323308D01*
X10810891Y-11323308D02*
X10829939Y-11294736D01*
X10829939Y-11294736D02*
X10839463Y-11285212D01*
X10906130Y-11332831D02*
X10915653Y-11323308D01*
X10915653Y-11323308D02*
X10934701Y-11313784D01*
X10934701Y-11313784D02*
X10982320Y-11313784D01*
X10982320Y-11313784D02*
X11001368Y-11323308D01*
X11001368Y-11323308D02*
X11010891Y-11332831D01*
X11010891Y-11332831D02*
X11020415Y-11351879D01*
X11020415Y-11351879D02*
X11020415Y-11370927D01*
X11020415Y-11370927D02*
X11010891Y-11399498D01*
X11010891Y-11399498D02*
X10896606Y-11513784D01*
X10896606Y-11513784D02*
X11020415Y-11513784D01*
X11258510Y-11513784D02*
X11258510Y-11313784D01*
X11344225Y-11513784D02*
X11344225Y-11409022D01*
X11344225Y-11409022D02*
X11334701Y-11389974D01*
X11334701Y-11389974D02*
X11315653Y-11380450D01*
X11315653Y-11380450D02*
X11287082Y-11380450D01*
X11287082Y-11380450D02*
X11268034Y-11389974D01*
X11268034Y-11389974D02*
X11258510Y-11399498D01*
X11468034Y-11513784D02*
X11448987Y-11504260D01*
X11448987Y-11504260D02*
X11439463Y-11494736D01*
X11439463Y-11494736D02*
X11429939Y-11475688D01*
X11429939Y-11475688D02*
X11429939Y-11418546D01*
X11429939Y-11418546D02*
X11439463Y-11399498D01*
X11439463Y-11399498D02*
X11448987Y-11389974D01*
X11448987Y-11389974D02*
X11468034Y-11380450D01*
X11468034Y-11380450D02*
X11496606Y-11380450D01*
X11496606Y-11380450D02*
X11515653Y-11389974D01*
X11515653Y-11389974D02*
X11525177Y-11399498D01*
X11525177Y-11399498D02*
X11534701Y-11418546D01*
X11534701Y-11418546D02*
X11534701Y-11475688D01*
X11534701Y-11475688D02*
X11525177Y-11494736D01*
X11525177Y-11494736D02*
X11515653Y-11504260D01*
X11515653Y-11504260D02*
X11496606Y-11513784D01*
X11496606Y-11513784D02*
X11468034Y-11513784D01*
X11648987Y-11513784D02*
X11629939Y-11504260D01*
X11629939Y-11504260D02*
X11620415Y-11485212D01*
X11620415Y-11485212D02*
X11620415Y-11313784D01*
X11801368Y-11504260D02*
X11782320Y-11513784D01*
X11782320Y-11513784D02*
X11744225Y-11513784D01*
X11744225Y-11513784D02*
X11725177Y-11504260D01*
X11725177Y-11504260D02*
X11715653Y-11485212D01*
X11715653Y-11485212D02*
X11715653Y-11409022D01*
X11715653Y-11409022D02*
X11725177Y-11389974D01*
X11725177Y-11389974D02*
X11744225Y-11380450D01*
X11744225Y-11380450D02*
X11782320Y-11380450D01*
X11782320Y-11380450D02*
X11801368Y-11389974D01*
X11801368Y-11389974D02*
X11810891Y-11409022D01*
X11810891Y-11409022D02*
X11810891Y-11428069D01*
X11810891Y-11428069D02*
X11715653Y-11447117D01*
X11887082Y-11504260D02*
X11906130Y-11513784D01*
X11906130Y-11513784D02*
X11944225Y-11513784D01*
X11944225Y-11513784D02*
X11963272Y-11504260D01*
X11963272Y-11504260D02*
X11972796Y-11485212D01*
X11972796Y-11485212D02*
X11972796Y-11475688D01*
X11972796Y-11475688D02*
X11963272Y-11456641D01*
X11963272Y-11456641D02*
X11944225Y-11447117D01*
X11944225Y-11447117D02*
X11915653Y-11447117D01*
X11915653Y-11447117D02*
X11896606Y-11437593D01*
X11896606Y-11437593D02*
X11887082Y-11418546D01*
X11887082Y-11418546D02*
X11887082Y-11409022D01*
X11887082Y-11409022D02*
X11896606Y-11389974D01*
X11896606Y-11389974D02*
X11915653Y-11380450D01*
X11915653Y-11380450D02*
X11944225Y-11380450D01*
X11944225Y-11380450D02*
X11963272Y-11389974D01*
X12039463Y-11589974D02*
X12048987Y-11580450D01*
X12048987Y-11580450D02*
X12068034Y-11551879D01*
X12068034Y-11551879D02*
X12077558Y-11532831D01*
X12077558Y-11532831D02*
X12087082Y-11504260D01*
X12087082Y-11504260D02*
X12096606Y-11456641D01*
X12096606Y-11456641D02*
X12096606Y-11418546D01*
X12096606Y-11418546D02*
X12087082Y-11370927D01*
X12087082Y-11370927D02*
X12077558Y-11342355D01*
X12077558Y-11342355D02*
X12068034Y-11323308D01*
X12068034Y-11323308D02*
X12048987Y-11294736D01*
X12048987Y-11294736D02*
X12039463Y-11285212D01*
X12401368Y-11589974D02*
X12391844Y-11580450D01*
X12391844Y-11580450D02*
X12372796Y-11551879D01*
X12372796Y-11551879D02*
X12363272Y-11532831D01*
X12363272Y-11532831D02*
X12353749Y-11504260D01*
X12353749Y-11504260D02*
X12344225Y-11456641D01*
X12344225Y-11456641D02*
X12344225Y-11418546D01*
X12344225Y-11418546D02*
X12353749Y-11370927D01*
X12353749Y-11370927D02*
X12363272Y-11342355D01*
X12363272Y-11342355D02*
X12372796Y-11323308D01*
X12372796Y-11323308D02*
X12391844Y-11294736D01*
X12391844Y-11294736D02*
X12401368Y-11285212D01*
X12477558Y-11380450D02*
X12477558Y-11513784D01*
X12477558Y-11399498D02*
X12487082Y-11389974D01*
X12487082Y-11389974D02*
X12506130Y-11380450D01*
X12506130Y-11380450D02*
X12534701Y-11380450D01*
X12534701Y-11380450D02*
X12553749Y-11389974D01*
X12553749Y-11389974D02*
X12563272Y-11409022D01*
X12563272Y-11409022D02*
X12563272Y-11513784D01*
X12687082Y-11513784D02*
X12668034Y-11504260D01*
X12668034Y-11504260D02*
X12658511Y-11494736D01*
X12658511Y-11494736D02*
X12648987Y-11475688D01*
X12648987Y-11475688D02*
X12648987Y-11418546D01*
X12648987Y-11418546D02*
X12658511Y-11399498D01*
X12658511Y-11399498D02*
X12668034Y-11389974D01*
X12668034Y-11389974D02*
X12687082Y-11380450D01*
X12687082Y-11380450D02*
X12715653Y-11380450D01*
X12715653Y-11380450D02*
X12734701Y-11389974D01*
X12734701Y-11389974D02*
X12744225Y-11399498D01*
X12744225Y-11399498D02*
X12753749Y-11418546D01*
X12753749Y-11418546D02*
X12753749Y-11475688D01*
X12753749Y-11475688D02*
X12744225Y-11494736D01*
X12744225Y-11494736D02*
X12734701Y-11504260D01*
X12734701Y-11504260D02*
X12715653Y-11513784D01*
X12715653Y-11513784D02*
X12687082Y-11513784D01*
X12810892Y-11380450D02*
X12887082Y-11380450D01*
X12839463Y-11313784D02*
X12839463Y-11485212D01*
X12839463Y-11485212D02*
X12848987Y-11504260D01*
X12848987Y-11504260D02*
X12868034Y-11513784D01*
X12868034Y-11513784D02*
X12887082Y-11513784D01*
X13106130Y-11380450D02*
X13106130Y-11580450D01*
X13106130Y-11389974D02*
X13125177Y-11380450D01*
X13125177Y-11380450D02*
X13163273Y-11380450D01*
X13163273Y-11380450D02*
X13182320Y-11389974D01*
X13182320Y-11389974D02*
X13191844Y-11399498D01*
X13191844Y-11399498D02*
X13201368Y-11418546D01*
X13201368Y-11418546D02*
X13201368Y-11475688D01*
X13201368Y-11475688D02*
X13191844Y-11494736D01*
X13191844Y-11494736D02*
X13182320Y-11504260D01*
X13182320Y-11504260D02*
X13163273Y-11513784D01*
X13163273Y-11513784D02*
X13125177Y-11513784D01*
X13125177Y-11513784D02*
X13106130Y-11504260D01*
X13315653Y-11513784D02*
X13296606Y-11504260D01*
X13296606Y-11504260D02*
X13287082Y-11485212D01*
X13287082Y-11485212D02*
X13287082Y-11313784D01*
X13477558Y-11513784D02*
X13477558Y-11409022D01*
X13477558Y-11409022D02*
X13468034Y-11389974D01*
X13468034Y-11389974D02*
X13448987Y-11380450D01*
X13448987Y-11380450D02*
X13410892Y-11380450D01*
X13410892Y-11380450D02*
X13391844Y-11389974D01*
X13477558Y-11504260D02*
X13458511Y-11513784D01*
X13458511Y-11513784D02*
X13410892Y-11513784D01*
X13410892Y-11513784D02*
X13391844Y-11504260D01*
X13391844Y-11504260D02*
X13382320Y-11485212D01*
X13382320Y-11485212D02*
X13382320Y-11466165D01*
X13382320Y-11466165D02*
X13391844Y-11447117D01*
X13391844Y-11447117D02*
X13410892Y-11437593D01*
X13410892Y-11437593D02*
X13458511Y-11437593D01*
X13458511Y-11437593D02*
X13477558Y-11428069D01*
X13544225Y-11380450D02*
X13620415Y-11380450D01*
X13572796Y-11313784D02*
X13572796Y-11485212D01*
X13572796Y-11485212D02*
X13582320Y-11504260D01*
X13582320Y-11504260D02*
X13601368Y-11513784D01*
X13601368Y-11513784D02*
X13620415Y-11513784D01*
X13763273Y-11504260D02*
X13744225Y-11513784D01*
X13744225Y-11513784D02*
X13706130Y-11513784D01*
X13706130Y-11513784D02*
X13687082Y-11504260D01*
X13687082Y-11504260D02*
X13677558Y-11485212D01*
X13677558Y-11485212D02*
X13677558Y-11409022D01*
X13677558Y-11409022D02*
X13687082Y-11389974D01*
X13687082Y-11389974D02*
X13706130Y-11380450D01*
X13706130Y-11380450D02*
X13744225Y-11380450D01*
X13744225Y-11380450D02*
X13763273Y-11389974D01*
X13763273Y-11389974D02*
X13772796Y-11409022D01*
X13772796Y-11409022D02*
X13772796Y-11428069D01*
X13772796Y-11428069D02*
X13677558Y-11447117D01*
X13944225Y-11513784D02*
X13944225Y-11313784D01*
X13944225Y-11504260D02*
X13925177Y-11513784D01*
X13925177Y-11513784D02*
X13887082Y-11513784D01*
X13887082Y-11513784D02*
X13868034Y-11504260D01*
X13868034Y-11504260D02*
X13858511Y-11494736D01*
X13858511Y-11494736D02*
X13848987Y-11475688D01*
X13848987Y-11475688D02*
X13848987Y-11418546D01*
X13848987Y-11418546D02*
X13858511Y-11399498D01*
X13858511Y-11399498D02*
X13868034Y-11389974D01*
X13868034Y-11389974D02*
X13887082Y-11380450D01*
X13887082Y-11380450D02*
X13925177Y-11380450D01*
X13925177Y-11380450D02*
X13944225Y-11389974D01*
X14020415Y-11589974D02*
X14029939Y-11580450D01*
X14029939Y-11580450D02*
X14048987Y-11551879D01*
X14048987Y-11551879D02*
X14058511Y-11532831D01*
X14058511Y-11532831D02*
X14068034Y-11504260D01*
X14068034Y-11504260D02*
X14077558Y-11456641D01*
X14077558Y-11456641D02*
X14077558Y-11418546D01*
X14077558Y-11418546D02*
X14068034Y-11370927D01*
X14068034Y-11370927D02*
X14058511Y-11342355D01*
X14058511Y-11342355D02*
X14048987Y-11323308D01*
X14048987Y-11323308D02*
X14029939Y-11294736D01*
X14029939Y-11294736D02*
X14020415Y-11285212D01*
M02*
