G04 #@! TF.GenerationSoftware,KiCad,Pcbnew,7.0.6-71-g49772d2539*
G04 #@! TF.CreationDate,2023-08-07T20:45:02-04:00*
G04 #@! TF.ProjectId,Free_PDK,46726565-5f50-4444-9b2e-6b696361645f,rev?*
G04 #@! TF.SameCoordinates,Original*
G04 #@! TF.FileFunction,Copper,L4,Bot*
G04 #@! TF.FilePolarity,Positive*
%FSLAX46Y46*%
G04 Gerber Fmt 4.6, Leading zero omitted, Abs format (unit mm)*
G04 Created by KiCad (PCBNEW 7.0.6-71-g49772d2539) date 2023-08-07 20:45:02*
%MOMM*%
%LPD*%
G01*
G04 APERTURE LIST*
G04 #@! TA.AperFunction,ComponentPad*
%ADD10C,3.800000*%
G04 #@! TD*
G04 #@! TA.AperFunction,ComponentPad*
%ADD11R,1.700000X1.700000*%
G04 #@! TD*
G04 #@! TA.AperFunction,ComponentPad*
%ADD12O,1.700000X1.700000*%
G04 #@! TD*
G04 #@! TA.AperFunction,ComponentPad*
%ADD13O,2.100000X1.000000*%
G04 #@! TD*
G04 #@! TA.AperFunction,ComponentPad*
%ADD14O,1.600000X1.000000*%
G04 #@! TD*
G04 #@! TA.AperFunction,ViaPad*
%ADD15C,0.800000*%
G04 #@! TD*
G04 #@! TA.AperFunction,Conductor*
%ADD16C,0.400000*%
G04 #@! TD*
G04 #@! TA.AperFunction,Conductor*
%ADD17C,0.250000*%
G04 #@! TD*
G04 #@! TA.AperFunction,Conductor*
%ADD18C,0.600000*%
G04 #@! TD*
G04 APERTURE END LIST*
D10*
X122224800Y-84302600D03*
X75311000Y-84328000D03*
D11*
X110726750Y-85840600D03*
D12*
X110726750Y-88380600D03*
X110726750Y-90920600D03*
X110726750Y-93460600D03*
X110726750Y-96000600D03*
X110726750Y-98540600D03*
X110726750Y-101080600D03*
X110726750Y-103620600D03*
D11*
X103284550Y-106172000D03*
D12*
X100744550Y-106172000D03*
X98204550Y-106172000D03*
X95664550Y-106172000D03*
D13*
X78576600Y-92710000D03*
D14*
X74396600Y-92710000D03*
D13*
X78576600Y-101350000D03*
D14*
X74396600Y-101350000D03*
D10*
X122199400Y-105156000D03*
X75311000Y-105156000D03*
D11*
X118346750Y-85852000D03*
D12*
X118346750Y-88392000D03*
X118346750Y-90932000D03*
X118346750Y-93472000D03*
X118346750Y-96012000D03*
X118346750Y-98552000D03*
X118346750Y-101092000D03*
X118346750Y-103632000D03*
D15*
X94013550Y-88925400D03*
X94132400Y-95275400D03*
X76708000Y-87655400D03*
X103200200Y-100761800D03*
X96477350Y-87122000D03*
X100617550Y-87833200D03*
X108788200Y-92329000D03*
X81838800Y-106273600D03*
X96350350Y-99466400D03*
X92286350Y-86995000D03*
X89136750Y-92837000D03*
X98560150Y-97434400D03*
X116509800Y-103860600D03*
X87312358Y-89268853D03*
X98534750Y-95199200D03*
X80848200Y-101168200D03*
X97417150Y-96291400D03*
X96324950Y-95199200D03*
X95156550Y-98399600D03*
X74930000Y-87655400D03*
X103284550Y-90754200D03*
X79324200Y-90982800D03*
X104478000Y-101273200D03*
X108383251Y-94982899D03*
X80594200Y-92278200D03*
X85750400Y-99187000D03*
X80822800Y-102412800D03*
X102336600Y-91973400D03*
X108821750Y-88773000D03*
X78892400Y-89763600D03*
X108898850Y-97409000D03*
X95131150Y-96316800D03*
X93116400Y-91236800D03*
X104063800Y-99906522D03*
X104060333Y-98877344D03*
X100380800Y-85394800D03*
X88239600Y-101396800D03*
X92311750Y-85090000D03*
X108847150Y-85064600D03*
X81559400Y-89433400D03*
X103936800Y-91945800D03*
X80416400Y-91211400D03*
X81483200Y-92837000D03*
X94038950Y-97434400D03*
X86150000Y-86973000D03*
X96324950Y-97434400D03*
X98534750Y-99720400D03*
X97493350Y-98425000D03*
X80645000Y-93345000D03*
X80797400Y-106273600D03*
X91643200Y-105079800D03*
X108898850Y-96393000D03*
X94038950Y-99466400D03*
X84531200Y-105054400D03*
X85039200Y-102260400D03*
X112629850Y-90703400D03*
X92203100Y-101396800D03*
X112606350Y-88925400D03*
X84531200Y-103581200D03*
X88498200Y-106163800D03*
X99779350Y-101727000D03*
X102192350Y-96164400D03*
X112629850Y-87172800D03*
X91998800Y-93806499D03*
X78968600Y-87960200D03*
X81000600Y-99480000D03*
X81584800Y-104267000D03*
X80746600Y-84429600D03*
X85750400Y-94894400D03*
X79194900Y-103164600D03*
X80746600Y-85979000D03*
X80670400Y-104267000D03*
X81000600Y-94580000D03*
X86334444Y-89062240D03*
X100990400Y-86372100D03*
X113715800Y-104978200D03*
X99826133Y-86417610D03*
X101968900Y-100587722D03*
X123723400Y-90728800D03*
X102695005Y-99896170D03*
X123723400Y-94767400D03*
X123723400Y-98780600D03*
X102886750Y-98895500D03*
X90652600Y-99644200D03*
X93091000Y-103022400D03*
X89148768Y-91237869D03*
X100812600Y-93675200D03*
X96477350Y-85852000D03*
X98081858Y-91926909D03*
X88925400Y-86385400D03*
X108821750Y-83185000D03*
X90220800Y-86360000D03*
X88188800Y-91516200D03*
X90271600Y-87452200D03*
X88976200Y-89154000D03*
D16*
X102192350Y-96164400D02*
X102192350Y-97146850D01*
X112629850Y-88948900D02*
X112606350Y-88925400D01*
X111499550Y-84124800D02*
X100482400Y-84124800D01*
X102192350Y-97146850D02*
X99779350Y-99559850D01*
X100482400Y-84124800D02*
X98826950Y-85780250D01*
X112629850Y-87172800D02*
X112629850Y-88901900D01*
X98826950Y-90241750D02*
X102192350Y-93607150D01*
X99779350Y-101727000D02*
X99779350Y-101735150D01*
X102192350Y-93607150D02*
X102192350Y-96164400D01*
X98826950Y-85780250D02*
X98826950Y-90241750D01*
X99779350Y-99559850D02*
X99779350Y-101727000D01*
X99779350Y-101735150D02*
X103284550Y-105240350D01*
X103284550Y-105240350D02*
X103284550Y-106172000D01*
X112629850Y-88901900D02*
X112606350Y-88925400D01*
X112623600Y-87166550D02*
X112623600Y-85248850D01*
X112623600Y-85248850D02*
X111499550Y-84124800D01*
X112629850Y-90703400D02*
X112629850Y-88948900D01*
X112629850Y-87172800D02*
X112623600Y-87166550D01*
D17*
X112369600Y-103632000D02*
X110726750Y-103632000D01*
X101002500Y-86360000D02*
X101549200Y-86360000D01*
X112344200Y-102014550D02*
X110726750Y-103632000D01*
X101549200Y-86360000D02*
X109982000Y-94792800D01*
X100990400Y-86372100D02*
X101002500Y-86360000D01*
X112344200Y-95631000D02*
X112344200Y-102014550D01*
X109982000Y-94792800D02*
X111506000Y-94792800D01*
X113715800Y-104978200D02*
X112369600Y-103632000D01*
X111506000Y-94792800D02*
X112344200Y-95631000D01*
X101320600Y-87096600D02*
X108481899Y-94257899D01*
X99826133Y-86417610D02*
X100505123Y-87096600D01*
X108481899Y-94257899D02*
X108683556Y-94257899D01*
X110437657Y-96012000D02*
X110726750Y-96012000D01*
X100505123Y-87096600D02*
X101320600Y-87096600D01*
X108683556Y-94257899D02*
X110437657Y-96012000D01*
X120040400Y-94742000D02*
X121539000Y-93243400D01*
X114985800Y-105003600D02*
X114985800Y-97332800D01*
X101968900Y-100814449D02*
X106970851Y-105816400D01*
X101968900Y-100587722D02*
X101968900Y-100814449D01*
X117576600Y-94742000D02*
X120040400Y-94742000D01*
X106970851Y-105816400D02*
X114173000Y-105816400D01*
X122504200Y-90728800D02*
X123723400Y-90728800D01*
X121539000Y-91694000D02*
X122504200Y-90728800D01*
X114173000Y-105816400D02*
X114985800Y-105003600D01*
X114985800Y-97332800D02*
X117576600Y-94742000D01*
X121539000Y-93243400D02*
X121539000Y-91694000D01*
X101193600Y-100888800D02*
X101193600Y-100228400D01*
X123723400Y-94767400D02*
X122580400Y-94767400D01*
X117602000Y-97256600D02*
X115722400Y-99136200D01*
X106680000Y-106375200D02*
X101193600Y-100888800D01*
X122580400Y-94767400D02*
X120091200Y-97256600D01*
X115722400Y-105359200D02*
X114706400Y-106375200D01*
X101619976Y-99802024D02*
X102600859Y-99802024D01*
X101193600Y-100228400D02*
X101619976Y-99802024D01*
X115722400Y-99136200D02*
X115722400Y-105359200D01*
X114706400Y-106375200D02*
X106680000Y-106375200D01*
X120091200Y-97256600D02*
X117602000Y-97256600D01*
X102600859Y-99802024D02*
X102695005Y-99896170D01*
X100634800Y-99822000D02*
X100634800Y-101193600D01*
X116890800Y-106934000D02*
X119684800Y-104140000D01*
X100634800Y-101193600D02*
X106375200Y-106934000D01*
X119684800Y-100660200D02*
X121564400Y-98780600D01*
X119684800Y-104140000D02*
X119684800Y-100660200D01*
X106375200Y-106934000D02*
X116890800Y-106934000D01*
X102886750Y-98895500D02*
X101561300Y-98895500D01*
X101561300Y-98895500D02*
X100634800Y-99822000D01*
X121564400Y-98780600D02*
X123723400Y-98780600D01*
X93192600Y-100126800D02*
X96875600Y-103809800D01*
X91135200Y-100126800D02*
X93192600Y-100126800D01*
X96875600Y-103809800D02*
X98729800Y-103809800D01*
X90652600Y-99644200D02*
X91135200Y-100126800D01*
X98729800Y-103809800D02*
X100744550Y-105824550D01*
X100744550Y-105824550D02*
X100744550Y-106172000D01*
X98204550Y-104910150D02*
X98204550Y-106172000D01*
X96469200Y-104470200D02*
X97764600Y-104470200D01*
X95021400Y-103022400D02*
X96469200Y-104470200D01*
X93091000Y-103022400D02*
X95021400Y-103022400D01*
X97764600Y-104470200D02*
X98204550Y-104910150D01*
X91822069Y-91237869D02*
X93319600Y-92735400D01*
X89148768Y-91237869D02*
X91822069Y-91237869D01*
X93319600Y-92735400D02*
X99872800Y-92735400D01*
X99872800Y-92735400D02*
X100812600Y-93675200D01*
X98081858Y-91926909D02*
X98094800Y-91913967D01*
X98094800Y-87469450D02*
X96477350Y-85852000D01*
X98094800Y-91913967D02*
X98094800Y-87469450D01*
D18*
X90220800Y-85394800D02*
X92430600Y-83185000D01*
X92430600Y-83185000D02*
X108821750Y-83185000D01*
X88188800Y-91516200D02*
X88188800Y-90754200D01*
X90220800Y-86360000D02*
X90220800Y-85394800D01*
X88188800Y-90754200D02*
X88976200Y-89966800D01*
X88976200Y-89966800D02*
X88976200Y-89154000D01*
G04 #@! TA.AperFunction,Conductor*
G36*
X90385231Y-85700130D02*
G01*
X90477079Y-85712222D01*
X90494423Y-85714506D01*
X90525691Y-85722884D01*
X90616118Y-85760340D01*
X90644152Y-85776525D01*
X90721802Y-85836109D01*
X90744691Y-85858998D01*
X90804274Y-85936648D01*
X90820459Y-85964681D01*
X90857915Y-86055108D01*
X90866293Y-86086375D01*
X90880669Y-86195564D01*
X90881200Y-86203665D01*
X90881200Y-88355028D01*
X90880653Y-88363241D01*
X90866978Y-88465529D01*
X90865836Y-88474071D01*
X90857203Y-88505780D01*
X90818627Y-88597347D01*
X90801967Y-88625676D01*
X90733016Y-88713689D01*
X90727513Y-88719826D01*
X89962948Y-89466188D01*
X89956880Y-89471393D01*
X89870173Y-89536551D01*
X89842442Y-89552266D01*
X89753165Y-89588618D01*
X89722340Y-89596745D01*
X89666059Y-89604039D01*
X89614785Y-89610685D01*
X89606811Y-89611200D01*
X88769066Y-89611200D01*
X88760968Y-89610669D01*
X88737457Y-89607574D01*
X88651775Y-89596293D01*
X88620508Y-89587915D01*
X88530081Y-89550459D01*
X88502048Y-89534274D01*
X88424398Y-89474691D01*
X88401508Y-89451801D01*
X88341925Y-89374151D01*
X88325740Y-89346118D01*
X88288284Y-89255691D01*
X88279906Y-89224423D01*
X88265531Y-89115235D01*
X88265000Y-89107133D01*
X88265000Y-86203666D01*
X88265531Y-86195564D01*
X88279906Y-86086376D01*
X88288284Y-86055108D01*
X88325740Y-85964681D01*
X88341923Y-85936650D01*
X88401513Y-85858992D01*
X88424392Y-85836113D01*
X88502050Y-85776523D01*
X88530079Y-85760340D01*
X88620509Y-85722883D01*
X88651775Y-85714506D01*
X88760967Y-85700130D01*
X88769067Y-85699600D01*
X90377133Y-85699600D01*
X90385231Y-85700130D01*
G37*
G04 #@! TD.AperFunction*
G04 #@! TA.AperFunction,Conductor*
G36*
X92748546Y-93053122D02*
G01*
X92769840Y-93070230D01*
X92818637Y-93119027D01*
X92828521Y-93131363D01*
X92828759Y-93131167D01*
X92833813Y-93137276D01*
X92884251Y-93184641D01*
X92905123Y-93205514D01*
X92905127Y-93205517D01*
X92905130Y-93205520D01*
X92910571Y-93209740D01*
X92915075Y-93213588D01*
X92949018Y-93245462D01*
X92962561Y-93252907D01*
X92966429Y-93255034D01*
X92982955Y-93265889D01*
X92998662Y-93278073D01*
X92998663Y-93278073D01*
X92998664Y-93278074D01*
X93041392Y-93296563D01*
X93046722Y-93299175D01*
X93072526Y-93313360D01*
X93087508Y-93321597D01*
X93106756Y-93326539D01*
X93125457Y-93332941D01*
X93134214Y-93336731D01*
X93143702Y-93340837D01*
X93143703Y-93340837D01*
X93143705Y-93340838D01*
X93170891Y-93345143D01*
X93189678Y-93348119D01*
X93195490Y-93349321D01*
X93240581Y-93360900D01*
X93260456Y-93360900D01*
X93280165Y-93362450D01*
X93299796Y-93365560D01*
X93333302Y-93362392D01*
X93346135Y-93361180D01*
X93352068Y-93360900D01*
X99062665Y-93360900D01*
X99130786Y-93380902D01*
X99159232Y-93405964D01*
X100067741Y-94489980D01*
X101066600Y-95681800D01*
X102243567Y-95681800D01*
X102251798Y-95682340D01*
X102301301Y-95688856D01*
X102359449Y-95696512D01*
X102391212Y-95705022D01*
X102480028Y-95741811D01*
X102508509Y-95758255D01*
X102584769Y-95816771D01*
X102608028Y-95840030D01*
X102666544Y-95916290D01*
X102682990Y-95944775D01*
X102719775Y-96033581D01*
X102728288Y-96065354D01*
X102740826Y-96160591D01*
X102740809Y-96193609D01*
X102728268Y-96288133D01*
X102719626Y-96320129D01*
X102682894Y-96408058D01*
X102666208Y-96436694D01*
X102607819Y-96512003D01*
X102584241Y-96535298D01*
X102508239Y-96592772D01*
X102479403Y-96609113D01*
X102391036Y-96644783D01*
X102358939Y-96653039D01*
X102272869Y-96663405D01*
X102251869Y-96665934D01*
X102243573Y-96666381D01*
X102218062Y-96666074D01*
X100916624Y-96650395D01*
X100898775Y-96648907D01*
X100851545Y-96641560D01*
X100757347Y-96626906D01*
X100723180Y-96616465D01*
X100601825Y-96559502D01*
X100571960Y-96539886D01*
X100464680Y-96445144D01*
X100452131Y-96432364D01*
X100329381Y-96288133D01*
X99928222Y-95816771D01*
X99470256Y-95278660D01*
X99441338Y-95213820D01*
X99440618Y-95203087D01*
X99440209Y-95199202D01*
X99440210Y-95199200D01*
X99420424Y-95010944D01*
X99420424Y-95010943D01*
X99361931Y-94830921D01*
X99361927Y-94830913D01*
X99267284Y-94666985D01*
X99267283Y-94666983D01*
X99140623Y-94526313D01*
X98987482Y-94415050D01*
X98987482Y-94415049D01*
X98837085Y-94348088D01*
X98814553Y-94338056D01*
X98814551Y-94338055D01*
X98814550Y-94338055D01*
X98637759Y-94300477D01*
X98602800Y-94259400D01*
X98325565Y-94259400D01*
X93459810Y-94259400D01*
X93167200Y-94259400D01*
X92987035Y-94489976D01*
X92987033Y-94489979D01*
X92987030Y-94489982D01*
X89732798Y-98654785D01*
X89594920Y-98831243D01*
X89597799Y-99042418D01*
X89597799Y-99042423D01*
X89597799Y-99042432D01*
X89608051Y-99794306D01*
X89608051Y-99794309D01*
X89608051Y-99794314D01*
X89611200Y-100025200D01*
X89768312Y-100194398D01*
X89768314Y-100194400D01*
X90028912Y-100475044D01*
X90271600Y-100736400D01*
X90975671Y-100736400D01*
X90995380Y-100737950D01*
X90997685Y-100738316D01*
X91005279Y-100739519D01*
X91011084Y-100740720D01*
X91040042Y-100748156D01*
X91056176Y-100752299D01*
X91056178Y-100752299D01*
X91056181Y-100752300D01*
X91076056Y-100752300D01*
X91095766Y-100753851D01*
X91097761Y-100754166D01*
X91115396Y-100756960D01*
X91148902Y-100753792D01*
X91161735Y-100752580D01*
X91167668Y-100752300D01*
X92379032Y-100752300D01*
X92387259Y-100752839D01*
X92394853Y-100753838D01*
X92401238Y-100754678D01*
X92433010Y-100763190D01*
X92547075Y-100810437D01*
X92575557Y-100826881D01*
X92673503Y-100902037D01*
X92696762Y-100925296D01*
X92771917Y-101023240D01*
X92788363Y-101051726D01*
X92835607Y-101165783D01*
X92844120Y-101197554D01*
X92861860Y-101332301D01*
X92862400Y-101340533D01*
X92862400Y-102056633D01*
X92842398Y-102124754D01*
X92788742Y-102171247D01*
X92787650Y-102171739D01*
X92638272Y-102238247D01*
X92638267Y-102238250D01*
X92485126Y-102349513D01*
X92358466Y-102490183D01*
X92358465Y-102490185D01*
X92263822Y-102654113D01*
X92263818Y-102654121D01*
X92205325Y-102834143D01*
X92185540Y-103022399D01*
X92205325Y-103210656D01*
X92263818Y-103390678D01*
X92263822Y-103390686D01*
X92358465Y-103554614D01*
X92358466Y-103554616D01*
X92485126Y-103695286D01*
X92638267Y-103806549D01*
X92638267Y-103806550D01*
X92690355Y-103829741D01*
X92787650Y-103873060D01*
X92841745Y-103919039D01*
X92862394Y-103986967D01*
X92862400Y-103988166D01*
X92862400Y-107091866D01*
X92861860Y-107100098D01*
X92844120Y-107234845D01*
X92835607Y-107266616D01*
X92788363Y-107380673D01*
X92771917Y-107409159D01*
X92696762Y-107507103D01*
X92673503Y-107530362D01*
X92575559Y-107605517D01*
X92547073Y-107621963D01*
X92433016Y-107669207D01*
X92401245Y-107677720D01*
X92270296Y-107694960D01*
X92262064Y-107695500D01*
X83629908Y-107695500D01*
X83621693Y-107694963D01*
X83491028Y-107677797D01*
X83459319Y-107669319D01*
X83345462Y-107622269D01*
X83317018Y-107605889D01*
X83219176Y-107531028D01*
X83195928Y-107507858D01*
X83120738Y-107410261D01*
X83104269Y-107381881D01*
X83056837Y-107268176D01*
X83048254Y-107236495D01*
X83048032Y-107234845D01*
X83030140Y-107102074D01*
X83029577Y-107093894D01*
X83022863Y-105079799D01*
X90737740Y-105079799D01*
X90757525Y-105268056D01*
X90816018Y-105448078D01*
X90816022Y-105448086D01*
X90910665Y-105612014D01*
X90910666Y-105612016D01*
X91037326Y-105752686D01*
X91190467Y-105863949D01*
X91190467Y-105863950D01*
X91216932Y-105875733D01*
X91363397Y-105940944D01*
X91548554Y-105980300D01*
X91737846Y-105980300D01*
X91923003Y-105940944D01*
X92095930Y-105863951D01*
X92095930Y-105863950D01*
X92095932Y-105863950D01*
X92095932Y-105863949D01*
X92249071Y-105752688D01*
X92375733Y-105612016D01*
X92470379Y-105448084D01*
X92528874Y-105268056D01*
X92548660Y-105079800D01*
X92528874Y-104891544D01*
X92518955Y-104861016D01*
X92470381Y-104711521D01*
X92470377Y-104711513D01*
X92375734Y-104547585D01*
X92375733Y-104547583D01*
X92249073Y-104406913D01*
X92095932Y-104295650D01*
X92095932Y-104295649D01*
X91970345Y-104239734D01*
X91923003Y-104218656D01*
X91923001Y-104218655D01*
X91923000Y-104218655D01*
X91737846Y-104179300D01*
X91548554Y-104179300D01*
X91363399Y-104218655D01*
X91190467Y-104295649D01*
X91190467Y-104295650D01*
X91037326Y-104406913D01*
X90910666Y-104547583D01*
X90910665Y-104547585D01*
X90816022Y-104711513D01*
X90816018Y-104711521D01*
X90757525Y-104891543D01*
X90737740Y-105079799D01*
X83022863Y-105079799D01*
X83010586Y-101396799D01*
X87334140Y-101396799D01*
X87353925Y-101585056D01*
X87412418Y-101765078D01*
X87412422Y-101765086D01*
X87507065Y-101929014D01*
X87507066Y-101929016D01*
X87633726Y-102069686D01*
X87786867Y-102180949D01*
X87786867Y-102180950D01*
X87834212Y-102202029D01*
X87959797Y-102257944D01*
X88144954Y-102297300D01*
X88334246Y-102297300D01*
X88519403Y-102257944D01*
X88692330Y-102180951D01*
X88692330Y-102180950D01*
X88692332Y-102180950D01*
X88692332Y-102180949D01*
X88845471Y-102069688D01*
X88972133Y-101929016D01*
X89066779Y-101765084D01*
X89125274Y-101585056D01*
X89145060Y-101396800D01*
X89125274Y-101208544D01*
X89097981Y-101124545D01*
X89066781Y-101028521D01*
X89066777Y-101028513D01*
X88972134Y-100864585D01*
X88972133Y-100864583D01*
X88845473Y-100723913D01*
X88692332Y-100612650D01*
X88692332Y-100612649D01*
X88566745Y-100556734D01*
X88519403Y-100535656D01*
X88519401Y-100535655D01*
X88519400Y-100535655D01*
X88334246Y-100496300D01*
X88144954Y-100496300D01*
X87959799Y-100535655D01*
X87786867Y-100612649D01*
X87786867Y-100612650D01*
X87633726Y-100723913D01*
X87507066Y-100864583D01*
X87507065Y-100864585D01*
X87412422Y-101028513D01*
X87412418Y-101028521D01*
X87353925Y-101208543D01*
X87334140Y-101396799D01*
X83010586Y-101396799D01*
X83010385Y-101336400D01*
X83008049Y-100635872D01*
X83008570Y-100627581D01*
X83026163Y-100491634D01*
X83034713Y-100459589D01*
X83082371Y-100344552D01*
X83098988Y-100315849D01*
X83182688Y-100207291D01*
X83188192Y-100201051D01*
X83314494Y-100075617D01*
X84717431Y-98682322D01*
X84779859Y-98648513D01*
X84850657Y-98653822D01*
X84907346Y-98696564D01*
X84931927Y-98763170D01*
X84923308Y-98811801D01*
X84925261Y-98812436D01*
X84864725Y-98998743D01*
X84844940Y-99187000D01*
X84864725Y-99375256D01*
X84923218Y-99555278D01*
X84923222Y-99555286D01*
X85017865Y-99719214D01*
X85017866Y-99719216D01*
X85144526Y-99859886D01*
X85297667Y-99971149D01*
X85297667Y-99971150D01*
X85345012Y-99992229D01*
X85470597Y-100048144D01*
X85655754Y-100087500D01*
X85845046Y-100087500D01*
X86030203Y-100048144D01*
X86203130Y-99971151D01*
X86203130Y-99971150D01*
X86203132Y-99971150D01*
X86203132Y-99971149D01*
X86356271Y-99859888D01*
X86415322Y-99794306D01*
X86482933Y-99719216D01*
X86482934Y-99719214D01*
X86489458Y-99707914D01*
X86577579Y-99555284D01*
X86636074Y-99375256D01*
X86655860Y-99187000D01*
X86636074Y-98998744D01*
X86591009Y-98860049D01*
X86577581Y-98818721D01*
X86577577Y-98818713D01*
X86573586Y-98811801D01*
X86482934Y-98654785D01*
X86482933Y-98654783D01*
X86356273Y-98514113D01*
X86203132Y-98402850D01*
X86203132Y-98402849D01*
X86068740Y-98343014D01*
X86030203Y-98325856D01*
X86030201Y-98325855D01*
X86030200Y-98325855D01*
X85845046Y-98286500D01*
X85655754Y-98286500D01*
X85470597Y-98325856D01*
X85383097Y-98364813D01*
X85312730Y-98374247D01*
X85248433Y-98344140D01*
X85210620Y-98284051D01*
X85211297Y-98213058D01*
X85243059Y-98160306D01*
X90220959Y-93216618D01*
X90227126Y-93211242D01*
X90229103Y-93209733D01*
X90331741Y-93131363D01*
X90334265Y-93129436D01*
X90362536Y-93113161D01*
X90475681Y-93066324D01*
X90507181Y-93057855D01*
X90640803Y-93039999D01*
X90648952Y-93039445D01*
X92680368Y-93033326D01*
X92748546Y-93053122D01*
G37*
G04 #@! TD.AperFunction*
G04 #@! TA.AperFunction,Conductor*
G36*
X83165187Y-81789047D02*
G01*
X83297199Y-81806565D01*
X83329200Y-81815211D01*
X83425062Y-81855266D01*
X83443996Y-81863177D01*
X83472635Y-81879869D01*
X83568331Y-81954084D01*
X83580871Y-81963809D01*
X83587090Y-81969327D01*
X86872170Y-85295213D01*
X86877471Y-85301317D01*
X86958192Y-85407294D01*
X86974284Y-85435227D01*
X87020780Y-85546952D01*
X87029257Y-85578054D01*
X87038536Y-85644958D01*
X87047558Y-85710014D01*
X87048153Y-85718067D01*
X87053593Y-86289375D01*
X87034241Y-86357683D01*
X86981030Y-86404685D01*
X86910856Y-86415458D01*
X86845997Y-86386581D01*
X86833963Y-86374886D01*
X86761253Y-86294134D01*
X86606752Y-86181882D01*
X86432288Y-86104206D01*
X86245487Y-86064500D01*
X86054513Y-86064500D01*
X85867711Y-86104206D01*
X85693247Y-86181882D01*
X85538744Y-86294135D01*
X85410965Y-86436048D01*
X85410958Y-86436058D01*
X85367353Y-86511585D01*
X85315473Y-86601444D01*
X85308421Y-86623147D01*
X85256457Y-86783072D01*
X85236496Y-86973000D01*
X85256457Y-87162927D01*
X85276703Y-87225236D01*
X85315473Y-87344556D01*
X85315476Y-87344561D01*
X85410958Y-87509941D01*
X85410965Y-87509951D01*
X85538744Y-87651864D01*
X85538747Y-87651866D01*
X85693248Y-87764118D01*
X85867712Y-87841794D01*
X86054513Y-87881500D01*
X86245487Y-87881500D01*
X86432288Y-87841794D01*
X86606752Y-87764118D01*
X86761253Y-87651866D01*
X86846825Y-87556828D01*
X86907270Y-87519589D01*
X86978254Y-87520940D01*
X87037239Y-87560454D01*
X87065497Y-87625584D01*
X87066455Y-87639939D01*
X87072723Y-88298040D01*
X87053371Y-88366348D01*
X87000160Y-88413350D01*
X86997978Y-88414347D01*
X86855605Y-88477735D01*
X86701102Y-88589988D01*
X86573323Y-88731901D01*
X86573316Y-88731911D01*
X86477834Y-88897291D01*
X86477831Y-88897298D01*
X86418815Y-89078925D01*
X86398854Y-89268853D01*
X86418815Y-89458780D01*
X86448884Y-89551323D01*
X86477831Y-89640409D01*
X86477834Y-89640414D01*
X86573316Y-89805794D01*
X86573323Y-89805804D01*
X86701102Y-89947717D01*
X86701105Y-89947719D01*
X86855606Y-90059971D01*
X87016526Y-90131616D01*
X87070621Y-90177596D01*
X87091271Y-90245523D01*
X87141291Y-95497759D01*
X87121939Y-95566067D01*
X87104085Y-95588361D01*
X84881211Y-97795959D01*
X84803152Y-97895423D01*
X84803139Y-97895442D01*
X84771382Y-97948185D01*
X84720000Y-98063690D01*
X84717636Y-98071751D01*
X84715199Y-98071036D01*
X84690542Y-98123667D01*
X84639750Y-98158438D01*
X84535328Y-98196975D01*
X84472892Y-98230787D01*
X84355584Y-98317974D01*
X83480546Y-99186999D01*
X82820331Y-99842676D01*
X82808701Y-99855015D01*
X82791984Y-99873968D01*
X82781200Y-99887039D01*
X82681976Y-100015731D01*
X82681975Y-100015732D01*
X82663087Y-100043892D01*
X82629477Y-100101946D01*
X82629478Y-100101946D01*
X82629476Y-100101949D01*
X82621599Y-100117897D01*
X82614462Y-100132347D01*
X82553826Y-100278710D01*
X82553824Y-100278716D01*
X82542940Y-100310830D01*
X82525648Y-100375641D01*
X82519175Y-100408462D01*
X82519085Y-100408919D01*
X82498230Y-100570074D01*
X82496612Y-100586928D01*
X82495028Y-100612134D01*
X82494524Y-100629097D01*
X82497083Y-101396799D01*
X82497089Y-101398511D01*
X82509360Y-105079799D01*
X82509366Y-105081511D01*
X82510396Y-105390868D01*
X82490621Y-105459055D01*
X82437121Y-105505727D01*
X82366881Y-105516065D01*
X82310337Y-105493224D01*
X82295552Y-105482482D01*
X82260329Y-105466800D01*
X82121088Y-105404806D01*
X81934287Y-105365100D01*
X81743313Y-105365100D01*
X81556511Y-105404806D01*
X81382034Y-105482488D01*
X81381077Y-105483041D01*
X81380454Y-105483191D01*
X81376016Y-105485168D01*
X81375654Y-105484355D01*
X81312079Y-105499765D01*
X81260437Y-105484598D01*
X81260184Y-105485168D01*
X81255934Y-105483276D01*
X81255107Y-105483033D01*
X81254157Y-105482484D01*
X81079688Y-105404806D01*
X80892887Y-105365100D01*
X80701913Y-105365100D01*
X80515111Y-105404806D01*
X80340647Y-105482482D01*
X80186144Y-105594735D01*
X80058365Y-105736648D01*
X80058358Y-105736658D01*
X79962876Y-105902038D01*
X79962873Y-105902045D01*
X79903857Y-106083672D01*
X79883896Y-106273599D01*
X79903857Y-106463527D01*
X79918014Y-106507095D01*
X79962873Y-106645156D01*
X79962876Y-106645161D01*
X80058358Y-106810541D01*
X80058365Y-106810551D01*
X80186144Y-106952464D01*
X80186147Y-106952466D01*
X80340648Y-107064718D01*
X80515112Y-107142394D01*
X80701913Y-107182100D01*
X80892887Y-107182100D01*
X81079688Y-107142394D01*
X81254152Y-107064718D01*
X81254158Y-107064713D01*
X81255090Y-107064176D01*
X81255702Y-107064027D01*
X81260184Y-107062032D01*
X81260548Y-107062851D01*
X81324084Y-107047431D01*
X81375760Y-107062605D01*
X81376016Y-107062032D01*
X81380292Y-107063935D01*
X81381110Y-107064176D01*
X81382045Y-107064715D01*
X81382048Y-107064718D01*
X81556512Y-107142394D01*
X81743313Y-107182100D01*
X81934287Y-107182100D01*
X82121088Y-107142394D01*
X82295552Y-107064718D01*
X82318370Y-107048139D01*
X82385233Y-107024281D01*
X82454385Y-107040359D01*
X82503867Y-107091272D01*
X82518132Y-107141412D01*
X82518426Y-107145681D01*
X82520121Y-107162351D01*
X82541595Y-107321703D01*
X82548234Y-107354576D01*
X82548233Y-107354575D01*
X82565589Y-107418639D01*
X82565589Y-107418640D01*
X82576461Y-107450391D01*
X82605912Y-107520991D01*
X82613678Y-107591561D01*
X82582057Y-107655128D01*
X82521090Y-107691508D01*
X82489624Y-107695500D01*
X76100095Y-107695500D01*
X76031974Y-107675498D01*
X75985481Y-107621842D01*
X75975377Y-107551568D01*
X76004871Y-107486988D01*
X76053711Y-107452348D01*
X76077609Y-107442885D01*
X76338517Y-107339585D01*
X76604090Y-107193584D01*
X76849271Y-107015450D01*
X77070192Y-106807992D01*
X77263370Y-106574480D01*
X77263372Y-106574475D01*
X77263375Y-106574473D01*
X77425752Y-106318607D01*
X77425758Y-106318598D01*
X77554794Y-106044381D01*
X77648445Y-105756154D01*
X77705233Y-105458462D01*
X77705234Y-105458449D01*
X77724262Y-105156006D01*
X77724262Y-105155993D01*
X77705234Y-104853550D01*
X77705232Y-104853533D01*
X77693231Y-104790620D01*
X77648445Y-104555846D01*
X77554794Y-104267619D01*
X77425758Y-103993402D01*
X77421620Y-103986881D01*
X77263375Y-103737526D01*
X77070192Y-103504008D01*
X77070190Y-103504006D01*
X76849270Y-103296549D01*
X76604092Y-103118417D01*
X76555429Y-103091664D01*
X76338517Y-102972415D01*
X76257414Y-102940304D01*
X76056744Y-102860852D01*
X76056737Y-102860850D01*
X75763192Y-102785482D01*
X75462544Y-102747501D01*
X75462532Y-102747500D01*
X75462530Y-102747500D01*
X75159470Y-102747500D01*
X75159467Y-102747500D01*
X75159455Y-102747501D01*
X74858807Y-102785482D01*
X74565262Y-102860850D01*
X74565255Y-102860852D01*
X74283483Y-102972415D01*
X74017907Y-103118417D01*
X73772730Y-103296549D01*
X73772729Y-103296549D01*
X73551809Y-103504006D01*
X73551807Y-103504008D01*
X73358624Y-103737526D01*
X73196247Y-103993392D01*
X73196240Y-103993406D01*
X73067209Y-104267612D01*
X73067207Y-104267616D01*
X73017333Y-104421112D01*
X72977259Y-104479717D01*
X72911862Y-104507354D01*
X72841906Y-104495247D01*
X72789600Y-104447241D01*
X72771500Y-104382175D01*
X72771500Y-101350003D01*
X73083220Y-101350003D01*
X73102690Y-101547694D01*
X73102691Y-101547700D01*
X73102692Y-101547701D01*
X73160359Y-101737804D01*
X73254005Y-101913004D01*
X73380032Y-102066568D01*
X73533596Y-102192595D01*
X73708796Y-102286241D01*
X73898899Y-102343908D01*
X73898903Y-102343908D01*
X73898905Y-102343909D01*
X73983113Y-102352202D01*
X74047053Y-102358500D01*
X74047062Y-102358500D01*
X74746138Y-102358500D01*
X74746147Y-102358500D01*
X74830361Y-102350205D01*
X74894294Y-102343909D01*
X74894295Y-102343908D01*
X74894301Y-102343908D01*
X75084404Y-102286241D01*
X75259604Y-102192595D01*
X75413168Y-102066568D01*
X75539195Y-101913004D01*
X75632841Y-101737804D01*
X75690508Y-101547701D01*
X75709180Y-101358128D01*
X75709980Y-101350003D01*
X77013220Y-101350003D01*
X77032690Y-101547694D01*
X77032691Y-101547700D01*
X77032692Y-101547701D01*
X77090359Y-101737804D01*
X77184005Y-101913004D01*
X77310032Y-102066568D01*
X77463596Y-102192595D01*
X77638796Y-102286241D01*
X77828899Y-102343908D01*
X77828903Y-102343908D01*
X77828905Y-102343909D01*
X77913113Y-102352202D01*
X77977053Y-102358500D01*
X77977062Y-102358500D01*
X79176138Y-102358500D01*
X79176147Y-102358500D01*
X79260361Y-102350205D01*
X79324294Y-102343909D01*
X79324295Y-102343908D01*
X79324301Y-102343908D01*
X79514404Y-102286241D01*
X79689604Y-102192595D01*
X79718026Y-102169269D01*
X79783372Y-102141515D01*
X79853350Y-102153496D01*
X79905743Y-102201408D01*
X79923915Y-102270040D01*
X79923270Y-102279838D01*
X79909296Y-102412799D01*
X79929257Y-102602727D01*
X79941492Y-102640381D01*
X79988273Y-102784356D01*
X79988276Y-102784361D01*
X80083758Y-102949741D01*
X80083765Y-102949751D01*
X80211544Y-103091664D01*
X80211547Y-103091666D01*
X80366048Y-103203918D01*
X80540512Y-103281594D01*
X80727313Y-103321300D01*
X80918287Y-103321300D01*
X81105088Y-103281594D01*
X81279552Y-103203918D01*
X81434053Y-103091666D01*
X81561840Y-102949744D01*
X81657327Y-102784356D01*
X81716342Y-102602728D01*
X81736304Y-102412800D01*
X81716342Y-102222872D01*
X81657327Y-102041244D01*
X81619746Y-101976152D01*
X81558539Y-101870137D01*
X81560716Y-101868879D01*
X81540657Y-101812692D01*
X81556724Y-101743538D01*
X81572812Y-101721167D01*
X81587240Y-101705144D01*
X81682727Y-101539756D01*
X81741742Y-101358128D01*
X81761704Y-101168200D01*
X81741742Y-100978272D01*
X81682727Y-100796644D01*
X81587240Y-100631256D01*
X81587238Y-100631254D01*
X81587234Y-100631248D01*
X81459455Y-100489335D01*
X81304952Y-100377082D01*
X81130488Y-100299406D01*
X80943687Y-100259700D01*
X80752713Y-100259700D01*
X80565911Y-100299406D01*
X80391447Y-100377082D01*
X80236944Y-100489335D01*
X80109165Y-100631248D01*
X80109161Y-100631255D01*
X80089599Y-100665136D01*
X80038215Y-100714128D01*
X79968501Y-100727562D01*
X79902591Y-100701174D01*
X79883082Y-100682067D01*
X79843168Y-100633432D01*
X79689604Y-100507405D01*
X79514404Y-100413759D01*
X79393496Y-100377082D01*
X79324301Y-100356092D01*
X79324300Y-100356091D01*
X79324294Y-100356090D01*
X79176153Y-100341500D01*
X79176147Y-100341500D01*
X78683497Y-100341500D01*
X78615376Y-100321498D01*
X78568883Y-100267842D01*
X78558779Y-100197568D01*
X78567085Y-100167291D01*
X78607287Y-100070236D01*
X78627066Y-99920000D01*
X78607287Y-99769764D01*
X78549298Y-99629767D01*
X78549293Y-99629760D01*
X78457051Y-99509548D01*
X78336839Y-99417306D01*
X78336831Y-99417301D01*
X78196834Y-99359312D01*
X78084322Y-99344500D01*
X78084320Y-99344500D01*
X78008880Y-99344500D01*
X78008877Y-99344500D01*
X77896365Y-99359312D01*
X77756368Y-99417301D01*
X77756360Y-99417306D01*
X77636148Y-99509548D01*
X77543906Y-99629760D01*
X77543901Y-99629768D01*
X77485912Y-99769765D01*
X77466134Y-99919999D01*
X77466134Y-99920000D01*
X77485912Y-100070234D01*
X77543901Y-100210231D01*
X77543903Y-100210234D01*
X77591844Y-100272712D01*
X77617444Y-100338933D01*
X77603179Y-100408481D01*
X77553578Y-100459277D01*
X77551278Y-100460538D01*
X77463593Y-100507406D01*
X77310032Y-100633432D01*
X77184005Y-100786995D01*
X77090359Y-100962195D01*
X77032690Y-101152305D01*
X77013220Y-101349996D01*
X77013220Y-101350003D01*
X75709980Y-101350003D01*
X75709980Y-101349996D01*
X75690509Y-101152305D01*
X75690508Y-101152303D01*
X75690508Y-101152299D01*
X75632841Y-100962196D01*
X75539195Y-100786996D01*
X75413168Y-100633432D01*
X75259604Y-100507405D01*
X75084404Y-100413759D01*
X74894301Y-100356092D01*
X74894300Y-100356091D01*
X74894294Y-100356090D01*
X74746153Y-100341500D01*
X74746147Y-100341500D01*
X74047053Y-100341500D01*
X74047046Y-100341500D01*
X73898905Y-100356090D01*
X73708795Y-100413759D01*
X73533595Y-100507405D01*
X73380032Y-100633432D01*
X73254005Y-100786995D01*
X73160359Y-100962195D01*
X73102690Y-101152305D01*
X73083220Y-101349996D01*
X73083220Y-101350003D01*
X72771500Y-101350003D01*
X72771500Y-92710003D01*
X73083220Y-92710003D01*
X73102690Y-92907694D01*
X73102691Y-92907700D01*
X73102692Y-92907701D01*
X73160359Y-93097804D01*
X73254005Y-93273004D01*
X73380032Y-93426568D01*
X73533596Y-93552595D01*
X73708796Y-93646241D01*
X73898899Y-93703908D01*
X73898903Y-93703908D01*
X73898905Y-93703909D01*
X73983113Y-93712202D01*
X74047053Y-93718500D01*
X74047062Y-93718500D01*
X74746138Y-93718500D01*
X74746147Y-93718500D01*
X74830361Y-93710205D01*
X74894294Y-93703909D01*
X74894295Y-93703908D01*
X74894301Y-93703908D01*
X75084404Y-93646241D01*
X75259604Y-93552595D01*
X75413168Y-93426568D01*
X75539195Y-93273004D01*
X75632841Y-93097804D01*
X75690508Y-92907701D01*
X75692429Y-92888202D01*
X75709980Y-92710003D01*
X77013220Y-92710003D01*
X77032690Y-92907694D01*
X77032691Y-92907700D01*
X77032692Y-92907701D01*
X77090359Y-93097804D01*
X77184005Y-93273004D01*
X77310032Y-93426568D01*
X77463596Y-93552595D01*
X77551277Y-93599461D01*
X77601925Y-93649213D01*
X77617635Y-93718449D01*
X77593419Y-93785188D01*
X77591844Y-93787286D01*
X77543906Y-93849760D01*
X77543901Y-93849768D01*
X77485912Y-93989765D01*
X77466134Y-94139999D01*
X77485912Y-94290234D01*
X77543901Y-94430231D01*
X77543906Y-94430239D01*
X77636148Y-94550451D01*
X77756360Y-94642693D01*
X77756367Y-94642698D01*
X77896364Y-94700687D01*
X78008880Y-94715500D01*
X78008887Y-94715500D01*
X78084313Y-94715500D01*
X78084320Y-94715500D01*
X78196836Y-94700687D01*
X78336833Y-94642698D01*
X78457051Y-94550451D01*
X78549298Y-94430233D01*
X78607287Y-94290236D01*
X78627066Y-94140000D01*
X78607287Y-93989764D01*
X78567087Y-93892714D01*
X78559499Y-93822129D01*
X78591278Y-93758642D01*
X78652336Y-93722414D01*
X78683497Y-93718500D01*
X79176138Y-93718500D01*
X79176147Y-93718500D01*
X79260361Y-93710205D01*
X79324294Y-93703909D01*
X79324295Y-93703908D01*
X79324301Y-93703908D01*
X79514404Y-93646241D01*
X79614474Y-93592752D01*
X79683977Y-93578281D01*
X79750274Y-93603684D01*
X79792312Y-93660897D01*
X79793697Y-93664928D01*
X79810473Y-93716556D01*
X79810474Y-93716557D01*
X79810476Y-93716561D01*
X79905958Y-93881941D01*
X79905965Y-93881951D01*
X80033744Y-94023864D01*
X80033747Y-94023866D01*
X80188248Y-94136118D01*
X80362712Y-94213794D01*
X80549513Y-94253500D01*
X80740487Y-94253500D01*
X80927288Y-94213794D01*
X81101752Y-94136118D01*
X81256253Y-94023866D01*
X81384040Y-93881944D01*
X81426442Y-93808500D01*
X81477825Y-93759507D01*
X81535562Y-93745500D01*
X81578687Y-93745500D01*
X81765488Y-93705794D01*
X81939952Y-93628118D01*
X82094453Y-93515866D01*
X82222240Y-93373944D01*
X82317727Y-93208556D01*
X82376742Y-93026928D01*
X82396704Y-92837000D01*
X82376742Y-92647072D01*
X82317727Y-92465444D01*
X82222240Y-92300056D01*
X82222238Y-92300054D01*
X82222234Y-92300048D01*
X82094455Y-92158135D01*
X81939952Y-92045882D01*
X81765488Y-91968206D01*
X81578687Y-91928500D01*
X81514091Y-91928500D01*
X81445970Y-91908498D01*
X81404973Y-91865501D01*
X81333240Y-91741256D01*
X81283632Y-91686161D01*
X81252917Y-91622157D01*
X81257436Y-91562921D01*
X81309942Y-91401328D01*
X81329904Y-91211400D01*
X81309942Y-91021472D01*
X81250927Y-90839844D01*
X81155440Y-90674456D01*
X81155438Y-90674454D01*
X81155434Y-90674448D01*
X81027655Y-90532535D01*
X80873152Y-90420282D01*
X80698688Y-90342606D01*
X80511887Y-90302900D01*
X80320913Y-90302900D01*
X80134111Y-90342606D01*
X80100786Y-90357443D01*
X80030419Y-90366876D01*
X79966122Y-90336768D01*
X79955902Y-90326645D01*
X79935452Y-90303933D01*
X79796447Y-90202939D01*
X79753093Y-90146716D01*
X79747018Y-90075980D01*
X79750672Y-90062075D01*
X79785942Y-89953528D01*
X79805904Y-89763600D01*
X79785942Y-89573672D01*
X79740364Y-89433400D01*
X80645896Y-89433400D01*
X80665857Y-89623327D01*
X80695926Y-89715870D01*
X80724873Y-89804956D01*
X80724876Y-89804961D01*
X80820358Y-89970341D01*
X80820365Y-89970351D01*
X80948144Y-90112264D01*
X80979652Y-90135156D01*
X81102648Y-90224518D01*
X81277112Y-90302194D01*
X81463913Y-90341900D01*
X81654887Y-90341900D01*
X81841688Y-90302194D01*
X82016152Y-90224518D01*
X82170653Y-90112266D01*
X82217740Y-90059971D01*
X82298434Y-89970351D01*
X82298435Y-89970349D01*
X82298440Y-89970344D01*
X82393927Y-89804956D01*
X82452942Y-89623328D01*
X82472904Y-89433400D01*
X82452942Y-89243472D01*
X82393927Y-89061844D01*
X82298440Y-88896456D01*
X82298438Y-88896454D01*
X82298434Y-88896448D01*
X82170655Y-88754535D01*
X82016152Y-88642282D01*
X81841688Y-88564606D01*
X81654887Y-88524900D01*
X81463913Y-88524900D01*
X81277111Y-88564606D01*
X81102647Y-88642282D01*
X80948144Y-88754535D01*
X80820365Y-88896448D01*
X80820358Y-88896458D01*
X80724876Y-89061838D01*
X80724873Y-89061845D01*
X80665857Y-89243472D01*
X80645896Y-89433400D01*
X79740364Y-89433400D01*
X79726927Y-89392044D01*
X79631440Y-89226656D01*
X79631438Y-89226654D01*
X79631434Y-89226648D01*
X79503655Y-89084735D01*
X79349152Y-88972482D01*
X79174688Y-88894806D01*
X78987887Y-88855100D01*
X78796913Y-88855100D01*
X78610111Y-88894806D01*
X78435647Y-88972482D01*
X78281144Y-89084735D01*
X78153365Y-89226648D01*
X78153358Y-89226658D01*
X78057876Y-89392038D01*
X78057873Y-89392045D01*
X77998857Y-89573672D01*
X77978896Y-89763600D01*
X77998857Y-89953527D01*
X78004324Y-89970351D01*
X78057873Y-90135156D01*
X78082376Y-90177596D01*
X78153358Y-90300541D01*
X78153365Y-90300551D01*
X78281144Y-90442464D01*
X78420152Y-90543460D01*
X78463506Y-90599683D01*
X78469581Y-90670419D01*
X78465924Y-90684332D01*
X78430657Y-90792870D01*
X78410696Y-90982800D01*
X78430657Y-91172727D01*
X78443223Y-91211399D01*
X78489673Y-91354356D01*
X78516792Y-91401328D01*
X78580978Y-91512500D01*
X78597716Y-91581495D01*
X78574496Y-91648587D01*
X78518689Y-91692474D01*
X78471859Y-91701500D01*
X77977046Y-91701500D01*
X77828905Y-91716090D01*
X77638795Y-91773759D01*
X77463595Y-91867405D01*
X77310032Y-91993432D01*
X77184005Y-92146995D01*
X77090359Y-92322195D01*
X77032690Y-92512305D01*
X77013220Y-92709996D01*
X77013220Y-92710003D01*
X75709980Y-92710003D01*
X75709980Y-92709996D01*
X75690509Y-92512305D01*
X75690508Y-92512303D01*
X75690508Y-92512299D01*
X75632841Y-92322196D01*
X75539195Y-92146996D01*
X75413168Y-91993432D01*
X75259604Y-91867405D01*
X75084404Y-91773759D01*
X74894301Y-91716092D01*
X74894300Y-91716091D01*
X74894294Y-91716090D01*
X74746153Y-91701500D01*
X74746147Y-91701500D01*
X74047053Y-91701500D01*
X74047046Y-91701500D01*
X73898905Y-91716090D01*
X73708795Y-91773759D01*
X73533595Y-91867405D01*
X73380032Y-91993432D01*
X73254005Y-92146995D01*
X73160359Y-92322195D01*
X73102690Y-92512305D01*
X73083220Y-92709996D01*
X73083220Y-92710003D01*
X72771500Y-92710003D01*
X72771500Y-85101824D01*
X72791502Y-85033703D01*
X72845158Y-84987210D01*
X72915432Y-84977106D01*
X72980012Y-85006600D01*
X73017332Y-85062887D01*
X73067206Y-85216381D01*
X73196242Y-85490598D01*
X73196244Y-85490601D01*
X73196247Y-85490607D01*
X73358624Y-85746473D01*
X73358630Y-85746480D01*
X73551808Y-85979992D01*
X73772729Y-86187450D01*
X74017910Y-86365584D01*
X74283483Y-86511585D01*
X74524534Y-86607024D01*
X74580507Y-86650698D01*
X74603983Y-86717701D01*
X74587507Y-86786759D01*
X74536312Y-86835948D01*
X74529399Y-86839281D01*
X74473251Y-86864280D01*
X74473248Y-86864282D01*
X74318744Y-86976535D01*
X74190965Y-87118448D01*
X74190958Y-87118458D01*
X74095476Y-87283838D01*
X74095473Y-87283845D01*
X74036457Y-87465472D01*
X74016496Y-87655400D01*
X74036457Y-87845327D01*
X74048211Y-87881500D01*
X74095473Y-88026956D01*
X74095476Y-88026961D01*
X74190958Y-88192341D01*
X74190965Y-88192351D01*
X74318744Y-88334264D01*
X74362904Y-88366348D01*
X74473248Y-88446518D01*
X74647712Y-88524194D01*
X74834513Y-88563900D01*
X75025487Y-88563900D01*
X75212288Y-88524194D01*
X75386752Y-88446518D01*
X75541253Y-88334266D01*
X75669040Y-88192344D01*
X75709881Y-88121604D01*
X75761263Y-88072612D01*
X75830977Y-88059176D01*
X75896888Y-88085562D01*
X75928119Y-88121605D01*
X75968958Y-88192341D01*
X75968965Y-88192351D01*
X76096744Y-88334264D01*
X76140904Y-88366348D01*
X76251248Y-88446518D01*
X76425712Y-88524194D01*
X76612513Y-88563900D01*
X76803487Y-88563900D01*
X76990288Y-88524194D01*
X77164752Y-88446518D01*
X77319253Y-88334266D01*
X77447040Y-88192344D01*
X77542527Y-88026956D01*
X77601542Y-87845328D01*
X77621504Y-87655400D01*
X77601542Y-87465472D01*
X77542527Y-87283844D01*
X77447040Y-87118456D01*
X77447038Y-87118454D01*
X77447034Y-87118448D01*
X77319255Y-86976535D01*
X77164752Y-86864282D01*
X76990288Y-86786606D01*
X76803487Y-86746900D01*
X76612513Y-86746900D01*
X76425711Y-86786606D01*
X76251247Y-86864282D01*
X76096744Y-86976535D01*
X75968965Y-87118448D01*
X75968961Y-87118455D01*
X75928119Y-87189195D01*
X75876736Y-87238188D01*
X75807022Y-87251623D01*
X75741111Y-87225236D01*
X75709881Y-87189195D01*
X75669040Y-87118456D01*
X75669036Y-87118451D01*
X75669034Y-87118448D01*
X75541257Y-86976537D01*
X75505610Y-86950638D01*
X75462257Y-86894415D01*
X75456182Y-86823679D01*
X75489314Y-86760887D01*
X75551134Y-86725976D01*
X75563873Y-86723697D01*
X75763200Y-86698516D01*
X76056739Y-86623149D01*
X76338517Y-86511585D01*
X76604090Y-86365584D01*
X76849271Y-86187450D01*
X77070192Y-85979992D01*
X77263370Y-85746480D01*
X77263372Y-85746475D01*
X77263375Y-85746473D01*
X77370399Y-85577828D01*
X77425758Y-85490598D01*
X77554794Y-85216381D01*
X77648445Y-84928154D01*
X77705233Y-84630462D01*
X77724262Y-84328000D01*
X77706373Y-84043666D01*
X77705234Y-84025550D01*
X77705232Y-84025533D01*
X77648445Y-83727846D01*
X77554794Y-83439619D01*
X77425758Y-83165402D01*
X77425752Y-83165392D01*
X77263375Y-82909526D01*
X77070192Y-82676008D01*
X77070190Y-82676006D01*
X76849270Y-82468549D01*
X76604092Y-82290417D01*
X76535673Y-82252803D01*
X76338517Y-82144415D01*
X76056739Y-82032851D01*
X76053711Y-82031652D01*
X75997737Y-81987977D01*
X75974261Y-81920974D01*
X75990737Y-81851916D01*
X76041933Y-81802727D01*
X76100095Y-81788500D01*
X83156892Y-81788500D01*
X83165187Y-81789047D01*
G37*
G04 #@! TD.AperFunction*
M02*
